<svg xmlns="http://www.w3.org/2000/svg" viewBox="0 0 24 22.87"><defs><style>.cls-1{fill:#fff;fill-rule:evenodd;}</style></defs><g id="レイヤー_2" data-name="レイヤー 2"><g id="レイヤー_1-2" data-name="レイヤー 1"><path class="cls-1" d="M24,9.74C24,4.37,18.62,0,12,0S0,4.37,0,9.74c0,4.81,4.27,8.84,10,9.61.39.08.92.25,1.05.59a2.46,2.46,0,0,1,0,1.08l-.17,1c-.05.3-.24,1.19,1,.65a38.78,38.78,0,0,0,9.43-7A8.66,8.66,0,0,0,24,9.74ZM5,7.14a.24.24,0,0,1,.24.24v4.15H7.53a.23.23,0,0,1,.24.23v.84a.24.24,0,0,1-.24.24H4.17A.24.24,0,0,1,4,12.77H4a.25.25,0,0,1-.06-.16V7.38a.23.23,0,0,1,.23-.24Zm15,0a.24.24,0,0,1,.24.24v.84a.23.23,0,0,1-.24.23H17.72v.89H20a.23.23,0,0,1,.24.23v.84a.24.24,0,0,1-.24.24H17.72v.88H20a.24.24,0,0,1,.24.23v.85a.24.24,0,0,1-.24.23H16.64a.24.24,0,0,1-.16-.07h0a.23.23,0,0,1-.06-.16V7.38a.23.23,0,0,1,.06-.16h0a.24.24,0,0,1,.16-.07Zm-10.44,0a.24.24,0,0,1,.24.24v5.23a.24.24,0,0,1-.24.23H8.72a.23.23,0,0,1-.23-.23V7.38a.23.23,0,0,1,.23-.24Zm2.13,0h.18v0l2.4,3.23V7.38a.23.23,0,0,1,.23-.24h.84a.24.24,0,0,1,.24.24v5.23a.24.24,0,0,1-.24.23h-1l-.06-.06L11.92,9.5v3.11a.23.23,0,0,1-.23.23h-.84a.24.24,0,0,1-.24-.23V7.38a.24.24,0,0,1,.24-.24Z"/></g></g></svg>