<svg xmlns="http://www.w3.org/2000/svg" viewBox="0 0 194.17 194.17"><defs><style>.cls-1{fill:#fff;}</style></defs><g id="レイヤー_2" data-name="レイヤー 2"><g id="レイヤー_1-2" data-name="レイヤー 1"><path class="cls-1" d="M97.08,194.17a96.9,96.9,0,1,1,34.66-6.37l-.54-1.4.54,1.4A96.78,96.78,0,0,1,97.08,194.17ZM97.08,3a94.09,94.09,0,1,0,94.09,94.08A94.19,94.19,0,0,0,97.08,3Z"/><path class="cls-1" d="M159.4,89.45a4.23,4.23,0,1,0,4.23,4.22A4.22,4.22,0,0,0,159.4,89.45Zm-3.06,2.28a1.53,1.53,0,0,0,0-.3h0A1.53,1.53,0,0,1,156.34,91.73Zm.47-.3h0c.07,0,.12-.08.16-.15S156.88,91.42,156.81,91.43Z"/><path class="cls-1" d="M188.15,68.32c-1-.78-2-1.53-3.05-2.24a1.38,1.38,0,0,1-.48-.69A2.91,2.91,0,0,0,183,64c-1-.45-2.32-.06-2.9-1.33,0-.06-.2-.08-.3-.09-2.08,0-3-1.8-4.36-2.95-.81-.69-1.36-1.62-2.57-1.76a14.1,14.1,0,0,1-5.47-1.57,10.1,10.1,0,0,1-1.69-.89A3.75,3.75,0,0,0,162,55c-1.75.5-3.4,1.23-4.69-.76a.4.4,0,0,0-.26-.18c-1.9-.43-3.44-2.12-5.65-1.47-.8.23-1.56-.53-2.41-.41A1.83,1.83,0,0,1,147,51a.85.85,0,0,0-1-.49l-3.72-.1a3.54,3.54,0,0,0-2.78-1.19h-.71c-1.78-.4-3.56.14-5.33,0a9.58,9.58,0,0,0-2.27,0c-1-.1-2-.39-3.05-.48s-1.74-.74-2.71-.39l-3.1-.07L120.66,47v-.42a7,7,0,0,1,1.21-1.05c.93-.46,1.06-1.36,1.52-2.12.82-1.33,1.7-2.87,3.73-2.84a4.15,4.15,0,0,0,2.78-1c2.19-1.93,4-4.25,5.95-6.38a1.46,1.46,0,0,0,.33-.89l0-.07c2.27-1,3.38-3.1,4.64-5,.63-1,1.53-1.89,1.46-3.15a3,3,0,0,1,1.29-2.57,3.24,3.24,0,0,0,1.33-2c.19-1.34.28-2.7.38-4.06A95,95,0,0,0,104.49,2.76a18.56,18.56,0,0,1-4.49.92c-2.3.28-4.55.95-6.91.91a.87.87,0,0,0-.31.07c-2,.69-4.15.68-6.22,1.06a11.76,11.76,0,0,1-3,.5,3.38,3.38,0,0,0-2.26.54A2,2,0,0,1,79.48,7a5.32,5.32,0,0,0-2.12-.33h-8a95.56,95.56,0,0,0-16.79,7,.61.61,0,0,1-.07.14c-.55.92-1.35,1.58-2,2.42A23.91,23.91,0,0,1,46,20.73c-1.36,1.12-3.29,1.65-4,3.53l-.58.45a.5.5,0,0,0-.75,0,19,19,0,0,0-1.88,1.7c-.24.26-.43.5-.79.35-.85-.35-1.54.22-2.27.43-.38.11-.95.54-.74,1s.8.2,1.25.14c1.1-.16,2.22-1.18,3.32,0,.08.09.35.05.52,0,.92-.16,1.83-.36,2.76-.51a46.49,46.49,0,0,1,8.64-1c1,0,1.9.13,2.67-.74.33-.36,1.32-.69,1.32.16,0,1.53,1.06,1.51,2,1.67a15.54,15.54,0,0,1,3,1.14A2.52,2.52,0,0,1,62,30.83a9.93,9.93,0,0,0,1.17,2.51,2.34,2.34,0,0,0,3.34.81C69,32.76,71.5,31.4,74,30a10.18,10.18,0,0,1,9.42-.1,4.27,4.27,0,0,0,3.83-.54,36.31,36.31,0,0,0,3.53-3.14,1.46,1.46,0,0,1,.75-.41,25,25,0,0,0,5.29-1.59,4.61,4.61,0,0,1,1.84-.53c2.26.05,3.93-1.37,5.85-2.17a1.6,1.6,0,0,0,1-1.49,3.86,3.86,0,0,1,.87-2.1c.74-1.31,1.83-2.37,2.56-3.66a4.71,4.71,0,0,1,4-2.73c2.88-.09,5.77,0,8.66,0,.42,0,.68.13.7.61a3.05,3.05,0,0,1-1,2.91c-.8.62-1.83,1.12-1.76,2.44,0,.26-.42.56-.66.82a41.92,41.92,0,0,1-3.46,3.07c-2.53,2.2-4.31,5.09-6.61,7.52-.87.91-1.65,2-2.56,2.89a1.13,1.13,0,0,0-.39.85,2.2,2.2,0,0,1-1,1.83,4.5,4.5,0,0,0-1.67,4.29,1.15,1.15,0,0,1-.39,1.17,31.55,31.55,0,0,0-3.57,3.65c-.22.23-.52.46-.59.75A15,15,0,0,0,98.28,51a9.61,9.61,0,0,0,2.33,4.23,1.48,1.48,0,0,0,1,1.63c.61.31,1.2.65,1.8,1,.63.51,1.17,1.18,2.07,1.26l.06.06c.39.63.81,1.21,1.66,1.24l.07.06c.12.56.59.53,1,.59l.34.26c.05.27.25.34.47.35.64,0,1.21.13,1.45.85.08.23.34.34.59.44a13.2,13.2,0,0,1,2.33,1.35c1.55,1,3.16,2.14,5,2.21a33.12,33.12,0,0,1,7.87,1,1.36,1.36,0,0,1,.58-.7,1.36,1.36,0,0,0-.58.7c.09.53-.48.64-.65,1a1.58,1.58,0,0,0-1,.46c-1.78,1.47-3.59,2.91-5.32,4.45A21,21,0,0,0,115.81,77,13.8,13.8,0,0,1,113,80c-1.86,1.45-4.18,2.24-5.8,4.1-.4.46-1,.84-1.47,1.31-1.21,1.2-2.52,2.32-2.24,4.29a.34.34,0,0,1-.09.28,5.29,5.29,0,0,0-1.55,3.36,1.75,1.75,0,0,1-.63,1.33,3.1,3.1,0,0,0-1.4,2.16,40.7,40.7,0,0,1-1,4c-.35,1-1.34,1.56-1.54,2.6a4.83,4.83,0,0,0,.56-.27,5.77,5.77,0,0,1-.56.27l-.27.35c-.34,0-.74,0-.75.54a2.16,2.16,0,0,1-2.36,1.27,1.71,1.71,0,0,0-1.56.54c-.48.48-1,.93-1.48,1.39a4.37,4.37,0,0,0-2.11,2.09,24.67,24.67,0,0,1-3,4,1.24,1.24,0,0,0-.24.71A3.53,3.53,0,0,1,84,117.11c-1.12.81-1.93,2-3.53,2a1.07,1.07,0,0,0-.5.17,32.35,32.35,0,0,0-6.18,4.54,11.72,11.72,0,0,0-1.48,2c-1.12,1.46-2.86,2-4.2,3.13a6.08,6.08,0,0,0-2.49,4.24,2.93,2.93,0,0,1-.48,1.06c-.83,1.5-1.49,3.12-3.11,4-.08,0-.1.18-.14.28-.5,1.43-1,2.85-1.48,4.3s-.85,3.39-2.11,4.49c-1,.88-1.36,2-2.07,3a1.92,1.92,0,0,0-.29,1.64c-.38.19-.17.54-.22.82l-.33.43a13.2,13.2,0,0,1-2,1.43c-.34.14-.3.45-.28.74l-.2.44c-1,.73-1.75,1.78-2.74,2.38a70.76,70.76,0,0,1-6.49,3.62c-1.83.85-3.61,1.79-5.42,2.69-.67.33-.78.74-.31,1.37.64.85,1.51,1,2.77.54a7.22,7.22,0,0,1,1.57-.72,12.23,12.23,0,0,0,3.4-1.31c2.25-1.06,4.28-2.52,6.55-3.52a1.71,1.71,0,0,1,1.72.32c.5.33.26.83.13,1.28-.29,1-1,1.81-1.18,2.78A17.32,17.32,0,0,1,51.18,170c-1.14,2.12-1.1,4.53-1.87,6.73a15.12,15.12,0,0,0-.45,2.34c-.1.61.27.93.75,1.17a.79.79,0,0,0,1.08-.16,11.2,11.2,0,0,0,1.19-1.66c1.39-2.7,2-5.69,3.25-8.44.39-.88.81-1.75,1.19-2.63a11.52,11.52,0,0,1,3.32-4.72,1.52,1.52,0,0,1,1.58-.35c.65.21.55.77.51,1.27a23.18,23.18,0,0,0,1.36,9.76,1.36,1.36,0,0,0,1.11,1c.64.09.8-.45,1-.91a6.43,6.43,0,0,0,.39-3.07c0-.55-.12-1.21.65-1.44a8.81,8.81,0,0,0,3.39-1.76A5.64,5.64,0,0,0,71.75,164c.25-1.25.66-2.44,1-3.66.79-3.2.62-6.26-1.4-9.06-.19-.26-.6-.54-.37-1.11a32,32,0,0,1,7-10.67,9,9,0,0,0,2.27-4.31A4.84,4.84,0,0,1,83,131.9c2.77-1.44,3.13-1.35,4.75,1.74A4.39,4.39,0,0,0,89,135.4l.07-.05h0l-.07.05a1.61,1.61,0,0,0,.36.77,61.46,61.46,0,0,1,4.25,6.88,4.39,4.39,0,0,0,2,2,9.68,9.68,0,0,1,3,2.17c.82.94,1.53.73,2.44.71,1.93,0,3.86,0,5.79,0-.89-.46,4.88-.7,7.28-.26a.82.82,0,0,0,1,.48c.24.29.44.09.64,0,.85-.63,2.19.14,2.87-1a4.27,4.27,0,0,0,2.61-.42,7.75,7.75,0,0,1,5.37.1c.56.22,1.16.61,1.75.39a3,3,0,0,1,2.19.21,9.25,9.25,0,0,0,2.2.51,2.71,2.71,0,0,1,2.68,1.8,4.58,4.58,0,0,0,.83,1.12c.11.14.27.25.46.13s-.16,2.18.06,3c.45,1.78-.13,3.5.06,5.24a1.4,1.4,0,0,1-.38,1.15,2.57,2.57,0,0,0-.19,3.5.93.93,0,0,1-.19,1.34,3.36,3.36,0,0,0-.93,1.88,15.47,15.47,0,0,1-1.6,4.07,41.17,41.17,0,0,0-1.85,3.7c-.42,1-.19,2.1-.73,3a3.12,3.12,0,0,0-.28,3c.08.18.13.39,0,.51-.92.72-1.06,1.91-1.76,2.78-1.79,2.21-4.5,3.27-6.4,5.34a6.87,6.87,0,0,1-1.32,1.11,92.63,92.63,0,0,0,27.09-11.73,11,11,0,0,0,1.42-2.17,3.26,3.26,0,0,1,2-1.78c.83-.21,1-.73,1-1.41a5.8,5.8,0,0,1,.12-2,6,6,0,0,0,.19-3.61,2.43,2.43,0,0,1,.32-2.21,6.31,6.31,0,0,0,1.08-4.8,5.65,5.65,0,0,0-.8-2.83,6.06,6.06,0,0,1-1.37-4.14c0-1.73.26-3.67-1.76-4.72-.33-.17-.37-.59-.51-.92-.58-1.37-1-2.8-1.49-4.18a9.84,9.84,0,0,1-.56-3.31,3,3,0,0,0-.35-1.56,1.26,1.26,0,0,1,.09-1.61,19,19,0,0,0,2-2.45,20.37,20.37,0,0,1,7.23-5.29c1.74-.85,3.22-1.8,3.61-3.94a3.85,3.85,0,0,1,3.64-2.76,1.61,1.61,0,0,0,1.17-.45,19.33,19.33,0,0,0,2.56-3.2,16,16,0,0,1,3.18-4.19,12,12,0,0,0,2.9-4.05c.21-.37.34-.8.57-1.16,1.94-2.93,2.75-6.27,3.61-9.6l0-.35c0-.16,0-.33,0-.5a1.94,1.94,0,0,0-.29-.32,1.94,1.94,0,0,1,.29.32,1.41,1.41,0,0,0-.07-1.24,4.12,4.12,0,0,1,0-4.23c.21,0,.31-.12.27-.33s.11-.17.16-.25a1.3,1.3,0,0,1,1.29.3,15,15,0,0,0,3.59,2.1,3.87,3.87,0,0,1,1.81,1.42,3.73,3.73,0,0,0,3.39,1.84c.1.22.19.44.28.66,0,0-.12.13-.11.17.2.63,3.33,2,4,1.69.05-1.22.07-2.45.07-3.69A95.29,95.29,0,0,0,188.15,68.32ZM53.81,13.63c.11-.16.35-.18.56-.19h0C54.16,13.45,53.92,13.47,53.81,13.63Zm33.3-2.77a2.73,2.73,0,0,1-1.1-.29,2.73,2.73,0,0,0,1.1.29c.57,0,.86-.13.79-.51C88,10.73,87.68,10.88,87.11,10.86Zm17.26,26.83a4.2,4.2,0,0,1-.08-.47,4.2,4.2,0,0,0,.08.47ZM53.72,154.93a.75.75,0,0,1,.39-.23A.75.75,0,0,0,53.72,154.93Zm2.73-2.32a1.22,1.22,0,0,1-.78.52,1.22,1.22,0,0,0,.78-.52l.1-.17Zm3.79-1a2,2,0,0,0-.09-.2,2,2,0,0,1,.09.2Zm1-3.23A.59.59,0,0,0,61,148a.59.59,0,0,1,.23.38,1.91,1.91,0,0,1,0,.63A1.91,1.91,0,0,0,61.24,148.37Zm4.9-7.68a2.21,2.21,0,0,0,.36-.23,2.21,2.21,0,0,1-.36.23,3.76,3.76,0,0,0-.47.3A3.76,3.76,0,0,1,66.14,140.69Zm1.51,25.1c-.29.35-.64.8-1.16.6a1.42,1.42,0,0,1-.89-1.56c0-.25,0-.51,0-.85a1.58,1.58,0,0,1,.61-1.82c.22-.13.54-.29.61.07.13.73.68,1.14,1.06,1.69A1.43,1.43,0,0,1,67.65,165.79Zm1.6-32.33a6.94,6.94,0,0,1,.78-.75A6.94,6.94,0,0,0,69.25,133.46Zm2.63-2.05c.27-.24.38-.71.63-1C72.26,130.7,72.15,131.17,71.88,131.41Zm.63-1ZM83,128.67a1.39,1.39,0,0,1-.6.69,1.39,1.39,0,0,0,.6-.69,1.75,1.75,0,0,1,.17-.44A1.75,1.75,0,0,0,83,128.67Zm2.41-2.41c.18-.21.35-.56.55-.75C85.72,125.7,85.55,126.05,85.37,126.26Zm78.14-44.81h0l0,0,0,0Zm-3.45,2.61h0a.28.28,0,0,1,0-.2A.28.28,0,0,0,160.06,84.06Zm0,0h0a1.34,1.34,0,0,1-.09.24A1.34,1.34,0,0,0,160.06,84.06Zm-4.76,1.09a2.13,2.13,0,0,0,.22.21,2.13,2.13,0,0,1-.22-.21Zm-.18-2.91h0c.19-.2-.14-.35-.16-.54C155,81.89,155.31,82,155.12,82.24Zm-3.15,3c.13-.06.33-.08.39-.21-.06.13-.26.15-.39.21a.26.26,0,0,1-.25,0A.26.26,0,0,0,152,85.25ZM150.86,56l.16-.09-.16.09Zm-8.27,43.09,0,.05,0,0,0,0ZM133,102.26h0l-.09-.05Zm-.13-27.17h0s-.12,0-.15.1S132.8,75.12,132.85,75.09Zm-9,3.56c0-.12.1-.24.13-.35,0,.11-.09.23-.13.35Zm-.42,18.77a.42.42,0,0,1-.39.48A.42.42,0,0,0,123.46,97.42Zm-5.36-1.93a.27.27,0,0,1-.22-.11A.27.27,0,0,0,118.1,95.49Zm-.28-.37h0l0,0Zm-1.53.22h0v0Zm.3,5.68a4.24,4.24,0,0,1-.52.16h0A4.24,4.24,0,0,0,116.59,101Zm-4.13-19.91h0a1.21,1.21,0,0,1-.16-.16Zm-6.79,8.16a1.43,1.43,0,0,1,.22.47,1.43,1.43,0,0,0-.22-.47ZM142.2,155a1.14,1.14,0,0,1-.8-.78,1.14,1.14,0,0,0,.8.78.21.21,0,0,0,.11-.05A.21.21,0,0,1,142.2,155Zm8.59-33.76c0,.37-.09.75-.11,1.12a2,2,0,0,1-.43,1,.65.65,0,0,0-.1.15,18.41,18.41,0,0,1-4,8.57c-6.85,8.72-34,13-35.75,13.06a22.22,22.22,0,0,0-3.91.87l-1.25.34a3.12,3.12,0,0,1-.7.09,2.56,2.56,0,0,1-2-1.24,3.8,3.8,0,0,0-1.44-1.23c-.86-.4-1.28-1-1.25-1.61.06-1.18,1.51-1.69,2.79-2.14l.15-.05A60.71,60.71,0,0,1,109,139a2.94,2.94,0,0,1-.14-.53.6.6,0,0,0-.19-.16,2,2,0,0,1-1-1.65L107.5,134l1.14.08s2.53.18,5,.47a5.9,5.9,0,0,0,2.9-.46l-.1-.05c-2.5-1.52-3-6.26-3.28-9.71a19.11,19.11,0,0,0-.26-2.07,2,2,0,0,0-1.27-1.35,1.37,1.37,0,0,0-1.24.1,17.52,17.52,0,0,0-1.77,2.3c-2.23,3.15-5,7.07-7.61,6.38-7.29-1.93-7.49-10.28-6.46-14.91l0-.13a4.06,4.06,0,0,1,1.86-2.9c1.63-1,5.23-2,17.52,1.19.15,0,16,4.64,18.17,7.07,1.88,2.13,3.09,6.75-1.28,10.79-2.67,2.46-5.39,5-9,5a7.53,7.53,0,0,1-1.54-.16,8,8,0,0,1-1.81,2.57l.07.15c4.62-.66,11.19-3,18.2-6.54s8.77-12.71,8.52-15.45a1.64,1.64,0,0,1,1.26-1.91c1.33-.29,3.34,1.12,4.19,3.65A7.57,7.57,0,0,1,150.79,121.24Zm.72-8A2.53,2.53,0,1,1,154,110.7,2.53,2.53,0,0,1,151.51,113.23Zm4.83-4.87a3.3,3.3,0,1,1,3.3-3.3A3.3,3.3,0,0,1,156.34,108.36Zm3.06-9.46a5.23,5.23,0,1,1,5.23-5.23A5.23,5.23,0,0,1,159.4,98.9Zm19.74-6a21,21,0,0,0-1.58-3.4,21,21,0,0,1,1.58,3.4l.21.22ZM183,66.54a.8.8,0,0,1-.66-.2.8.8,0,0,0,.66.2,1.41,1.41,0,0,0,.61-.11A1.41,1.41,0,0,1,183,66.54Z"/><path class="cls-1" d="M147.28,116.55c.2,4.37-2.31,13.33-9.65,17-7.57,3.82-14.71,6.31-19.59,6.84l-.71.08-1.27-2.76.52-.49a14.74,14.74,0,0,0,1.41-1.57l-.4.15a8.58,8.58,0,0,1-4.24.72c-1.37-.17-2.76-.3-3.7-.38l0,.38s.09.09.15.13a2.13,2.13,0,0,1,1,1.42,2.5,2.5,0,0,0,.5,1l1.25,1.39-1.84.28c-2.38.34-6.47,1-7.3,1.28l-.16.06-.85.31a5.92,5.92,0,0,1,1.65,1.53c.42.53.42.53.68.46l1.21-.33a21.92,21.92,0,0,1,4.37-.93c1.67-.07,28-4.35,34.26-12.3a16.33,16.33,0,0,0,3.58-7.7,2.16,2.16,0,0,1,.42-.93,1,1,0,0,0,.09-.13c0-.37.07-.73.11-1.1a6.28,6.28,0,0,0,0-2.29A4.23,4.23,0,0,0,147.28,116.55Z"/><path class="cls-1" d="M117.43,132.33c5.29,3.2,8.25.48,12-3,3.35-3.09,2.53-6.48,1.17-8s-14.07-5.67-17.17-6.46c-10.65-2.75-14.57-2.29-16-1.42a2.1,2.1,0,0,0-1,1.62l0,.13c-.87,3.93-.8,11,5,12.55,1.27.32,4.21-3.83,5.46-5.6a14,14,0,0,1,2.23-2.77,3.08,3.08,0,0,1,1.84-.59,3.83,3.83,0,0,1,1.27.23,4,4,0,0,1,2.52,2.75,18.89,18.89,0,0,1,.31,2.36C115.34,126.65,115.79,131.33,117.43,132.33Z"/><path class="cls-1" d="M147.25,116.09l-1,.16,1-.09A.11.11,0,0,0,147.25,116.09Z"/><path class="cls-1" d="M151.51,109.17a1.53,1.53,0,0,0,0,3.06,1.59,1.59,0,0,0,.83-.25.73.73,0,0,0-.28-.19h0a.73.73,0,0,1,.28.19,1.53,1.53,0,0,0-.83-2.81Z"/><circle class="cls-1" cx="156.34" cy="105.06" r="2.3"/><path class="cls-1" d="M14.05,75.05H10c-1.7,0-2.4-.8-2.4-2.4V61.59c0-1.76.68-2.38,2.4-2.38h4c3.5,0,6.54,2.64,6.54,6V69C20.55,72.17,17.49,75.05,14.05,75.05Zm4.76-9.16c0-3-2.38-5-5.38-5h-2c-1.6,0-2.06.56-2.06,2.26v7.9c0,1.62.5,2.28,2,2.28h1.84c2.94,0,5.56-2,5.56-5Z"/><path class="cls-1" d="M24.19,75.43c-.46,0-.84-1.16-.84-2.6V68c0-1.42-.14-2.58-.32-2.58s-.32-.58-.32-1.3a1.23,1.23,0,0,1,1.14-1.3c.64,0,1.16,1.16,1.16,2.6v7.38C25,74.27,24.63,75.43,24.19,75.43Zm0-14.42c-.8,0-1.44-.42-1.44-.92s.64-.9,1.44-.9,1.42.42,1.42.9S25,61,24.21,61Z"/><path class="cls-1" d="M37.83,64.65l-3.34,8c-.54,1.32-1.36,2.4-1.84,2.4s-1.3-1.08-1.84-2.4l-3.24-8a5.21,5.21,0,0,1-.44-1.76c0-.4.12-.64.36-.64.5,0,1.34,1.08,1.86,2.4l2.34,5.94c.26.66.62,1,1,1s.72-.32,1-1L36,64.65c.54-1.32,1.38-2.4,1.88-2.4.24,0,.36.24.36.64A5.21,5.21,0,0,1,37.83,64.65Z"/><path class="cls-1" d="M41.23,75.43c-.46,0-.84-1.16-.84-2.6V68c0-1.42-.14-2.58-.32-2.58s-.32-.58-.32-1.3a1.23,1.23,0,0,1,1.14-1.3c.64,0,1.16,1.16,1.16,2.6v7.38C42.05,74.27,41.67,75.43,41.23,75.43Zm0-14.42c-.8,0-1.44-.42-1.44-.92s.64-.9,1.44-.9,1.42.42,1.42.9S42,61,41.25,61Z"/><path class="cls-1" d="M55.39,75.05c-.46,0-.84-1.16-.84-2.6V66.53a2.59,2.59,0,0,0-2.6-2.6H49.13a2.59,2.59,0,0,0-2.6,2.6v5.92c0,1.44-.38,2.6-.84,2.6s-.84-1.16-.84-2.6v-7.6a2.59,2.59,0,0,1,2.6-2.6h6.18a2.59,2.59,0,0,1,2.6,2.6v7.6C56.23,73.89,55.85,75.05,55.39,75.05Z"/><path class="cls-1" d="M70,62.65a9.49,9.49,0,0,0-.18,2.48v9.3a2.59,2.59,0,0,1-2.6,2.6h-6.5c-1.44,0-2.6-.74-2.6-1.66s.36-1.66.82-1.66a.85.85,0,0,1,.8.88c0,.48,1.16.88,2.6.88h3.2a2.17,2.17,0,1,0,0-4.26H60.69a2.59,2.59,0,0,1-2.6-2.6V64.85a2.59,2.59,0,0,1,2.6-2.6h4.7a9.47,9.47,0,0,0,2.62-.2,3.52,3.52,0,0,1,1.16-.26.75.75,0,0,1,.84.68A.55.55,0,0,1,70,62.65Zm-1.86,3.8a2.59,2.59,0,0,0-2.6-2.6H62.37a2.59,2.59,0,0,0-2.6,2.6v.64a2.59,2.59,0,0,0,2.6,2.6h3.16a2.59,2.59,0,0,0,2.6-2.6Z"/><path class="cls-1" d="M17.42,96.84h-8c-1.44,0-2.6-.38-2.6-.82s1.16-.84,2.6-.84h6.3a2.59,2.59,0,0,0,2.6-2.6v-.45a2.59,2.59,0,0,0-2.6-2.6H9.42a2.59,2.59,0,0,1-2.6-2.6v-3.4a2.59,2.59,0,0,1,2.6-2.6h7.92c1.44,0,2.6.38,2.6.82s-1.16.84-2.6.84H11.08a2.59,2.59,0,0,0-2.6,2.6v.1a2.59,2.59,0,0,0,2.6,2.6h6.34a2.59,2.59,0,0,1,2.6,2.6v3.75A2.59,2.59,0,0,1,17.42,96.84Z"/><path class="cls-1" d="M32.16,97.18c-.44,0-.82-1.16-.82-2.6V88.31a2.59,2.59,0,0,0-2.6-2.6H26a2.59,2.59,0,0,0-2.6,2.6v6.27c0,1.44-.36,2.6-.82,2.6s-.82-1.16-.82-2.6v-11c0-1.44.36-2.6.82-2.6s.82.68.82,1.54S24.6,84,26,84H30.4a2.59,2.59,0,0,1,2.6,2.6v8C33,96,32.62,97.18,32.16,97.18Z"/><path class="cls-1" d="M44.36,96.82H37.68a2.6,2.6,0,0,1-2.6-2.61v-7.6a2.59,2.59,0,0,1,2.6-2.6h6.68a2.59,2.59,0,0,1,2.6,2.6v7.6A2.6,2.6,0,0,1,44.36,96.82Zm.92-8.53a2.59,2.59,0,0,0-2.6-2.6H39.36a2.59,2.59,0,0,0-2.6,2.6v4.25a2.59,2.59,0,0,0,2.6,2.6h3.32a2.59,2.59,0,0,0,2.6-2.6Z"/><path class="cls-1" d="M57,96.82H55.84a7.35,7.35,0,0,1-3.16-.66c-.82-.34-1.38-.88-1.38-1.26s.66-.5,1-.5c1.14,0,2.06.7,3.38.66l.72,0c1.86-.06,2.7-1.53,2.7-3.49V88.21a2.52,2.52,0,0,0-2.5-2.54H53c-1.42,0-2.24,1.16-2.24,2.72v7.87c0,1.48-.4,2.68-.86,2.68S49,97.74,49,96.26V86.71a2.44,2.44,0,0,1,2.3-2.7h6.88a2.62,2.62,0,0,1,2.54,2.7v5.54C60.76,94.82,59.28,96.82,57,96.82Z"/><path class="cls-1" d="M19.08,116.57a7.3,7.3,0,0,1-3.16-1.64l-5.12-4.16a1.82,1.82,0,0,0-1.06-.48c-.56,0-.94.52-.94,1.44V114c0,1.44-.38,2.6-.84,2.6s-.84-1.16-.84-2.6v-10.7c0-1.44.38-2.6.84-2.6s.84,1.16.84,2.6v2c0,.92.38,1.42.94,1.42a1.77,1.77,0,0,0,1.08-.46l4.84-3.92a7.3,7.3,0,0,1,3.16-1.64c.2,0,.3.08.3.21,0,.29-.42.83-1.16,1.43l-5.56,4.54a2.12,2.12,0,0,0-.82,1.64,2.15,2.15,0,0,0,.82,1.64l5.84,4.8c.74.6,1.16,1.14,1.16,1.42S19.3,116.57,19.08,116.57Z"/><path class="cls-1" d="M30.52,116.59H23a2.59,2.59,0,0,1-2.6-2.6v-2.12a2.59,2.59,0,0,1,2.6-2.6h5.82c1.44,0,2.6-.88,2.6-1.94s-1.16-2-2.6-2H23c-1.44,0-2.6-.36-2.6-.8s1.16-.82,2.6-.82h7.5a2.59,2.59,0,0,1,2.6,2.6V114A2.59,2.59,0,0,1,30.52,116.59Zm-1.68-5.92H24.72a2.2,2.2,0,1,0,0,4.32h4.12a2.2,2.2,0,1,0,0-4.32Z"/><path class="cls-1" d="M44.74,116.59H37.8a2.59,2.59,0,0,1-2.6-2.6v-7.64a2.59,2.59,0,0,1,2.6-2.6h6.94a2.59,2.59,0,0,1,2.6,2.6v1.8a2.59,2.59,0,0,1-2.6,2.6H39.5a2.16,2.16,0,1,0,0,4.24h5.24c1.44,0,2.6.36,2.6.8S46.18,116.59,44.74,116.59Zm-1.68-11.22H39.5a2.07,2.07,0,1,0,0,4h3.56a2.07,2.07,0,1,0,0-4Z"/><path class="cls-1" d="M55.16,105.43H53.44a2.59,2.59,0,0,0-2.6,2.6v6.24c0,1.44-.38,2.6-.86,2.6s-.86-1.16-.86-2.6v-7.92a2.59,2.59,0,0,1,2.6-2.6h3.44c1.44,0,2.6.38,2.6.84S56.6,105.43,55.16,105.43Z"/><path class="cls-1" d="M67.32,116.61H61.66a2.59,2.59,0,0,1-2.6-2.6v-7.66c0-1.44.38-2.6.84-2.6s.84,1.16.84,2.6v6a2.59,2.59,0,0,0,2.6,2.6h2.32a2.59,2.59,0,0,0,2.6-2.6v-6c0-1.44.38-2.6.82-2.6s.84,1.16.84,2.6V114A2.59,2.59,0,0,1,67.32,116.61Z"/></g></g></svg>