<svg xmlns="http://www.w3.org/2000/svg" viewBox="0 0 193.8 193.8"><defs><style>.cls-1{fill:#010f3e;}</style></defs><g id="レイヤー_2" data-name="レイヤー 2"><g id="レイヤー_1-2" data-name="レイヤー 1"><g id="レイヤー_2-2" data-name="レイヤー 2"><g id="レイヤー_1-2-2" data-name="レイヤー 1-2"><path class="cls-1" d="M96.79,193.8a96.9,96.9,0,1,1,34.66-6.37l-.54-1.4.54,1.4A96.57,96.57,0,0,1,96.79,193.8Zm0-191.17a94.09,94.09,0,1,0,94.09,94.09h0A94.19,94.19,0,0,0,96.79,2.63Z"/><path class="cls-1" d="M159.11,89.08a4.23,4.23,0,1,0,4.23,4.23h0a4.22,4.22,0,0,0-4.22-4.22Zm-3.06,2.28a1.5,1.5,0,0,0,0-.3h0A1.5,1.5,0,0,1,156.05,91.36Zm.47-.3h0c.07,0,.12-.08.16-.15S156.59,91.05,156.52,91.06Z"/><path class="cls-1" d="M187.86,68c-1-.78-2-1.53-3.05-2.24a1.47,1.47,0,0,1-.48-.69,2.89,2.89,0,0,0-1.62-1.39c-1-.45-2.32-.06-2.9-1.33,0-.06-.2-.08-.3-.09-2.08,0-3-1.8-4.36-3-.81-.69-1.36-1.62-2.57-1.76a14.18,14.18,0,0,1-5.47-1.57,10.1,10.1,0,0,1-1.69-.89,3.74,3.74,0,0,0-3.71-.41c-1.75.5-3.4,1.23-4.69-.76a.38.38,0,0,0-.26-.18c-1.9-.43-3.44-2.12-5.65-1.47-.8.23-1.56-.53-2.41-.41a1.82,1.82,0,0,1-2-1.18.84.84,0,0,0-1-.49L142,50a3.54,3.54,0,0,0-2.78-1.19h-.71c-1.78-.4-3.56.14-5.33,0a9.58,9.58,0,0,0-2.27,0c-1-.1-2-.39-3.05-.48s-1.74-.74-2.71-.39l-3.1-.07-1.67-1.28v-.42a7.07,7.07,0,0,1,1.21-1.05c.93-.46,1.06-1.36,1.52-2.12.82-1.33,1.7-2.87,3.73-2.84a4.15,4.15,0,0,0,2.78-1,81.39,81.39,0,0,0,5.95-6.38,1.38,1.38,0,0,0,.33-.89v-.07c2.27-1,3.38-3.1,4.64-5,.63-1,1.53-1.89,1.46-3.15a3,3,0,0,1,1.29-2.57,3.21,3.21,0,0,0,1.33-2c.19-1.34.28-2.7.38-4.06A95,95,0,0,0,104.2,2.39a18.57,18.57,0,0,1-4.49.92c-2.3.28-4.55.95-6.91.91a.87.87,0,0,0-.31.07c-2,.69-4.15.68-6.22,1.06a11.7,11.7,0,0,1-3,.5A3.41,3.41,0,0,0,81,6.39a2,2,0,0,1-1.82.24,5.24,5.24,0,0,0-2.12-.33h-8a95.56,95.56,0,0,0-16.79,7,.37.37,0,0,1-.07.14,25.68,25.68,0,0,1-2,2.42,23.68,23.68,0,0,1-4.5,4.5c-1.36,1.12-3.29,1.65-4,3.53l-.58.45a.48.48,0,0,0-.7,0l0,0A18.85,18.85,0,0,0,38.5,26c-.24.26-.43.5-.79.35-.85-.35-1.54.22-2.27.43-.38.11-.95.54-.74,1s.8.2,1.25.14c1.1-.16,2.22-1.18,3.32,0,.08.09.35.05.52,0,.92-.16,1.83-.36,2.76-.51a46.61,46.61,0,0,1,8.64-1c1,0,1.9.13,2.67-.74.33-.36,1.32-.69,1.32.16,0,1.53,1.06,1.51,2,1.67a15.72,15.72,0,0,1,3,1.14,2.5,2.5,0,0,1,1.53,1.78A10.08,10.08,0,0,0,62.88,33a2.36,2.36,0,0,0,3.19.91l.15-.1c2.49-1.39,5-2.75,7.49-4.15a10.18,10.18,0,0,1,9.42-.1A4.28,4.28,0,0,0,87,29a35.17,35.17,0,0,0,3.53-3.14,1.51,1.51,0,0,1,.75-.41,25,25,0,0,0,5.29-1.59,4.76,4.76,0,0,1,1.84-.53c2.26.05,3.93-1.37,5.85-2.17a1.59,1.59,0,0,0,1-1.49,4,4,0,0,1,.87-2.1c.74-1.31,1.83-2.37,2.56-3.66a4.71,4.71,0,0,1,4-2.73c2.88-.09,5.77,0,8.66,0,.42,0,.68.13.7.61a3,3,0,0,1-1,2.91c-.8.62-1.83,1.12-1.76,2.44,0,.26-.42.56-.66.82A40.35,40.35,0,0,1,115.13,21c-2.53,2.2-4.31,5.09-6.61,7.52-.87.91-1.65,2-2.56,2.89a1.14,1.14,0,0,0-.39.85,2.18,2.18,0,0,1-1,1.83,4.51,4.51,0,0,0-1.67,4.29,1.14,1.14,0,0,1-.39,1.17,32.39,32.39,0,0,0-3.57,3.65c-.22.23-.52.46-.59.75A15.14,15.14,0,0,0,98,50.63a9.69,9.69,0,0,0,2.33,4.23,1.49,1.49,0,0,0,1,1.63c.61.31,1.2.65,1.8,1,.63.51,1.17,1.18,2.07,1.26l.06.06c.39.63.81,1.21,1.66,1.24l.07.06c.12.56.59.53,1,.59l.34.26c.05.27.25.34.47.35.64,0,1.21.13,1.45.85.08.23.34.34.59.44A13.2,13.2,0,0,1,113.16,64c1.55,1,3.16,2.14,5,2.21a33.09,33.09,0,0,1,7.87,1,1.43,1.43,0,0,1,.58-.7,1.43,1.43,0,0,0-.58.7c.09.53-.48.64-.65,1a1.6,1.6,0,0,0-1,.46c-1.78,1.47-3.59,2.91-5.32,4.45a21.68,21.68,0,0,0-3.54,3.56,13.8,13.8,0,0,1-2.81,3c-1.86,1.45-4.18,2.24-5.8,4.1-.4.46-1,.84-1.47,1.31-1.21,1.2-2.52,2.32-2.24,4.29a.32.32,0,0,1-.09.28A5.34,5.34,0,0,0,101.56,93a1.73,1.73,0,0,1-.63,1.33,3.11,3.11,0,0,0-1.4,2.16,39.63,39.63,0,0,1-1,4c-.35,1-1.34,1.56-1.54,2.6a4.83,4.83,0,0,0,.56-.27,5.77,5.77,0,0,1-.56.27l-.27.35c-.34,0-.74,0-.75.54a2.16,2.16,0,0,1-2.36,1.27,1.71,1.71,0,0,0-1.56.54c-.48.48-1,.93-1.48,1.39a4.41,4.41,0,0,0-2.11,2.09,24.29,24.29,0,0,1-3,4,1.29,1.29,0,0,0-.24.71,3.51,3.51,0,0,1-1.51,2.79c-1.12.81-1.93,2-3.53,2a1,1,0,0,0-.5.17,32.67,32.67,0,0,0-6.18,4.54,11.63,11.63,0,0,0-1.48,2c-1.12,1.46-2.86,2-4.2,3.13a6.1,6.1,0,0,0-2.49,4.24,2.83,2.83,0,0,1-.48,1.06c-.83,1.5-1.49,3.12-3.11,4-.08,0-.1.18-.14.28-.5,1.43-1,2.85-1.48,4.3S59.27,145.85,58,147a14.49,14.49,0,0,0-2.07,3,2,2,0,0,0-.29,1.64c-.38.19-.17.54-.22.82l-.33.43a12.77,12.77,0,0,1-2,1.43c-.34.14-.3.45-.28.74l-.2.44c-1,.73-1.75,1.78-2.74,2.38a69.73,69.73,0,0,1-6.49,3.62c-1.83.85-3.61,1.79-5.42,2.69-.67.33-.78.74-.31,1.37.64.85,1.51,1,2.77.54a7.68,7.68,0,0,1,1.57-.72A12.11,12.11,0,0,0,45.4,164c2.25-1.06,4.28-2.52,6.55-3.52a1.71,1.71,0,0,1,1.72.32c.5.33.26.83.13,1.28-.29,1-1,1.81-1.18,2.78a17.14,17.14,0,0,1-1.73,4.75c-1.14,2.12-1.1,4.53-1.87,6.73a15.59,15.59,0,0,0-.45,2.34c-.1.61.27.93.75,1.17a.8.8,0,0,0,1.08-.16,10.71,10.71,0,0,0,1.19-1.66c1.39-2.7,2-5.69,3.25-8.44.39-.88.81-1.75,1.19-2.63a11.55,11.55,0,0,1,3.32-4.72,1.52,1.52,0,0,1,1.58-.35c.65.21.55.77.51,1.27a23.34,23.34,0,0,0,1.36,9.76,1.38,1.38,0,0,0,1.11,1c.64.09.8-.45,1-.91A6.31,6.31,0,0,0,65.3,170c0-.55-.12-1.21.65-1.44a8.67,8.67,0,0,0,3.39-1.76,5.58,5.58,0,0,0,2.12-3.13c.25-1.25.66-2.44,1-3.66.79-3.2.62-6.26-1.4-9.06-.19-.26-.6-.54-.37-1.11a32.2,32.2,0,0,1,7-10.67A8.92,8.92,0,0,0,80,134.82a4.84,4.84,0,0,1,2.75-3.29c2.77-1.44,3.13-1.35,4.75,1.74A4.51,4.51,0,0,0,88.71,135l.07-.05h0l-.07.05a1.71,1.71,0,0,0,.36.77,60.9,60.9,0,0,1,4.25,6.88,4.4,4.4,0,0,0,2,2,9.61,9.61,0,0,1,3,2.17c.82.94,1.53.73,2.44.71h5.79c-.89-.46,4.88-.7,7.28-.26a.82.82,0,0,0,1,.48c.24.29.44.09.64,0,.85-.63,2.19.14,2.87-1a4.27,4.27,0,0,0,2.61-.42,7.75,7.75,0,0,1,5.37.1c.56.22,1.16.61,1.75.39a3,3,0,0,1,2.19.21,9.25,9.25,0,0,0,2.2.51,2.7,2.7,0,0,1,2.68,1.8,4.79,4.79,0,0,0,.83,1.12c.11.14.27.25.46.13s-.16,2.18.06,3c.45,1.78-.13,3.5.06,5.24a1.37,1.37,0,0,1-.38,1.15,2.58,2.58,0,0,0-.19,3.5.93.93,0,0,1-.14,1.31l-.05,0a3.36,3.36,0,0,0-.93,1.88,14.88,14.88,0,0,1-1.6,4.07c-.67,1.2-1.29,2.44-1.85,3.7-.42,1-.19,2.1-.73,3a3.15,3.15,0,0,0-.28,3c.08.18.13.39,0,.51-.92.72-1.06,1.91-1.76,2.78-1.79,2.21-4.5,3.27-6.4,5.34a6.7,6.7,0,0,1-1.32,1.11A92.73,92.73,0,0,0,148,178.51a10.4,10.4,0,0,0,1.42-2.17,3.27,3.27,0,0,1,2-1.78,1.23,1.23,0,0,0,1-1.41,6.1,6.1,0,0,1,.12-2,5.94,5.94,0,0,0,.19-3.61,2.45,2.45,0,0,1,.32-2.21,6.27,6.27,0,0,0,1.08-4.8,5.55,5.55,0,0,0-.8-2.83,6.1,6.1,0,0,1-1.37-4.14c0-1.73.26-3.67-1.76-4.72-.33-.17-.37-.59-.51-.92-.58-1.37-1-2.8-1.49-4.18a10,10,0,0,1-.56-3.31,2.93,2.93,0,0,0-.35-1.56,1.27,1.27,0,0,1,.09-1.61,18,18,0,0,0,2-2.45,20.33,20.33,0,0,1,7.23-5.29c1.74-.85,3.22-1.8,3.61-3.94a3.85,3.85,0,0,1,3.64-2.76,1.62,1.62,0,0,0,1.17-.45,18.72,18.72,0,0,0,2.56-3.2,16.06,16.06,0,0,1,3.18-4.19,11.91,11.91,0,0,0,2.9-4c.21-.37.34-.8.57-1.16,1.94-2.93,2.75-6.27,3.61-9.6v-.85a1.75,1.75,0,0,0-.29-.32,1.75,1.75,0,0,1,.29.32,1.39,1.39,0,0,0-.07-1.24,4.12,4.12,0,0,1,0-4.23.25.25,0,0,0,.27-.33c0-.21.11-.17.16-.25a1.3,1.3,0,0,1,1.29.3,15.42,15.42,0,0,0,3.59,2.1,3.79,3.79,0,0,1,1.81,1.42,3.73,3.73,0,0,0,3.39,1.84c.1.22.19.44.28.66,0,0-.12.13-.11.17.2.63,3.33,2,4,1.69.05-1.22.07-2.45.07-3.69A94.89,94.89,0,0,0,187.86,68ZM53.52,13.26c.11-.16.35-.18.56-.19h0C53.87,13.08,53.63,13.1,53.52,13.26Zm33.3-2.77a2.85,2.85,0,0,1-1.1-.29,2.85,2.85,0,0,0,1.1.29c.57,0,.86-.13.79-.51C87.71,10.36,87.39,10.51,86.82,10.49Zm17.26,26.83c0-.16-.06-.31-.08-.47C104,37,104.05,37.16,104.08,37.32ZM53.43,154.56a.72.72,0,0,1,.39-.23A.72.72,0,0,0,53.43,154.56Zm2.73-2.32a1.21,1.21,0,0,1-.78.52,1.21,1.21,0,0,0,.78-.52l.1-.17Zm3.79-1a.72.72,0,0,0-.09-.2A.72.72,0,0,1,60,151.24ZM61,148a.56.56,0,0,0-.24-.38.55.55,0,0,1,.23.38,1.67,1.67,0,0,1,0,.63,1.72,1.72,0,0,0,0-.64Zm4.9-7.68a1.69,1.69,0,0,0,.36-.23,1.69,1.69,0,0,1-.36.23,4.66,4.66,0,0,0-.47.3,4.76,4.76,0,0,1,.47-.31Zm1.51,25.1c-.29.35-.64.8-1.16.6a1.42,1.42,0,0,1-.89-1.56v-.85a1.58,1.58,0,0,1,.61-1.82c.22-.13.54-.29.61.07.13.73.68,1.14,1.06,1.69a1.43,1.43,0,0,1-.23,1.86ZM69,133.1a6.91,6.91,0,0,1,.78-.75,6.82,6.82,0,0,0-.78.74Zm2.63-2c.27-.24.38-.71.63-1-.25.28-.36.75-.63,1Zm11.12-2.75a1.34,1.34,0,0,1-.6.69,1.34,1.34,0,0,0,.6-.69,2.35,2.35,0,0,1,.17-.44A2.35,2.35,0,0,0,82.71,128.3Zm2.41-2.41c.18-.21.35-.56.55-.75a5.11,5.11,0,0,0-.59.75Zm74.69-42.2h0a.34.34,0,0,1,0-.2.34.34,0,0,0,0,.2Zm0,0h0a1.17,1.17,0,0,1-.09.24,1,1,0,0,0,.05-.24Zm-4.76,1.09a2.13,2.13,0,0,0,.22.21A2.13,2.13,0,0,1,155.05,84.78Zm-.18-2.91h0c.19-.2-.14-.35-.16-.54,0,.19.31.3.12.54Zm-3.15,3c.13-.06.33-.08.39-.21-.06.13-.26.15-.39.21a.28.28,0,0,1-.25,0,.26.26,0,0,0,.24,0Zm-1.15-29.24.16-.09ZM142.3,98.72v0h0Zm-9.59,3.17h0l-.09,0Zm-.13-27.17h0a.16.16,0,0,0-.15.1c0,.1.08-.07.13-.1Zm-9,3.56c0-.12.1-.24.13-.35A1.37,1.37,0,0,1,123.58,78.28Zm-.42,18.77a.42.42,0,0,1-.35.48h0a.42.42,0,0,0,.41-.44.06.06,0,0,0,0,0Zm-5.36-1.93a.28.28,0,0,1-.22-.11.3.3,0,0,0,.23.11Zm-1.51,5.53a4.48,4.48,0,0,1-.52.16h0a4.72,4.72,0,0,0,.53-.18Zm-4.13-19.91h0s-.11-.1-.16-.16Zm-6.79,8.16a1.35,1.35,0,0,1,.22.47A1.35,1.35,0,0,0,105.37,88.9Zm36.54,65.73a1.16,1.16,0,0,1-.8-.78,1.16,1.16,0,0,0,.8.78.22.22,0,0,0,.11,0A.22.22,0,0,1,141.91,154.63Zm8.59-33.76c0,.37-.09.75-.11,1.12a1.87,1.87,0,0,1-.43,1,1.3,1.3,0,0,0-.1.15,18.32,18.32,0,0,1-4,8.57c-6.85,8.72-34,13-35.75,13.06a22.06,22.06,0,0,0-3.91.87L105,146a2.74,2.74,0,0,1-.7.09,2.58,2.58,0,0,1-2-1.24,3.72,3.72,0,0,0-1.44-1.23A1.79,1.79,0,0,1,99.56,142c.06-1.18,1.51-1.69,2.79-2.14l.15,0a59.57,59.57,0,0,1,6.21-1.17,3.18,3.18,0,0,1-.14-.53.49.49,0,0,0-.19-.16,2,2,0,0,1-1-1.65l-.17-2.66,1.14.08s2.53.18,5,.47a5.88,5.88,0,0,0,2.9-.46l-.1-.05c-2.5-1.52-3-6.26-3.28-9.71a18,18,0,0,0-.26-2.07,2,2,0,0,0-1.27-1.35,1.36,1.36,0,0,0-1.24.1,18.75,18.75,0,0,0-1.77,2.3c-2.23,3.15-5,7.07-7.61,6.38-7.29-1.93-7.49-10.28-6.46-14.91v-.13a4.07,4.07,0,0,1,1.86-2.9c1.63-1,5.23-2,17.52,1.19.15,0,16,4.64,18.17,7.07,1.88,2.13,3.09,6.75-1.28,10.79-2.67,2.46-5.39,5-9,5a7.32,7.32,0,0,1-1.54-.16,7.84,7.84,0,0,1-1.81,2.57l.07.15c4.62-.66,11.19-3,18.2-6.54S145.22,118.74,145,116a1.65,1.65,0,0,1,1.26-1.91c1.33-.29,3.34,1.12,4.19,3.65A7.34,7.34,0,0,1,150.5,120.87Zm.72-8a2.53,2.53,0,1,1,2.49-2.57v0a2.52,2.52,0,0,1-2.49,2.53Zm4.83-4.87a3.3,3.3,0,1,1,3.3-3.3,3.3,3.3,0,0,1-3.3,3.3Zm3.06-9.46a5.23,5.23,0,1,1,5.23-5.23h0a5.23,5.23,0,0,1-5.23,5.22Zm19.74-6a20.19,20.19,0,0,0-1.58-3.4,20.19,20.19,0,0,1,1.58,3.4l.21.22Zm3.86-26.37a.8.8,0,0,1-.66-.2.8.8,0,0,0,.66.2,1.41,1.41,0,0,0,.61-.11A1.41,1.41,0,0,1,182.71,66.17Z"/><path class="cls-1" d="M147,116.18c.2,4.37-2.31,13.33-9.65,17-7.57,3.82-14.71,6.31-19.59,6.84l-.71.08-1.27-2.76.52-.49a14,14,0,0,0,1.41-1.57l-.4.15a8.58,8.58,0,0,1-4.24.72c-1.37-.17-2.76-.3-3.7-.38v.38a1.34,1.34,0,0,0,.15.13,2.12,2.12,0,0,1,1,1.42,2.48,2.48,0,0,0,.5,1l1.25,1.39-1.84.28c-2.38.34-6.47,1-7.3,1.28l-.16.06-.85.31a5.74,5.74,0,0,1,1.65,1.53c.42.53.42.53.68.46l1.21-.33a21.81,21.81,0,0,1,4.37-.93c1.67-.07,28-4.35,34.26-12.3a16.32,16.32,0,0,0,3.58-7.7,2.25,2.25,0,0,1,.42-.93.38.38,0,0,0,.09-.13,10.24,10.24,0,0,1,.11-1.1,6.3,6.3,0,0,0,0-2.29A4.16,4.16,0,0,0,147,116.18Z"/><path class="cls-1" d="M117.14,132c5.29,3.2,8.25.48,12-3,3.35-3.09,2.53-6.48,1.17-8s-14.07-5.67-17.17-6.46c-10.65-2.75-14.57-2.29-16-1.42a2.12,2.12,0,0,0-1,1.62v.13c-.87,3.93-.8,11,5,12.55,1.27.32,4.21-3.83,5.46-5.6a14.56,14.56,0,0,1,2.23-2.77,3.06,3.06,0,0,1,1.84-.59,3.62,3.62,0,0,1,1.27.23,4,4,0,0,1,2.52,2.75,17.13,17.13,0,0,1,.31,2.36C115.05,126.28,115.5,131,117.14,132Z"/><path class="cls-1" d="M147,115.72l-1,.16,1-.09A.09.09,0,0,0,147,115.72Z"/><path class="cls-1" d="M151.22,108.8a1.53,1.53,0,0,0,0,3.06,1.5,1.5,0,0,0,.83-.25.7.7,0,0,0-.28-.19h0a.7.7,0,0,1,.28.19,1.53,1.53,0,0,0-.83-2.81Z"/><circle class="cls-1" cx="156.05" cy="104.69" r="2.3"/><path class="cls-1" d="M13.76,74.68h-4c-1.7,0-2.4-.8-2.4-2.4V61.22c0-1.76.68-2.38,2.4-2.38h4c3.5,0,6.54,2.64,6.54,6v3.79C20.26,71.8,17.2,74.68,13.76,74.68Zm4.76-9.16c0-3-2.38-5-5.38-5h-2c-1.6,0-2.06.56-2.06,2.26v7.9c0,1.62.5,2.28,2,2.28h1.84c2.94,0,5.56-2,5.56-5Z"/><path class="cls-1" d="M23.9,75.06c-.46,0-.84-1.16-.84-2.6V67.63c0-1.42-.14-2.58-.32-2.58s-.32-.58-.32-1.3a1.23,1.23,0,0,1,1.14-1.3c.64,0,1.16,1.16,1.16,2.6v7.38C24.71,73.9,24.34,75.06,23.9,75.06Zm0-14.42c-.8,0-1.44-.42-1.44-.92s.64-.9,1.44-.9,1.42.42,1.42.9-.61.91-1.4.91Z"/><path class="cls-1" d="M37.54,64.28l-3.34,8c-.54,1.32-1.36,2.4-1.84,2.4s-1.3-1.08-1.84-2.4l-3.24-8a5.36,5.36,0,0,1-.44-1.76c0-.4.12-.64.36-.64.5,0,1.34,1.08,1.86,2.4l2.34,5.94c.26.66.62,1,1,1s.72-.32,1-1l2.31-5.94c.54-1.32,1.38-2.4,1.88-2.4.24,0,.36.24.36.64A5.08,5.08,0,0,1,37.54,64.28Z"/><path class="cls-1" d="M40.94,75.06c-.46,0-.84-1.16-.84-2.6V67.63c0-1.42-.14-2.58-.32-2.58s-.32-.58-.32-1.3a1.23,1.23,0,0,1,1.14-1.3c.64,0,1.16,1.16,1.16,2.6v7.38C41.76,73.9,41.38,75.06,40.94,75.06Zm0-14.42c-.8,0-1.44-.42-1.44-.92s.64-.9,1.44-.9,1.42.42,1.42.9-.65.91-1.4.91Z"/><path class="cls-1" d="M55.1,74.68c-.46,0-.84-1.16-.84-2.6V66.16a2.59,2.59,0,0,0-2.58-2.6H48.84a2.59,2.59,0,0,0-2.6,2.58v5.94c0,1.44-.38,2.6-.84,2.6s-.84-1.16-.84-2.6v-7.6a2.6,2.6,0,0,1,2.58-2.6h6.2a2.58,2.58,0,0,1,2.6,2.58v7.62C55.94,73.52,55.56,74.68,55.1,74.68Z"/><path class="cls-1" d="M69.71,62.28a9.4,9.4,0,0,0-.18,2.48v9.3A2.59,2.59,0,0,1,67,76.66H60.43c-1.44,0-2.6-.74-2.6-1.66s.36-1.66.82-1.66a.85.85,0,0,1,.8.88c0,.48,1.16.88,2.6.88h3.2a2.17,2.17,0,1,0,.83-4.26,2.31,2.31,0,0,0-.83,0H60.4a2.59,2.59,0,0,1-2.6-2.58V64.48a2.6,2.6,0,0,1,2.58-2.6H65.1a9.22,9.22,0,0,0,2.62-.2,3.56,3.56,0,0,1,1.16-.26.75.75,0,0,1,.84.65v0A.37.37,0,0,1,69.71,62.28Zm-1.86,3.8a2.59,2.59,0,0,0-2.58-2.6H62.08a2.59,2.59,0,0,0-2.6,2.58v.66a2.6,2.6,0,0,0,2.58,2.6h3.18a2.58,2.58,0,0,0,2.6-2.58v-.66Z"/><path class="cls-1" d="M17.13,96.47h-8c-1.44,0-2.6-.38-2.6-.82s1.16-.84,2.6-.84h6.3A2.58,2.58,0,0,0,18,92.23v-.47a2.59,2.59,0,0,0-2.58-2.6H9.13a2.59,2.59,0,0,1-2.6-2.58V83.16a2.6,2.6,0,0,1,2.58-2.6h7.94c1.44,0,2.6.38,2.6.82s-1.16.84-2.6.84H10.79a2.59,2.59,0,0,0-2.6,2.58v.12a2.6,2.6,0,0,0,2.58,2.6h6.36a2.58,2.58,0,0,1,2.6,2.58v3.77a2.59,2.59,0,0,1-2.58,2.6Z"/><path class="cls-1" d="M31.87,96.81c-.44,0-.82-1.16-.82-2.6V87.94a2.59,2.59,0,0,0-2.58-2.6H25.71a2.59,2.59,0,0,0-2.6,2.58v6.29c0,1.44-.36,2.6-.82,2.6s-.82-1.16-.82-2.6v-11c0-1.44.36-2.6.82-2.6s.82.68.82,1.54,1.2,1.48,2.6,1.48h4.4a2.58,2.58,0,0,1,2.6,2.58v8C32.71,95.63,32.33,96.81,31.87,96.81Z"/><path class="cls-1" d="M44.07,96.45H37.39a2.6,2.6,0,0,1-2.6-2.6h0v-7.6a2.6,2.6,0,0,1,2.58-2.6h6.7a2.58,2.58,0,0,1,2.6,2.58v7.62a2.59,2.59,0,0,1-2.59,2.61ZM45,87.92a2.59,2.59,0,0,0-2.58-2.6H39.07a2.59,2.59,0,0,0-2.6,2.58v4.27a2.6,2.6,0,0,0,2.58,2.6h3.34A2.58,2.58,0,0,0,45,92.19V87.92Z"/><path class="cls-1" d="M56.71,96.45H55.55a7.32,7.32,0,0,1-3.16-.66c-.82-.34-1.38-.88-1.38-1.26s.66-.5,1-.5c1.14,0,2.06.7,3.38.66h.72c1.86-.06,2.7-1.53,2.7-3.49V87.84a2.52,2.52,0,0,0-2.5-2.54h-3.6c-1.42,0-2.24,1.16-2.24,2.72v7.87c0,1.48-.4,2.68-.86,2.68s-.9-1.2-.9-2.68V86.34a2.45,2.45,0,0,1,2.17-2.69h7a2.61,2.61,0,0,1,2.54,2.7h0v5.54C60.47,94.45,59,96.45,56.71,96.45Z"/><path class="cls-1" d="M18.79,116.2a7.38,7.38,0,0,1-3.16-1.64l-5.12-4.16a1.82,1.82,0,0,0-1.06-.48c-.56,0-.94.52-.94,1.44v2.27c0,1.44-.38,2.6-.84,2.6s-.84-1.16-.84-2.6v-10.7c0-1.44.38-2.6.84-2.6s.84,1.16.84,2.6v2c0,.92.38,1.42.94,1.42a1.77,1.77,0,0,0,1.08-.46L15.37,102a7.38,7.38,0,0,1,3.16-1.64c.2,0,.3.08.3.21,0,.29-.42.83-1.16,1.43l-5.56,4.54a2.14,2.14,0,0,0-.82,1.64,2.19,2.19,0,0,0,.82,1.64l5.84,4.8c.74.6,1.16,1.14,1.16,1.42S19,116.2,18.79,116.2Z"/><path class="cls-1" d="M30.23,116.22H22.71a2.59,2.59,0,0,1-2.6-2.58V111.5a2.6,2.6,0,0,1,2.58-2.6h5.84c1.44,0,2.6-.88,2.6-1.94a2.39,2.39,0,0,0-2.6-2H22.71c-1.44,0-2.6-.36-2.6-.8s1.16-.82,2.6-.82h7.5a2.58,2.58,0,0,1,2.6,2.58v7.71A2.59,2.59,0,0,1,30.23,116.22Zm-1.68-5.92H24.43a2.2,2.2,0,0,0-.83,4.32,2.32,2.32,0,0,0,.83,0h4.12a2.2,2.2,0,1,0,.84-4.32A2.37,2.37,0,0,0,28.55,110.3Z"/><path class="cls-1" d="M44.45,116.22H37.51a2.59,2.59,0,0,1-2.6-2.58V106a2.6,2.6,0,0,1,2.58-2.6h7a2.58,2.58,0,0,1,2.6,2.58v1.82a2.59,2.59,0,0,1-2.58,2.6H39.21a2.16,2.16,0,1,0-.82,4.24,2.26,2.26,0,0,0,.82,0h5.24c1.44,0,2.6.36,2.6.8S45.89,116.22,44.45,116.22ZM42.77,105H39.21a2.07,2.07,0,0,0-1.06,4,2.11,2.11,0,0,0,1.06,0h3.56a2.07,2.07,0,1,0,1.07-4A2.15,2.15,0,0,0,42.77,105Z"/><path class="cls-1" d="M54.87,105.06H53.15a2.59,2.59,0,0,0-2.6,2.58v6.26c0,1.44-.38,2.6-.86,2.6s-.86-1.16-.86-2.6V106a2.6,2.6,0,0,1,2.58-2.6h3.46c1.44,0,2.6.38,2.6.84S56.31,105.06,54.87,105.06Z"/><path class="cls-1" d="M67,116.24H61.37a2.59,2.59,0,0,1-2.6-2.58V106c0-1.44.38-2.6.84-2.6s.84,1.16.84,2.6v6a2.6,2.6,0,0,0,2.58,2.6h2.34A2.58,2.58,0,0,0,68,112v-6c0-1.44.38-2.6.82-2.6s.84,1.16.84,2.6v7.65a2.59,2.59,0,0,1-2.57,2.61Z"/></g></g></g></g></svg>