<svg id="レイヤー_1" data-name="レイヤー 1" xmlns="http://www.w3.org/2000/svg" viewBox="0 0 307.2 209.76"><defs><style>.cls-1{fill:#fff;}</style></defs><path class="cls-1" d="M451.2,415.61V483.7l-2.45,1.1,2.45,1.53v5L447.83,494h-1.3a5.48,5.48,0,0,1,.43,1,1.34,1.34,0,0,1-.08.84c-.58,1.23-1.2,2.44-1.8,3.65l-.3-.38-1.73.7,1.08,1.23.5-.05-3.8,6.48c-.89-.5-1.72-1.35-2.51-1.31-1.17,0-1.25-.42-1.3-1.28,0-.27-.28-.76-.39-.75-.82.08-.77-.6-1-1a4.6,4.6,0,0,0-.64-.69c-.26.26-.61.47-.77.79-.38.72-.67,1.49-1,2.27h.45v.19l-1.38.2v.2l1,.34c-.53.59-1,1.13-1.45,1.6s-1.32.68-1.35,1.07c-.11,1.26-1.18,1.6-1.81,2.36-.81,1-1.44,2.12-2.33,3s-.74,1.88-.76,2.9a2.57,2.57,0,0,1,0,.48c-.5,2.56-2.1,4.86-5.28,3.29a2.93,2.93,0,0,1-.48-.39c-.29-.24-.58-.48-.88-.71l.05.5c-.21.19-.39.5-.64.57a25.82,25.82,0,0,1-7.74.75c-1.61-.05-3.21,0-4.82,0a19.24,19.24,0,0,1-2,.2c-2.31-.21-4.62-.46-6.92-.78-1.11-.15-2.19-.5-3.62-.84-2.51.57-5.54,1.24-6.44,5H451.2c0,.08-.08.22-.12.23-.32,0-.64,0-1,0h-305a5.21,5.21,0,0,1-1.08-.23h55.3c-.38-.42-.62-.91-.87-.91-2,0-3.35-1.39-4.84-2.44a9.68,9.68,0,0,1-1.24-1.24c-.25.06-.77.37-1.21.27-2.84-.6-5.33-2.09-8-3.23-.26-.11-.42-.55-.55-.87-.24-.6-.54-.92-1.22-.54a1.6,1.6,0,0,1-1,.29,7,7,0,0,1-4.86-5.3c-.14-.65-.06-1.45-.42-1.93-1-1.37-2.45-2.48-3.27-3.94a5.73,5.73,0,0,0-3.21-2.35,5,5,0,0,0-.93-.29l.07-1.47c-.29,0-.77-.1-.83,0-.69,1.3-.88.23-1.23-.21-.15-.2-.32-.45-.54-.52a18.74,18.74,0,0,0-2.79-.87,11.48,11.48,0,0,0-3.66-.36c-3,.45-6,.84-9-.25a13.46,13.46,0,0,0-5.78-.94v-176c.6,0,1-.1.93-.85a10.76,10.76,0,0,0-.23-1.61,5.16,5.16,0,0,0-.7-1.13v-2.88h8.64c0,2.5-.75,3.41-3.24,4.1a1.28,1.28,0,0,0-.8.77,9.71,9.71,0,0,0,.11,1.93c.53.25,1.65.52,1.66.84.06,1.25.77,1.28,1.61,1.15s1.76-.41,2.72-.63l1.21.15,1.38,1.27c.3-.39.51-1,.9-1.13a3.86,3.86,0,0,0,2.4-2.25s.17.09.22.06a10,10,0,0,0,1.5-.95,13.39,13.39,0,0,0,1.21-1.46s.1-.39.23-.4c1.55-.2,1.49-1.64,2.18-2.49l-.27-.38-3.18,1.76v-2.34h7c.23.5,0,1.42,1,1.19.64-.14,1.33-.25,1.12-1.19H451.2v4.79l-.75.25c-.72.24-1.25.76-.84,1.44.17.29,1,.17,1.59.23v1l-.87.39.87,1.77v.48c-1.31.53-2.76.93-2.87,2.41l2.87,1.9v81.27c-1.06.58-1.15,1.57-1.22,2.62S450.25,415.76,451.2,415.61Zm-198.26,0c.47-.17.95-.31,1.4-.52,1.52-.71,2.72-.12,2.66,1.56l1.88-1.27-1.72-.35,1.45-1.74h-1l-.24.9-.22,0-.21-1h-1.31a8.6,8.6,0,0,1,5.91-2.5,9.07,9.07,0,0,1-.58-.79c-.62-1.11-1.6-1.36-2.35-.35a4.31,4.31,0,0,1-3.08,1.85c-.41.64-.64,1.31-.9,1.33a4.92,4.92,0,0,1-2.14-.37c-.63-.26-1.38-.1-1.18.43.43,1.14-.42,1.61-1,2.4-.35-.77-.7-1.46-1-2.17s-.6-1.5-1-2.59l1,.61c.16.1.37.34.46.3,1.09-.5,2.44-.8,3.16-1.64a4.81,4.81,0,0,1,3.1-1.54,1.46,1.46,0,0,0-1.55-1.52,4.12,4.12,0,0,1-1-.14l.07-.39,3.52-.38v-.23l-1-.32c1.85-.09,3-1.45,4.54-1.21.07,0,.21,0,.22-.08.21-.72.76-.47,1.23-.43.64.06,1.14,0,1.35-.79a1,1,0,0,1,.86-.29c1.41,1,2.68,1,3.83-.37.45-.53,1.2-1.1,1.19-1.65a7.41,7.41,0,0,0-.75-3.25,23.91,23.91,0,0,0-2.4-3.23c-.69-.91-1.38-1.81-2.19-2.89a6,6,0,0,1,3.55,2.79,17.19,17.19,0,0,0,.94,1.87c.14.2.6.18.9.27.05-.29.23-.63.13-.84a8,8,0,0,0-1.23-2.12c-1-1-2.19-1.87-3.21-2.88a4.74,4.74,0,0,1-.62-1.53c1.66.24,2.16,2.07,3.66,1.94l.3-.37-3.53-3.33c.73-.33,1.25-.61,1.79-.79s1.15-.76.72-1.26-1.44-.72-1.8-.47c-.87.58-2.46.3-2.57,1.9,0,0-.16,0-.21.08a11.54,11.54,0,0,0-1.35,1.54c-1.06,1.63-2,3.33-3.07,5s-2.68,2.59-3,4.58c0,.19-.45.29-.63.48a7.64,7.64,0,0,0-1.18,1.5c-.26.5-.15,1.54-.41,1.62a2.91,2.91,0,0,0-1.7,1.65,41.65,41.65,0,0,0-2,3.82c-.12.25.17.69.25,1l-2.17,1.37c-.87-2.46-1.72-5.09-2.71-7.66-1.11-2.88-1.87-6-4.61-7.93a8.67,8.67,0,0,1-1.12-1.22c-2.1-2.3-4.17-4.61-6.31-6.87a25.86,25.86,0,0,0-2.33-1.95c-1.06.65-1.14.63-1.68-.55a7.73,7.73,0,0,0-.79-1.8c-1.09-1.29-2.25-2.53-3.46-3.72-2.12-2.1-4.3-4.15-6.45-6.22-.17-.16-.38-.29-.54-.46-1.42-1.44-2.85-2.86-4.23-4.33-.39-.41-.53-1.05-.93-1.43-1.73-1.7-3.6-3.25-5.26-5s-3.31-3.4-5.73-4a5.05,5.05,0,0,0-1.1,0c.16.38.23.87.51,1.12,1.66,1.46,3.4,2.82,5,4.3,1.26,1.14,2.37,2.43,3.62,3.57,3.7,3.42,7.43,6.8,11.14,10.2.46.42.83.93,1.29,1.34.84.74,1.72,1.45,2.58,2.17l-.2.26c-.48-.35-1-.73-1.45-1.07-.24-.17-.63-.46-.79-.38-.85.44-1.17-.26-1.68-.64a13.11,13.11,0,0,1-1.81-2.17,63.62,63.62,0,0,0-5.94-5.54c-2.41-2.1-4.93-4.07-7.31-6.19-2-1.75-3.87-3.6-5.73-5.48-.68-.69-1.58-1.54-1.64-2.36-.12-1.67-1.37-1.95-2.38-2.59-.16-.11-.61-.09-.67,0a.76.76,0,0,0,0,.72c1.1,1.29,2.25,2.54,3.37,3.81.77.88,1.5,1.79,2.25,2.69l-.23.23c-1.58-1-3.15-2-4.77-2.9-.28-.17-.76,0-1.15,0a4.67,4.67,0,0,0,.32,1c.59,1,1.33,1.83,1.83,2.83,1.6,3.2,3.14,6.43,4.65,9.68.38.83.41,1.83.84,2.63.71,1.37,1.61,2.64,2.44,3.95-1.06.74-1.19,1.36-.23,2.64,1.08,1.43,2.33,2.73,3.31,3.88-.09.58-.42,1.31-.2,1.55.93,1.05,2,2,3.06,2.92l0,0-1.16.4c1.73,2.95,4.57,3.69,7.46,4.47-.43.18-.9.18-1.29.37a23.26,23.26,0,0,1-2.47,1.29c-.85.28-1.45.67-1.54,1.54a1.11,1.11,0,0,0,.6.85c1,.28,1.38-.51,1.9-1.11a1.32,1.32,0,0,1,.82-.49c1.54,0,3.08,0,4.63,0-.38.15-.81.29-1.21.48-2,.89-4.26,1.27-5.36,3.44a3.48,3.48,0,0,0-.12,1.65c0,.15.52.43.56.39.32-.32.76-.67.86-1.07.17-.8.54-1,1.34-1.1a22.9,22.9,0,0,0,3.35-.94,4,4,0,0,1-.68.93c-.82.6-1.7,1.12-2.55,1.67-.67.43-1.6.89-1.05,1.8.46.76,1.32.2,2-.05s1.53-.59,2.29-.88l.22.32a5.93,5.93,0,0,1-1.1,1,6.1,6.1,0,0,0-2.93,4c0,.18.56.74.65.7,1-.51,2.47-.41,2.68-2,0-.27.7-.59,1.09-.63s.66.35,1,.55c-2.88,3.65-2.23,3.47-1.88,4.12-.18.53-.41.87-.34,1.11a1.54,1.54,0,0,0,.66,1,2.72,2.72,0,0,1,1.8,2c.09.46.24.92.36,1.38l.38-.07v1.29c.94.55,1.94,1,1.7,2.35,0,.26.16.79.32.83,1.27.27,1.1,1.25,1.12,2,.44.35.93.57,1.11.93.39.79.54,1.72,1,2.49a5.8,5.8,0,0,0,1.49,1.6c.14.11.62-.2,1.06-.36-.4,1.23.07,2.68-1.52,3.52-.55.29-1.56,1.22-.61,2.06-.32.56-.8,1-.79,1.45,0,1.37,1.39,1.18,2.22,1.69a4.36,4.36,0,0,1-.85.1,2.23,2.23,0,0,0-1,.2c-1.18.93-2.32,1.93-3.48,2.91.49,1.09.93,1.22,2,.67,1.54-.78,3.1-1.5,4.65-2.26,1.39-.68,2.78-1.35,4.16-2.05.86-.44,1.69-1,2.56-1.4,1.48-.77,3-1.47,4.48-2.26.28-.16.41-.59.62-.9l-.3-.39c-1.41.29-2.82.55-4.21.9-.36.09-.91.47-.91.73,0,1-.79,1-1.34,1.15a19.07,19.07,0,0,1-3.07.74c-1,.16-1.75.46-1.59,1.66-1.41-.08-1.45-.26-1-4.1.12.14.21.26.31.36.37.38.91,1.12,1.09,1.05.55-.25,1.23-.66.72-1.56-.08-.16.28-.83.45-.84,2-.08,1.65-2.75,3.43-3.07.12,0,.08-.81.16-1.22a3.59,3.59,0,0,1,.34-1.08c.23-.41.64-.74.84-1.17.49-1,1.06-1.84,2.39-1.79a.72.72,0,0,0,.6-1.17,2.8,2.8,0,0,0-4.28-.52c-.2-1.36,1.29-5.34,2.07-5.54l-.79-.55c.25-.05.4,0,.46-.1.34-.37.66-.77,1-1.16-.31-.17-.61-.46-.94-.48-.78-.07-.72.54-.72,1.07v1.42l-.28-.13-1.39,1.63a9.59,9.59,0,0,0-.29-2.42c-.51-1.19-1.3-2.28-.27-3.66l-1.13-.14-.86-1.5c.59-.43-.58-2.07,1.28-2a2.4,2.4,0,0,0,.1,1,1.14,1.14,0,0,0,.81.54,14.11,14.11,0,0,0,2-.21l.12-.79c.55.33,1,.84,1.36.77s.78-.66,1-.89c-.23-.83-1.41.06-1.11-1.08h0l2.44-1.14-.35-1.06c-2.05,1.06-2.53-1-3.68-2.05l-.59,2c-2.41-.38-2-2.24-2-4,.84,0,.92-.5.66-1.26l-1-.12c.2-.26.5-.47.67-.39,1.77.76,3.88-.06,5.58,1.38,1,.8,2.37,1.07,3.66,1.61l-1.78,1,1,2,1.59-.5a8.44,8.44,0,0,1,.45,1.26c.15.85,0,1.89.39,2.52,1.07,1.56,1,3.44,1.75,5.07,1,2.14,1.68,4.41,2.61,6.57a22.11,22.11,0,0,0,1.55,2.26c.59,1,.88,2.27,1.7,2.92a3.29,3.29,0,0,1,1.31,2.46,1,1,0,0,0,.68.66,2.6,2.6,0,0,0,1.19-.11c0-1.1.66-.36.92-.46-.15.55-.51,1.14-.37,1.56.2.58,1.7.38,2.23,0,.77-.54,1.28-1.56,2.48-1.42a7,7,0,0,0,2.05,0c1.25-.24,1.43-.7.76-1.74a1.87,1.87,0,0,1,0-2.46,3.19,3.19,0,0,0,.45-1.16c.38-1.37.74-2.75,1.12-4.16-2.16.13-2.18,1.69-2.09,3.17a13,13,0,0,0-1.52.31c-2.06.72-4.1,1.49-6.16,2.19-.35.12-1,.12-1.16-.08-1.17-2-2.25-4-3.51-6.37H253c-.25.2-.59.34-.72.6-.58,1.17,1,1.32,1.15,2.2a9.36,9.36,0,0,0,1.33-.06l-.22.88.51-.08,1.13-2.92-.43-.29c-.15.26-.24.63-.47.75s-.89.44-1.2.3C253.5,416.76,252.72,416.52,252.94,415.59Zm-18.81,28.88,3-.37a10.84,10.84,0,0,1,.53-1.74,5.65,5.65,0,0,1,.87-1l-2.32-.21c-.26.32-.42.74-.69.82-1,.31-2.1.51-3.15.76a.87.87,0,0,0-.47.23c-.74,1.05-1.81.67-2.58.34-.94-.41-.93-1.48-.72-2.42.14-.63.33-1.25.58-2.19a11.1,11.1,0,0,0-2.14.47c-1.08.53-2.09,1.21-3.15,1.79a1.06,1.06,0,0,1-.64,0c-.45,0-1.17-.33-1.29-.17a3.36,3.36,0,0,1-3.22,1.29,2,2,0,0,0-.74.28c.08,1.53.08,1.51-1.61,1.56-.43,0-1.16.15-1.23.39-.23.8-.8.72-1.38.8a6.35,6.35,0,0,0-1.34.37c-.75.28-1.47.61-2.22.93-.27-.88-1.16-1.58-.42-2.3.4-.39,1.18-.38,1.78-.55l.32,1.16,5.56-2.06c.3-.91.3-.91,2.18-1.36-.35-.39-.63-.92-.86-.91-2.52.16-5,.3-7.53.68-1.4.22-2.87,0-4.21.83a2.34,2.34,0,0,0-1.28,2.44l1.19.07.3,2.63,1.62-.2c-.16.57-.58,1.22-.42,1.65a1.35,1.35,0,0,0,1.81.69c1.8-.51,3.61-1,5.44-1.38,2.78-.5,5.58-.86,8.37-1.25.57-.08,1.13,0,.78.95a1.23,1.23,0,0,0-1.95-.37A7.4,7.4,0,0,1,220,448c-.94.13-2.29-.09-2.44.94-.19,1.26-1.21,1.28-1.77,1.93,0,.05,0,.15,0,.23-.08.95.58.95,1.23,1,2.88.27,5.49-.81,8.16-1.6a9.11,9.11,0,0,0,1.86-.9,16.41,16.41,0,0,1,3.1-1.78,12.46,12.46,0,0,1,5.55-.57,40,40,0,0,0,5.7.29,27,27,0,0,0,4.93-.08,81,81,0,0,0,8-1.86,45.52,45.52,0,0,0,11.25-4.29c2.44-1.46,4.85-3,7.82-3.29,1.74-.19,3.27-.3,4.73.88a26,26,0,0,0,3.38,2.12c.28.16.87.24,1,.08s.18-.72.18-1.1a.88.88,0,0,0-.25-.52q-1.74-1.9-3.51-3.78c-.42-.45-.84-1.05-1.47-.17a.91.91,0,0,1-.85.17c-1.45-.63-2.87-1.32-4.24-2,.32-.15.75-.34,1.15-.56,1.42-.76,2-.61,3,.68a3.26,3.26,0,0,0,1,.59,2,2,0,0,0-.1-1.14,6.92,6.92,0,0,1-.44-1c-.36-1.24-1.07-1.47-2.06-.61a3.6,3.6,0,0,0-.39.47,1.16,1.16,0,0,1-.26-.2c-.53-.84-1.83-1.64-.07-2.58.14-.08.12-.81-.06-1.07a6.3,6.3,0,0,0-1.48-1.48,4.06,4.06,0,0,0-1.4-.34c-.05.47-.1.93-.14,1.4-.08.84.16,2-.29,2.46-1.33,1.47-1.4,1.87.19,3.08l-.34,1.18,4.11,1.26-.09.48a8.18,8.18,0,0,1-1.31,0c-1.34-.19-2.6-.66-4,0a30.6,30.6,0,0,1-4.38,1.52c-1,.32-2.12.26-2.66,1.47-.11.27-.7.33-1.25.56l.28-2.38c-1.28.52-2.65.64-2.21,2.46.06.25-.52.81-.92,1-1.32.58-2.68,1.05-4,1.54a1.77,1.77,0,0,1-.83.05c-.33-1.4-1.09-.13-1.59-.19a2.14,2.14,0,0,0-1.8.67c-.44,1-1.12.79-1.87.81,1.54-2.23,1.79-2.38.2-3.32l-.72,1.32a1.2,1.2,0,0,1-.77-1.8l-3.7,2.52-.28-.35.74-1.09-.06-.33-2.49.49c-.09.9-2.87,3.56-3.47,3.63-1.74.22-3.46.73-5.25.13l2.28-.35Zm34.74-59.81a4.11,4.11,0,0,0-.5.12c-.76.3-.78,1.06.14,1.87a12.6,12.6,0,0,1,3.44,4.92c.67,1.68,1.09,3.47,1.67,5.19.15.43,0,1.31.85,1,.23-.07.42-.89.33-1.3a30.47,30.47,0,0,0-1.66-6.29,34.27,34.27,0,0,0-3.79-5.3C269.25,384.77,269,384.73,268.87,384.66Zm-48,137.74h-2.4l-.33.73-1.75-1.87c-.69.36-1.6.82-2.49,1.34-.09,0-.06.47.05.63a.58.58,0,0,0,.57.11c1.39-.85,2.49-.17,3.88.8l-3.11.9.12.3h4.35l-.93-1.38c1.61-1,1.52,1.09,2.48,1.26l-.11-.36,1.38-.94v-2.34l.7-.21c-1.08-.47-2.8-.33-2.95.21C220.33,521.74,220.63,522,220.91,522.4Zm42.69-85.74c.57-.38,1-.85,1.23-.78,1.64.44,1.56-.62,1.58-1.67a8.88,8.88,0,0,1,.1-1.1c.52-.25,1.3-.39,1.38-.7.33-1.3,1.47-2.59.12-4.09-1,0-1.52.84-1.83,1.78-.39,1.22-.62,2.49-1,3.71-.13.41-.57,1-.9,1C262.69,435,263.59,435.81,263.6,436.66ZM436,499c.5-.24.93-.31,1-.47.22-1,.84-2.53.4-3a3.5,3.5,0,0,1-1.06-2.47h-.11l.13-.83c-.48.45-.76.74-1.06,1a4.77,4.77,0,0,1-.73.42c-.45.24-1.17.38-1.28.72s.32.94.56,1.55c.75-.61,1-1,1.66.06A4.12,4.12,0,0,1,436,499Zm-259.29,3.58.23-.37a8.08,8.08,0,0,0-2.42-.94c-1.26,0-2.52-.94-3.8-.1,0,0-.05-.06-.09-.08-1.58-.63-1.89-.41-1.77,1.26C170.55,501.6,174.8,502.3,176.74,502.57Zm16.69,8.81c-1.13-.12-2.08-.28-3-.3a2.39,2.39,0,0,0-1.45.4c-.17.15,0,.95.23,1.26a2.2,2.2,0,0,0,3.11-.09.84.84,0,0,1,.47-.32C193.55,512.23,193.52,511.73,193.43,511.38Zm50.26-94.79.39-.36-1.73-2.56c-.33.26-.74.43-.85.72s.18.59.29.91l-.16.07a14.65,14.65,0,0,0-1.36.71,1.4,1.4,0,0,0,.21.58c.51-.06,1-.21,1.52-.28a4.79,4.79,0,0,1,.92.06Zm18.38-10.92a13.44,13.44,0,0,0-1.82,0c-.21,0-.38.55-.56.54a3.78,3.78,0,0,0-3.05,1.7,39.6,39.6,0,0,0,5.07-1.28C261.86,406.61,261.89,406.18,262.07,405.67Zm174.27,10.06c1.63.35,2.42,0,2.61-1.19.11-.67-.12-1.2-.85-1.31C437.22,413.09,436.36,414.31,436.34,415.73ZM250,399.48a2.39,2.39,0,0,0-.85-.17,8.75,8.75,0,0,0-2.1.61c-.42.21-.69.73-1,1.11.27.23.63.69.8.63a21.26,21.26,0,0,0,2.71-1.23C249.7,400.33,249.75,400,250,399.48ZM381.77,525.37a2.42,2.42,0,0,0-2.58-1.58,1.47,1.47,0,0,0-1.6,1.58ZM258.1,440.66l.34-.39-.92-1.85-.95,1.12-.93-.79-.34.23.11,2.11,1.07-.71Zm-97,48.91a7.84,7.84,0,0,0-1.6-.49,3,3,0,0,0-1.12.37,5.09,5.09,0,0,0,.75.72c.76.48,1.54.92,2.33,1.36a3,3,0,0,0,.78.27s.21-.31.17-.36a1.5,1.5,0,0,0-.57-.5C161.13,490.73,160.81,490.35,161.14,489.57Zm100.27-70.63.4.05,1.33-3.75a1.37,1.37,0,0,0-1.8,1A3,3,0,0,0,261.41,418.94Zm125,98.11-.15-.34a7.94,7.94,0,0,1-.88.43c-.44.15-1,.43-1.32.31-1-.34-1.25.09-1.37.9a6.87,6.87,0,0,0,2,.42c.54,0,1-.56,1.62-.9l-.63-.29Zm-21.08,4.29-.87,1.91c.23.45.48,1.22,1.11,1l1.37-3ZM183.76,505.12l-.46.32c.13.26.18.63.39.77,1.15.77,1.18.85.05,1.82.47.21.9.57,1.29.52a1.13,1.13,0,0,0,.66-.93c-.05-.41-.48-.77-.77-1.15-.1-.13-.24-.23-.35-.36C184.29,505.78,184,505.45,183.76,505.12Zm49.66-64.07-.33-.26a8.88,8.88,0,0,0-2,0c-.28.06-.44.62-.66,1a7.69,7.69,0,0,0,2.13.34C232.88,442.12,233.14,441.43,233.42,441.05Zm159.77,76.61c-.11.19-.16.44-.32.54s-.67.44-.87.34a7.83,7.83,0,0,1-1.39-1c.15.94,0,2,1.14,2.31C392.37,520,393.4,518.69,393.19,517.66ZM231.57,371.47c-.8-1.29-1.16.23-1.75.09a7.29,7.29,0,0,0,.17,1.83c0,.15.9,0,1.38,0l.13-.34C230.71,372.45,230.6,371.9,231.57,371.47Zm209.35-24.71c1,.14,1.93.07,2.3-1,0-.16-.54-.75-.9-.82C441.62,344.82,440.9,345.78,440.92,346.76ZM157.25,492.45l-.45-.28-1.5,1.6,1.56,1Zm21.13,14.4-.34.1.71,2.21,1.91-1.07Zm78.84-98.12c-1.84-.13-2.12,0-2.26,1.27C256.8,410.24,257.19,410,257.22,408.73Zm162.7,107.4c-1.55-.12-2.13.38-1.91,1.64l2.22-.61ZM239.21,406.62l1,1.32a5.09,5.09,0,0,0,1-1.09c.06-.12-.47-.68-.8-.78S239.72,406.36,239.21,406.62ZM398.73,516.11c0,1.15.23,1.26,2.41,1.09l-.49-1.09ZM275.21,402.58l-.4-.29c-.38.22-.9.36-1.08.69a1.54,1.54,0,0,0,.13,1.19c.07.13.85.14.91,0A8.39,8.39,0,0,0,275.21,402.58Zm-2.63,1.88a4.62,4.62,0,0,0-.68-1.38,1.09,1.09,0,0,0-1.06-.05c-.28.25-.31.76-.47,1.25ZM375.84,525.37l.74-1.53c-1.25-.61-1.54-.34-1.81,1.53ZM258.53,433.32c-.43.39-.82.6-1,.92s-.17.87.44,1c.4.07.82.1,1.23.15Zm7.41-18.5.37.17c.34-.62.68-1.24,1-1.86-.29-.13-.65-.45-.88-.37C265.09,413.18,266.3,414.15,265.94,414.82Zm-25.16-14.16-.29-.21c-.45,1.27-1.41.67-2.24.7-.57,1.2.5,1,.81,1.19a5,5,0,0,0,1.21-.67A4,4,0,0,0,240.78,400.66Zm206.65,19.69.5.44c.35-.32.83-.57,1-1a6.34,6.34,0,0,0,.28-1.66l-.3,0Zm-244.19,105c-.7-1.08-1.67-.85-2.54-.86-.11,0-.23.49-.39.86Zm177.26-2.9-.22-.55a5.21,5.21,0,0,0-1.59.38c-.19.11-.09.75-.12,1.14l.36.15Zm-135-93.12c-.74.57-2.11,0-1.78,1.67l1.78-.4Zm-60.76,82.12c-.69-.72-1.2-1.28-1.74-1.8a.48.48,0,0,0-.42,0,.69.69,0,0,0-.06.52,13.56,13.56,0,0,0,.61,1.28ZM267.88,410.3l.08,1.62.33.14,1.32-1.46-.18-.3Zm-3.85-.08.38.44c.38-.12,1-.13,1.1-.37a4,4,0,0,0,.05-1.48l-.37-.09ZM289.64,525.3h2.65l.06-.4c-.82-.14-1.65-.29-2.47-.39A4.61,4.61,0,0,0,289.64,525.3ZM187.71,507.57c-1.09-.24-1.69-.15-1.64.67,0,.3.46.58.71.86Zm118.52,17.76-.69-1.21L304,525l.15.31Zm-78.4-1.71.14-.37-1.65-.9,0,.42-.58.85Zm71.75.64,1.41,1a4.76,4.76,0,0,0,.45-1.07,2.86,2.86,0,0,0-.15-.89,5,5,0,0,1-.59.44C300.42,523.9,300.12,524,299.58,524.26ZM265,405.43a9.24,9.24,0,0,0,1.05-.17,2.56,2.56,0,0,0,.79-.4.57.57,0,0,0-.13-.51,1.3,1.3,0,0,0-.73-.15,6.45,6.45,0,0,0-1,.27Zm-102.42,93c.72-1.53.72-1.53-.86-2.35ZM270.32,407.8l-.44.26.34,1.54,1-1Zm91.81,117.51c-.76-1.13-1.4-1.14-2.41,0Zm-148.38-.79-.19-.37-2.11.93C212.37,525.39,213.31,525.74,213.75,524.52Zm29.32-106.37.29.63a12.38,12.38,0,0,0,1.4-.56,3.58,3.58,0,0,0-.24-.82ZM195.2,522c.3-1.08,0-1.28-.68-1.14A15.12,15.12,0,0,1,193,521l-.13.16Zm45.87-112.23-.55-1.37-1.15,1.12.22.25ZM223.39,523.62l2-.38,0-.46c-.4-.16-.83-.47-1.2-.42S223.8,523,223.39,523.62Zm44.19-117,2,.25C269,405.22,268.91,405.2,267.58,406.6ZM369,525.34c-.4-.73-.42-1.63-1.53-1.26C367.4,525.08,367.81,525.5,369,525.34Zm53.6-13L423,512c.19-1.32,0-1.53-1.72-1.11ZM144.91,494.52l1.58,1.37C146.85,494.43,146.42,494,144.91,494.52ZM235,372.37l.15.32,1.68-.63-.07-.34-1-.47Zm-89,116.84c-.49,1.38.81.75,1.15,1.23C147.9,488.85,146.79,489.28,146.06,489.21Zm61,33.66h-1.38l-.15.29,1.37,1.11Zm95.09,2.44c.91.28,1.38,0,1.38-1C302.41,524.19,302.41,524.19,302.19,525.31Zm142-30-.28-.29-.86.81,1.14,1.11Zm-22.11,18.44-.42-.51-1.16,1c.16.15.43.45.47.42C421.35,514.41,421.71,514.08,422.07,513.77Zm-246.44-7.46-.55,0-.07,1.5.89-.07Z" transform="translate(-144 -315.89)"/><path d="M144,498.32a13.46,13.46,0,0,1,5.78.94c3,1.09,6,.7,9,.25a11.48,11.48,0,0,1,3.66.36,18.74,18.74,0,0,1,2.79.87c.22.07.39.32.54.52.35.44.54,1.51,1.23.21.06-.11.54,0,.83,0l-.07,1.47a5,5,0,0,1,.93.29,5.73,5.73,0,0,1,3.21,2.35c.82,1.46,2.25,2.57,3.27,3.94.36.48.28,1.28.42,1.93a7,7,0,0,0,4.86,5.3,1.6,1.6,0,0,0,1-.29c.68-.38,1-.06,1.22.54.13.32.29.76.55.87,2.64,1.14,5.13,2.63,8,3.23.44.1,1-.21,1.21-.27a9.68,9.68,0,0,0,1.24,1.24c1.49,1.05,2.81,2.42,4.84,2.44.25,0,.49.49.87.91H144Z" transform="translate(-144 -315.89)"/><path d="M162.48,315.89v2.34l3.18-1.76.27.38c-.69.85-.63,2.29-2.18,2.49-.13,0-.21.38-.23.4a13.39,13.39,0,0,1-1.21,1.46,10,10,0,0,1-1.5.95c-.05,0-.22-.07-.22-.06a3.86,3.86,0,0,1-2.4,2.25c-.39.14-.6.74-.9,1.13l-1.38-1.27-1.21-.15c-1,.22-1.83.49-2.72.63s-1.55.1-1.61-1.15c0-.32-1.13-.59-1.66-.84a9.71,9.71,0,0,1-.11-1.93,1.28,1.28,0,0,1,.8-.77c2.49-.69,3.24-1.6,3.24-4.1Z" transform="translate(-144 -315.89)"/><path d="M451.2,330.51l-2.87-1.9c.11-1.48,1.56-1.88,2.87-2.41Z" transform="translate(-144 -315.89)"/><path d="M451.2,415.61c-.95.15-1.28-.26-1.22-1.21s.16-2,1.22-2.62Z" transform="translate(-144 -315.89)"/><path d="M451.2,486.33l-2.45-1.53,2.45-1.1Z" transform="translate(-144 -315.89)"/><path d="M451.2,322.6c-.55-.06-1.42.06-1.59-.23-.41-.68.12-1.2.84-1.44l.75-.25Z" transform="translate(-144 -315.89)"/><path d="M144,318.77a5.16,5.16,0,0,1,.7,1.13,10.76,10.76,0,0,1,.23,1.61c.11.75-.33.89-.93.85Z" transform="translate(-144 -315.89)"/><path d="M171.6,315.89c.21.94-.48,1.05-1.12,1.19-1,.23-.81-.69-1-1.19Z" transform="translate(-144 -315.89)"/><path d="M451.2,325.72l-.87-1.77.87-.39Z" transform="translate(-144 -315.89)"/><path d="M237.47,405.18c-.3,1.14.88.25,1.11,1.08-.24.23-.58.8-1,.89s-.81-.44-1.36-.77l-.12.79a14.11,14.11,0,0,1-2,.21,1.14,1.14,0,0,1-.81-.54,2.4,2.4,0,0,1-.1-1c-1.86-.05-.69,1.59-1.28,2l.86,1.5,1.13.14c-1,1.38-.24,2.47.27,3.66a9.59,9.59,0,0,1,.29,2.42l1.39-1.63.28.13v-1.42c0-.53-.06-1.14.72-1.07.33,0,.63.31.94.48-.32.39-.64.79-1,1.16-.06.07-.21.05-.46.1l.79.55c-.78.2-2.27,4.18-2.07,5.54a2.8,2.8,0,0,1,4.28.52.72.72,0,0,1-.6,1.17c-1.33,0-1.9.76-2.39,1.79-.2.43-.61.76-.84,1.17a3.59,3.59,0,0,0-.34,1.08c-.08.41,0,1.2-.16,1.22-1.78.32-1.44,3-3.43,3.07-.17,0-.53.68-.45.84.51.9-.17,1.31-.72,1.56-.18.07-.72-.67-1.09-1.05-.1-.1-.19-.22-.31-.36-.4,3.84-.36,4,1,4.1-.16-1.2.58-1.5,1.59-1.66a19.07,19.07,0,0,0,3.07-.74c.55-.18,1.33-.18,1.34-1.15,0-.26.55-.64.91-.73,1.39-.35,2.8-.61,4.21-.9l.3.39c-.21.31-.34.74-.62.9-1.48.79-3,1.49-4.48,2.26-.87.44-1.7,1-2.56,1.4-1.38.7-2.77,1.37-4.16,2.05-1.55.76-3.11,1.48-4.65,2.26-1.1.55-1.54.42-2-.67,1.16-1,2.3-2,3.48-2.91a2.23,2.23,0,0,1,1-.2,4.36,4.36,0,0,0,.85-.1c-.83-.51-2.19-.32-2.22-1.69,0-.44.47-.89.79-1.45-.95-.84.06-1.77.61-2.06,1.59-.84,1.12-2.29,1.52-3.52-.44.16-.92.47-1.06.36a5.8,5.8,0,0,1-1.49-1.6c-.43-.77-.58-1.7-1-2.49-.18-.36-.67-.58-1.11-.93,0-.76.15-1.74-1.12-2-.16,0-.36-.57-.32-.83.24-1.37-.76-1.8-1.7-2.35v-1.29l-.38.07c-.12-.46-.27-.92-.36-1.38a2.72,2.72,0,0,0-1.8-2,1.54,1.54,0,0,1-.66-1c-.07-.24.16-.58.34-1.11-.35-.65-1-.47,1.88-4.12-.34-.2-.69-.57-1-.55s-1.05.36-1.09.63c-.21,1.62-1.68,1.52-2.68,2-.09,0-.7-.52-.65-.7a6.1,6.1,0,0,1,2.93-4,5.93,5.93,0,0,0,1.1-1l-.22-.32c-.76.29-1.52.6-2.29.88s-1.52.81-2,.05c-.55-.91.38-1.37,1.05-1.8.85-.55,1.73-1.07,2.55-1.67a4,4,0,0,0,.68-.93,22.9,22.9,0,0,1-3.35.94c-.8.1-1.17.3-1.34,1.1-.1.4-.54.75-.86,1.07,0,0-.55-.24-.56-.39a3.48,3.48,0,0,1,.12-1.65c1.1-2.17,3.4-2.55,5.36-3.44.4-.19.83-.33,1.21-.48-1.55,0-3.09,0-4.63,0a1.32,1.32,0,0,0-.82.49c-.52.6-.94,1.39-1.9,1.11a1.11,1.11,0,0,1-.6-.85c.09-.87.69-1.26,1.54-1.54a23.26,23.26,0,0,0,2.47-1.29c.39-.19.86-.19,1.29-.37-2.89-.78-5.73-1.52-7.46-4.47l1.15-.4c.29,1.05,1.31,1.58,2.93,1.47l-2.95-1.44c-1-1-2.13-1.87-3.06-2.92-.22-.24.11-1,.2-1.55-1-1.15-2.23-2.45-3.31-3.88-1-1.28-.83-1.9.23-2.64-.83-1.31-1.73-2.58-2.44-3.95-.43-.8-.46-1.8-.84-2.63-1.51-3.25-3.05-6.48-4.65-9.68-.5-1-1.24-1.87-1.83-2.83a4.67,4.67,0,0,1-.32-1c.39,0,.87-.18,1.15,0,1.62.92,3.19,1.92,4.77,2.9l.23-.23c-.75-.9-1.48-1.81-2.25-2.69-1.12-1.27-2.27-2.52-3.37-3.81a.76.76,0,0,1,0-.72c.06-.11.51-.13.67,0,1,.64,2.26.92,2.38,2.59.06.82,1,1.67,1.64,2.36,1.86,1.88,3.75,3.73,5.73,5.48,2.38,2.12,4.9,4.09,7.31,6.19a63.62,63.62,0,0,1,5.94,5.54,13.11,13.11,0,0,0,1.81,2.17c.51.38.83,1.08,1.68.64.16-.08.55.21.79.38.5.34,1,.72,1.45,1.07l.2-.26c-.86-.72-1.74-1.43-2.58-2.17-.46-.41-.83-.92-1.29-1.34-3.71-3.4-7.44-6.78-11.14-10.2-1.25-1.14-2.36-2.43-3.62-3.57-1.64-1.48-3.38-2.84-5-4.3-.28-.25-.35-.74-.51-1.12a5.05,5.05,0,0,1,1.1,0c2.42.59,4.09,2.23,5.73,4s3.53,3.31,5.26,5c.4.38.54,1,.93,1.43,1.38,1.47,2.81,2.89,4.23,4.33.16.17.37.3.54.46,2.15,2.07,4.33,4.12,6.45,6.22,1.21,1.19,2.37,2.43,3.46,3.72a7.73,7.73,0,0,1,.79,1.8c.54,1.18.62,1.2,1.68.55a25.86,25.86,0,0,1,2.33,1.95c2.14,2.26,4.21,4.57,6.31,6.87a8.67,8.67,0,0,0,1.12,1.22c2.74,1.95,3.5,5,4.61,7.93,1,2.57,1.84,5.2,2.71,7.66l2.17-1.37c-.08-.29-.37-.73-.25-1a41.65,41.65,0,0,1,2-3.82,2.91,2.91,0,0,1,1.7-1.65c.26-.08.15-1.12.41-1.62a7.64,7.64,0,0,1,1.18-1.5c.18-.19.6-.29.63-.48.3-2,2-3,3-4.58s2-3.34,3.07-5a11.54,11.54,0,0,1,1.35-1.54c.05-.05.21-.05.21-.08.11-1.6,1.7-1.32,2.57-1.9.36-.25,1.44.07,1.8.47s0,1-.72,1.26-1.06.46-1.79.79l3.53,3.33-.3.37c-1.5.13-2-1.7-3.66-1.94a4.74,4.74,0,0,0,.62,1.53c1,1,2.21,1.85,3.21,2.88a8,8,0,0,1,1.23,2.12c.1.21-.08.55-.13.84-.3-.09-.76-.07-.9-.27a17.19,17.19,0,0,1-.94-1.87,6,6,0,0,0-3.55-2.79c.81,1.08,1.5,2,2.19,2.89a23.91,23.91,0,0,1,2.4,3.23,7.41,7.41,0,0,1,.75,3.25c0,.55-.74,1.12-1.19,1.65-1.15,1.36-2.42,1.36-3.83.37a1,1,0,0,0-.86.29c-.21.77-.71.85-1.35.79-.47,0-1-.29-1.23.43,0,.05-.15.09-.22.08-1.58-.24-2.69,1.12-4.54,1.21l1,.32v.23l-3.52.38-.07.39a4.12,4.12,0,0,0,1,.14,1.46,1.46,0,0,1,1.55,1.52,4.81,4.81,0,0,0-3.1,1.54c-.72.84-2.07,1.14-3.16,1.64-.09,0-.3-.2-.46-.3l-1-.61c.43,1.09.71,1.85,1,2.59s.65,1.4,1,2.17c.56-.79,1.41-1.26,1-2.4-.2-.53.55-.69,1.18-.43a4.92,4.92,0,0,0,2.14.37c.26,0,.49-.69.9-1.33a4.31,4.31,0,0,0,3.08-1.85c.75-1,1.73-.76,2.35.35a9.07,9.07,0,0,0,.58.79,8.6,8.6,0,0,0-5.91,2.5H257l.21,1,.22,0,.24-.9h1L257.16,415l1.72.35L257,416.63c.06-1.68-1.14-2.27-2.66-1.56-.45.21-.93.35-1.4.52l0,0h-2.55c1.26,2.33,2.34,4.38,3.51,6.37.11.2.81.2,1.16.08,2.06-.7,4.1-1.47,6.16-2.19a13,13,0,0,1,1.52-.31c-.09-1.48-.07-3,2.09-3.17-.38,1.41-.74,2.79-1.12,4.16a3.19,3.19,0,0,1-.45,1.16,1.87,1.87,0,0,0,0,2.46c.67,1,.49,1.5-.76,1.74a7,7,0,0,1-2.05,0c-1.2-.14-1.71.88-2.48,1.42-.53.36-2,.56-2.23,0-.14-.42.22-1,.37-1.56-.26.1-.91-.64-.92.46a2.6,2.6,0,0,1-1.19.11,1,1,0,0,1-.68-.66,3.29,3.29,0,0,0-1.31-2.46c-.82-.65-1.11-1.94-1.7-2.92a22.11,22.11,0,0,1-1.55-2.26c-.93-2.16-1.63-4.43-2.61-6.57-.76-1.63-.68-3.51-1.75-5.07-.43-.63-.24-1.67-.39-2.52a8.44,8.44,0,0,0-.45-1.26l-1.59.5-1-2,1.78-1c-1.29-.54-2.7-.81-3.66-1.61-1.7-1.44-3.81-.62-5.58-1.38-.17-.08-.47.13-.67.39l1,.12c.26.76.18,1.3-.66,1.26,0,1.73-.36,3.59,2,4l.59-2c1.15,1,1.63,3.11,3.68,2.05l.35,1.06-2.44,1.14a1.46,1.46,0,0,0-2.56-.22,8.1,8.1,0,0,0,1.31.33A6.69,6.69,0,0,0,237.47,405.18Zm-11.4-13.34c.31,0,.43.05.55,0a1.54,1.54,0,0,0,1.37-2c-.23-1.19-.79-.47-1.28-.2a.58.58,0,0,1-.23,0H224C224.34,391,226.55,389.93,226.07,391.84Zm37.65,6.67-2.53,1.84a2.2,2.2,0,0,0,3.29-.82l1.76.62C265.15,398.83,265.15,398.83,263.72,398.51Zm-32.55,28.16c.34-.32.71-.63,1-1a3,3,0,0,0,.49-.68,12.64,12.64,0,0,1,.7-1.43,14.66,14.66,0,0,1,1.36-1.46C232.58,422.05,231.08,424.09,231.17,426.67Zm-23-59.07a36.37,36.37,0,0,0-5.88-5.42A16.52,16.52,0,0,0,208.18,367.6ZM263,393.05l-.45.3a4.35,4.35,0,0,0,.53,1c.74.83,1.56,1.59,2.33,2.4.49.52,1,1.08,1.44,1.63l.4-.3c-.23-.38-.38-.95-.71-1.11a4.48,4.48,0,0,1-2.48-2.77C263.88,393.77,263.34,393.44,263,393.05ZM233.66,420.4l-.38-.43c-1.89,0-2.6.72-2.92,2.85Zm8.25-22.25c0-1.35,0-2.51-1.07-3.32-.22-.18-.69-.06-1.37-.09Zm-15.41-9.84.12-.19c-1.09-.56-2.18-1.13-3.28-1.66-.05,0-.27.29-.4.45l.58-.45,1.22,1.43h-.29Zm-2.06-3.39-.33.56,2.42,1.26.19-.37Z" transform="translate(-144 -315.89)"/><path d="M234.13,444.47l.45.27-2.28.35c1.79.6,3.51.09,5.25-.13.6-.07,3.38-2.73,3.47-3.63l2.49-.49.06.33-.74,1.09.28.35,3.7-2.52a1.2,1.2,0,0,0,.77,1.8l.72-1.32c1.59.94,1.34,1.09-.2,3.32.75,0,1.43.18,1.87-.81a2.14,2.14,0,0,1,1.8-.67c.5.06,1.26-1.21,1.59.19a1.77,1.77,0,0,0,.83-.05c1.36-.49,2.72-1,4-1.54.4-.17,1-.73.92-1-.44-1.82.93-1.94,2.21-2.46l-.28,2.38c.55-.23,1.14-.29,1.25-.56.54-1.21,1.69-1.15,2.66-1.47a30.6,30.6,0,0,0,4.38-1.52c1.42-.71,2.68-.24,4,0a8.18,8.18,0,0,0,1.31,0l.09-.48-4.11-1.26.34-1.18c-1.59-1.21-1.52-1.61-.19-3.08.45-.5.21-1.62.29-2.46,0-.47.09-.93.14-1.4a4.06,4.06,0,0,1,1.4.34,6.3,6.3,0,0,1,1.48,1.48c.18.26.2,1,.06,1.07-1.76.94-.46,1.74.07,2.58a1.16,1.16,0,0,0,.26.2,3.6,3.6,0,0,1,.39-.47c1-.86,1.7-.63,2.06.61a6.92,6.92,0,0,0,.44,1,2,2,0,0,1,.1,1.14,3.26,3.26,0,0,1-1-.59c-1-1.29-1.59-1.44-3-.68-.4.22-.83.41-1.15.56,1.37.64,2.79,1.33,4.24,2a.91.91,0,0,0,.85-.17c.63-.88,1.05-.28,1.47.17q1.77,1.88,3.51,3.78a.88.88,0,0,1,.25.52c0,.38,0,.87-.18,1.1s-.75.08-1-.08a26,26,0,0,1-3.38-2.12c-1.46-1.18-3-1.07-4.73-.88-3,.33-5.38,1.83-7.82,3.29a45.52,45.52,0,0,1-11.25,4.29,81,81,0,0,1-8,1.86,27,27,0,0,1-4.93.08,40,40,0,0,1-5.7-.29,12.46,12.46,0,0,0-5.55.57,16.41,16.41,0,0,0-3.1,1.78,9.11,9.11,0,0,1-1.86.9c-2.67.79-5.28,1.87-8.16,1.6-.65-.06-1.31-.06-1.23-1,0-.08,0-.18,0-.23.56-.65,1.58-.67,1.77-1.93.15-1,1.5-.81,2.44-.94a7.4,7.4,0,0,0,2.86-.82,1.23,1.23,0,0,1,1.95.37c.35-1-.21-1-.78-.95-2.79.39-5.59.75-8.37,1.25-1.83.34-3.64.87-5.44,1.38a1.35,1.35,0,0,1-1.81-.69c-.16-.43.26-1.08.42-1.65l-1.62.2-.3-2.63-1.19-.07A2.34,2.34,0,0,1,207,441.9c1.34-.84,2.81-.61,4.21-.83,2.49-.38,5-.52,7.53-.68.23,0,.51.52.86.91-1.88.45-1.88.45-2.18,1.36l-5.56,2.06-.32-1.16c-.6.17-1.38.16-1.78.55-.74.72.15,1.42.42,2.3.75-.32,1.47-.65,2.22-.93a6.35,6.35,0,0,1,1.34-.37c.58-.08,1.15,0,1.38-.8.07-.24.8-.38,1.23-.39,1.69-.05,1.69,0,1.61-1.56a2,2,0,0,1,.74-.28,3.36,3.36,0,0,0,3.22-1.29c.12-.16.84.12,1.29.17a1.06,1.06,0,0,0,.64,0c1.06-.58,2.07-1.26,3.15-1.79a11.1,11.1,0,0,1,2.14-.47c-.25.94-.44,1.56-.58,2.19-.21.94-.22,2,.72,2.42.77.33,1.84.71,2.58-.34a.87.87,0,0,1,.47-.23c1-.25,2.12-.45,3.15-.76.27-.08.43-.5.69-.82l2.32.21a5.65,5.65,0,0,0-.87,1,10.84,10.84,0,0,0-.53,1.74Zm8-.78c1.3,1.64,1.31,1.66,1.75,1.52.78-.25,1.54-.56,2.32-.8,1-.31.54-1,.52-1.55l-2,.47-.48,1a4.3,4.3,0,0,0-.83-.47A8.62,8.62,0,0,0,242.09,443.69Z" transform="translate(-144 -315.89)"/><path d="M268.87,384.66c.15.07.38.11.48.25a34.27,34.27,0,0,1,3.79,5.3,30.47,30.47,0,0,1,1.66,6.29c.09.41-.1,1.23-.33,1.3-.85.27-.7-.61-.85-1-.58-1.72-1-3.51-1.67-5.19a12.6,12.6,0,0,0-3.44-4.92c-.92-.81-.9-1.57-.14-1.87A4.11,4.11,0,0,1,268.87,384.66Z" transform="translate(-144 -315.89)"/><path d="M220.91,522.4c-.28-.4-.58-.66-.54-.82.15-.54,1.87-.68,2.95-.21l-.7.21v2.34l-1.38.94.11.36c-1-.17-.87-2.28-2.48-1.26l.93,1.38h-4.35l-.12-.3,3.11-.9c-1.39-1-2.49-1.65-3.88-.8a.58.58,0,0,1-.57-.11c-.11-.16-.14-.58-.05-.63.89-.52,1.8-1,2.49-1.34l1.75,1.87.33-.73Z" transform="translate(-144 -315.89)"/><path d="M263.6,436.66c0-.85-.91-1.71.66-1.83.33,0,.77-.61.9-1,.4-1.22.63-2.49,1-3.71.31-.94.82-1.76,1.83-1.78,1.35,1.5.21,2.79-.12,4.09-.08.31-.86.45-1.38.7a8.88,8.88,0,0,0-.1,1.1c0,1.05.06,2.11-1.58,1.67C264.57,435.81,264.17,436.28,263.6,436.66Z" transform="translate(-144 -315.89)"/><path d="M436,499a4.12,4.12,0,0,0-.53-3c-.64-1-.91-.67-1.66-.06-.24-.61-.68-1.17-.56-1.55s.83-.48,1.28-.72a4.77,4.77,0,0,0,.73-.42c.3-.24.58-.53,1.06-1l-.13.83h.11a3.5,3.5,0,0,0,1.06,2.47c.44.46-.18,2-.4,3C437,498.68,436.53,498.75,436,499Z" transform="translate(-144 -315.89)"/><path d="M176.74,502.57c-1.94-.27-6.19-1-7.85-.23-.12-1.67.19-1.89,1.77-1.26,0,0,.08.08.09.08,1.28-.84,2.54.07,3.8.1a8.08,8.08,0,0,1,2.42.94Z" transform="translate(-144 -315.89)"/><path d="M193.43,511.38c.09.35.12.85-.68,1a.84.84,0,0,0-.47.32,2.2,2.2,0,0,1-3.11.09c-.25-.31-.4-1.11-.23-1.26a2.39,2.39,0,0,1,1.45-.4C191.35,511.1,192.3,511.26,193.43,511.38Z" transform="translate(-144 -315.89)"/><path d="M252.94,415.59c-.22.93.56,1.17,1.12,1.41.31.14.84-.1,1.2-.3s.32-.49.47-.75l.43.29L255,419.16l-.51.08.22-.88a9.36,9.36,0,0,1-1.33.06c-.15-.88-1.73-1-1.15-2.2.13-.26.47-.4.72-.6Z" transform="translate(-144 -315.89)"/><path d="M243.69,416.59l-.77-.15a4.79,4.79,0,0,0-.92-.06c-.51.07-1,.22-1.52.28a1.4,1.4,0,0,1-.21-.58,14.65,14.65,0,0,1,1.36-.71l.16-.07c-.11-.32-.38-.68-.29-.91s.52-.46.85-.72l1.73,2.56Z" transform="translate(-144 -315.89)"/><path d="M262.07,405.67c-.18.51-.21.94-.36,1a39.6,39.6,0,0,1-5.07,1.28,3.78,3.78,0,0,1,3.05-1.7c.18,0,.35-.51.56-.54A13.44,13.44,0,0,1,262.07,405.67Z" transform="translate(-144 -315.89)"/><path d="M436.34,415.73c0-1.42.88-2.64,1.76-2.5.73.11,1,.64.85,1.31C438.76,415.71,438,416.08,436.34,415.73Z" transform="translate(-144 -315.89)"/><path d="M250,399.48c-.23.48-.28.85-.47.95a21.26,21.26,0,0,1-2.71,1.23c-.17.06-.53-.4-.8-.63.34-.38.61-.9,1-1.11a8.75,8.75,0,0,1,2.1-.61A2.39,2.39,0,0,1,250,399.48Z" transform="translate(-144 -315.89)"/><path d="M381.77,525.37h-4.18a1.47,1.47,0,0,1,1.6-1.58A2.42,2.42,0,0,1,381.77,525.37Z" transform="translate(-144 -315.89)"/><path d="M258.1,440.66l-1.62-.28-1.07.71L255.3,439l.34-.23.93.79.95-1.12.92,1.85Z" transform="translate(-144 -315.89)"/><path d="M161.14,489.57c-.33.78,0,1.16.74,1.37a1.5,1.5,0,0,1,.57.5c0,.05-.14.37-.17.36a3,3,0,0,1-.78-.27c-.79-.44-1.57-.88-2.33-1.36a5.09,5.09,0,0,1-.75-.72,3,3,0,0,1,1.12-.37A7.84,7.84,0,0,1,161.14,489.57Z" transform="translate(-144 -315.89)"/><path d="M261.41,418.94a3,3,0,0,1-.07-2.72,1.37,1.37,0,0,1,1.8-1L261.81,419Z" transform="translate(-144 -315.89)"/><path d="M386.4,517.05l-.69.53.63.29c-.59.34-1.08.85-1.62.9a6.87,6.87,0,0,1-2-.42c.12-.81.41-1.24,1.37-.9.36.12.88-.16,1.32-.31a7.94,7.94,0,0,0,.88-.43Z" transform="translate(-144 -315.89)"/><path d="M365.32,521.34l1.61-.13-1.37,3c-.63.22-.88-.55-1.11-1Z" transform="translate(-144 -315.89)"/><path d="M183.76,505.12c.27.33.53.66.81,1,.11.13.25.23.35.36.29.38.72.74.77,1.15a1.13,1.13,0,0,1-.66.93c-.39.05-.82-.31-1.29-.52,1.13-1,1.1-1-.05-1.82-.21-.14-.26-.51-.39-.77Z" transform="translate(-144 -315.89)"/><path d="M233.42,441.05c-.28.38-.54,1.07-.86,1.09a7.69,7.69,0,0,1-2.13-.34c.22-.34.38-.9.66-1a8.88,8.88,0,0,1,2,0Z" transform="translate(-144 -315.89)"/><path d="M393.19,517.66c.21,1-.82,2.35-1.44,2.2-1.16-.27-1-1.37-1.14-2.31a7.83,7.83,0,0,0,1.39,1c.2.1.61-.16.87-.34S393.08,517.85,393.19,517.66Z" transform="translate(-144 -315.89)"/><path d="M231.57,371.47c-1,.43-.86,1-.07,1.6l-.13.34c-.48,0-1.33.13-1.38,0a7.29,7.29,0,0,1-.17-1.83C230.41,371.7,230.77,370.18,231.57,371.47Z" transform="translate(-144 -315.89)"/><path d="M440.92,346.76c0-1,.7-1.94,1.4-1.8.36.07.95.66.9.82C442.85,346.83,442,346.9,440.92,346.76Z" transform="translate(-144 -315.89)"/><path d="M157.25,492.45l-.39,2.27-1.56-1,1.5-1.6Z" transform="translate(-144 -315.89)"/><path d="M178.38,506.85l2.28,1.24-1.91,1.07L178,507Z" transform="translate(-144 -315.89)"/><path d="M257.22,408.73c0,1.3-.42,1.51-2.26,1.27C255.1,408.77,255.38,408.6,257.22,408.73Z" transform="translate(-144 -315.89)"/><path d="M419.92,516.13l.31,1-2.22.61C417.79,516.51,418.37,516,419.92,516.13Z" transform="translate(-144 -315.89)"/><path d="M239.21,406.62c.51-.26.88-.62,1.14-.55s.86.66.8.78a5.09,5.09,0,0,1-1,1.09Z" transform="translate(-144 -315.89)"/><path d="M398.73,516.11h1.92l.49,1.09C399,517.37,398.71,517.26,398.73,516.11Z" transform="translate(-144 -315.89)"/><path d="M275.21,402.58a8.39,8.39,0,0,1-.44,1.6c-.06.13-.84.12-.91,0a1.54,1.54,0,0,1-.13-1.19c.18-.33.7-.47,1.08-.69Z" transform="translate(-144 -315.89)"/><path d="M272.58,404.46l-2.21-.18c.16-.49.19-1,.47-1.25a1.09,1.09,0,0,1,1.06.05A4.62,4.62,0,0,1,272.58,404.46Z" transform="translate(-144 -315.89)"/><path d="M375.84,525.37h-1.07c.27-1.87.56-2.14,1.81-1.53Z" transform="translate(-144 -315.89)"/><path d="M258.53,433.32l.69,2c-.41-.05-.83-.08-1.23-.15-.61-.1-.63-.58-.44-1S258.1,433.71,258.53,433.32Z" transform="translate(-144 -315.89)"/><path d="M265.94,414.82c.36-.67-.85-1.64.5-2.06.23-.08.59.24.88.37-.33.62-.67,1.24-1,1.86Z" transform="translate(-144 -315.89)"/><path d="M240.78,400.66a4,4,0,0,1-.51,1,5,5,0,0,1-1.21.67c-.31-.17-1.38,0-.81-1.19.83,0,1.79.57,2.24-.7Z" transform="translate(-144 -315.89)"/><path d="M447.43,420.35l1.49-2.21.3,0a6.34,6.34,0,0,1-.28,1.66c-.18.4-.66.65-1,1Z" transform="translate(-144 -315.89)"/><path d="M203.24,525.36h-2.93c.16-.37.28-.86.39-.86C201.57,524.51,202.54,524.28,203.24,525.36Z" transform="translate(-144 -315.89)"/><path d="M380.5,522.46l-1.57,1.12-.36-.15c0-.39-.07-1,.12-1.14a5.21,5.21,0,0,1,1.59-.38Z" transform="translate(-144 -315.89)"/><path d="M245.47,429.34v1.27l-1.78.4C243.36,429.37,244.73,429.91,245.47,429.34Z" transform="translate(-144 -315.89)"/><path d="M184.71,511.46H183.1a13.56,13.56,0,0,1-.61-1.28.69.69,0,0,1,.06-.52.48.48,0,0,1,.42,0C183.51,510.18,184,510.74,184.71,511.46Z" transform="translate(-144 -315.89)"/><path d="M267.88,410.3h1.55l.18.3-1.32,1.46-.33-.14Z" transform="translate(-144 -315.89)"/><path d="M264,410.22l1.16-1.5.37.09a4,4,0,0,1-.05,1.48c-.1.24-.72.25-1.1.37Z" transform="translate(-144 -315.89)"/><path d="M289.64,525.3a4.61,4.61,0,0,1,.24-.79c.82.1,1.65.25,2.47.39l-.06.4Z" transform="translate(-144 -315.89)"/><path d="M187.71,507.57l-.93,1.53c-.25-.28-.7-.56-.71-.86C186,507.42,186.62,507.33,187.71,507.57Z" transform="translate(-144 -315.89)"/><path d="M306.23,525.33h-2.09L304,525l1.55-.9Z" transform="translate(-144 -315.89)"/><path d="M227.83,523.62H225.7l.58-.85,0-.42,1.65.9Z" transform="translate(-144 -315.89)"/><path d="M299.58,524.26c.54-.24.84-.36,1.12-.52a5,5,0,0,0,.59-.44,2.86,2.86,0,0,1,.15.89,4.76,4.76,0,0,1-.45,1.07Z" transform="translate(-144 -315.89)"/><path d="M265,405.43v-1a6.45,6.45,0,0,1,1-.27,1.3,1.3,0,0,1,.73.15.57.57,0,0,1,.13.51,2.56,2.56,0,0,1-.79.4A9.24,9.24,0,0,1,265,405.43Z" transform="translate(-144 -315.89)"/><path d="M162.58,498.44l-.86-2.35C163.3,496.91,163.3,496.91,162.58,498.44Z" transform="translate(-144 -315.89)"/><path d="M270.32,407.8l.87.84-1,1-.34-1.54Z" transform="translate(-144 -315.89)"/><path d="M362.13,525.31h-2.41C360.73,524.17,361.37,524.18,362.13,525.31Z" transform="translate(-144 -315.89)"/><path d="M213.75,524.52c-.44,1.22-1.38.87-2.3.56l2.11-.93Z" transform="translate(-144 -315.89)"/><path d="M243.07,418.15l1.45-.75a3.58,3.58,0,0,1,.24.82,12.38,12.38,0,0,1-1.4.56Z" transform="translate(-144 -315.89)"/><path d="M195.2,522l-2.32-.85L193,521a15.12,15.12,0,0,0,1.51-.13C195.22,520.76,195.5,521,195.2,522Z" transform="translate(-144 -315.89)"/><path d="M241.07,409.81h-1.48l-.22-.25,1.15-1.12Z" transform="translate(-144 -315.89)"/><path d="M223.39,523.62c.41-.66.58-1.22.82-1.26s.8.26,1.2.42l0,.46Z" transform="translate(-144 -315.89)"/><path d="M267.58,406.6c1.33-1.4,1.43-1.38,2,.25Z" transform="translate(-144 -315.89)"/><path d="M369,525.34c-1.18.16-1.59-.26-1.53-1.26C368.57,523.71,368.59,524.61,369,525.34Z" transform="translate(-144 -315.89)"/><path d="M422.59,512.34l-1.33-1.5c1.69-.42,1.91-.21,1.72,1.11Z" transform="translate(-144 -315.89)"/><path d="M144.91,494.52c1.51-.49,1.94-.09,1.58,1.37Z" transform="translate(-144 -315.89)"/><path d="M235,372.37l.73-1.12,1,.47.07.34-1.68.63Z" transform="translate(-144 -315.89)"/><path d="M146.06,489.21c.73.07,1.84-.36,1.15,1.23C146.87,490,145.57,490.59,146.06,489.21Z" transform="translate(-144 -315.89)"/><path d="M207.1,522.87l-.16,1.4-1.37-1.11.15-.29Z" transform="translate(-144 -315.89)"/><path d="M302.19,525.31c.22-1.12.22-1.12,1.38-1C303.57,525.31,303.1,525.59,302.19,525.31Z" transform="translate(-144 -315.89)"/><path d="M444.18,495.33V497L443,495.85l.86-.81Z" transform="translate(-144 -315.89)"/><path d="M422.07,513.77c-.36.31-.72.64-1.11.92,0,0-.31-.27-.47-.42l1.16-1Z" transform="translate(-144 -315.89)"/><path d="M175.63,506.31l.27,1.4-.89.07.07-1.5Z" transform="translate(-144 -315.89)"/><path class="cls-1" d="M226.07,391.84c.48-1.91-1.73-.89-2.06-2.12h2.47a.58.58,0,0,0,.23,0c.49-.27,1-1,1.28.2a1.54,1.54,0,0,1-1.37,2C226.5,391.89,226.38,391.86,226.07,391.84Z" transform="translate(-144 -315.89)"/><path class="cls-1" d="M263.72,398.51c1.43.32,1.43.32,2.52,1.64l-1.76-.62a2.2,2.2,0,0,1-3.29.82Z" transform="translate(-144 -315.89)"/><path class="cls-1" d="M231.17,426.67c-.09-2.58,1.41-4.62,3.59-4.54a14.66,14.66,0,0,0-1.36,1.46,12.64,12.64,0,0,0-.7,1.43,3,3,0,0,1-.49.68C231.88,426,231.51,426.35,231.17,426.67Z" transform="translate(-144 -315.89)"/><path class="cls-1" d="M208.18,367.6a16.52,16.52,0,0,1-5.88-5.42A36.37,36.37,0,0,1,208.18,367.6Z" transform="translate(-144 -315.89)"/><path class="cls-1" d="M263,393.05c.37.39.91.72,1.06,1.18a4.48,4.48,0,0,0,2.48,2.77c.33.16.48.73.71,1.11l-.4.3c-.48-.55-.95-1.11-1.44-1.63-.77-.81-1.59-1.57-2.33-2.4a4.35,4.35,0,0,1-.53-1Z" transform="translate(-144 -315.89)"/><path class="cls-1" d="M233.66,420.4l-3.3,2.42c.32-2.13,1-2.86,2.92-2.85Z" transform="translate(-144 -315.89)"/><path class="cls-1" d="M241.91,398.15l-2.44-3.41c.68,0,1.15-.09,1.37.09C241.86,395.64,241.9,396.8,241.91,398.15Z" transform="translate(-144 -315.89)"/><path class="cls-1" d="M226.5,388.31l-2.05-.41h.29l-1.22-1.43-.58.45c.13-.16.35-.47.4-.45,1.1.53,2.19,1.1,3.28,1.66Z" transform="translate(-144 -315.89)"/><path class="cls-1" d="M237.47,405.18a6.69,6.69,0,0,1-1.25.12,8.1,8.1,0,0,1-1.31-.33,1.46,1.46,0,0,1,2.56.22Z" transform="translate(-144 -315.89)"/><path class="cls-1" d="M224.44,384.92l2.28,1.45-.19.37-2.42-1.26Z" transform="translate(-144 -315.89)"/><path class="cls-1" d="M210.3,387.74l2.95,1.44c-1.62.11-2.64-.42-2.93-1.47Z" transform="translate(-144 -315.89)"/><path class="cls-1" d="M242.09,443.69a8.62,8.62,0,0,1,1.24.18,4.3,4.3,0,0,1,.83.47l.48-1,2-.47c0,.54.46,1.24-.52,1.55-.78.24-1.54.55-2.32.8C243.4,445.35,243.39,445.33,242.09,443.69Z" transform="translate(-144 -315.89)"/></svg>