<?xml version="1.0" encoding="utf-8"?>
<!-- Generator: Adobe Illustrator 25.3.1, SVG Export Plug-In . SVG Version: 6.00 Build 0)  -->
<svg version="1.1" id="レイヤー_1" xmlns="http://www.w3.org/2000/svg" xmlns:xlink="http://www.w3.org/1999/xlink" x="0px"
	 y="0px" viewBox="0 0 50.8 50.4" style="enable-background:new 0 0 50.8 50.4;" xml:space="preserve">
<style type="text/css">
	.st0{fill:#707070;}
</style>
<path class="st0" d="M29.5,25.4c0-2-0.1-3.9,0-5.7s1.7-3,3.9-3.1c1.1,0,2.2,0,3.4,0v-6.4C34,9.6,31.1,9.5,28.2,10
	c-3.8,0.7-6.6,4-6.8,7.8c-0.1,2.4,0,4.9,0,7.5h-6.7v2.4c0,1.4,0,2.8,0,4.2c0,0.7,0.2,1,0.9,0.9c1.8,0,3.7,0,5.6,0v17.6
	C7.4,48.1-1.9,35.1,0.4,21.2C2.7,7.4,15.7-1.9,29.6,0.4s23.1,15.4,20.9,29.2c-1.8,10.7-10.2,19.1-20.9,20.9V32.9h5.9l1.2-7.5H29.5z"
	/>
</svg>
