<?xml version="1.0" encoding="utf-8"?>
<!-- Generator: Adobe Illustrator 25.3.1, SVG Export Plug-In . SVG Version: 6.00 Build 0)  -->
<svg version="1.1" id="レイヤー_1" xmlns="http://www.w3.org/2000/svg" xmlns:xlink="http://www.w3.org/1999/xlink" x="0px"
	 y="0px" viewBox="0 0 188.4 188.4" style="enable-background:new 0 0 188.4 188.4;" xml:space="preserve">
<style type="text/css">
	.st0{fill:#707070;}
</style>
<path class="st0" d="M188.3,94.7c0-14.3,0-28.5,0-42.8c-0.1-29-22.7-51.7-51.6-51.8C108.4,0,80,0,51.7,0.1C23.3,0,0.2,22.9,0.1,51.2
	c0,0.1,0,0.1,0,0.2C0,79.9,0,108.4,0.1,137c0,28.4,23.1,51.4,51.5,51.3c0,0,0.1,0,0.1,0c28.3,0.1,56.7,0.1,85.1,0
	c28.8-0.1,51.5-22.9,51.6-51.8C188.4,122.6,188.3,108.6,188.3,94.7z M167.4,139.5c-0.2,14.6-13.3,27.1-28,28
	c-7.6,0.5-15.2,0.3-22.9,0.4s-15.2,0-22.9,0v-0.3c-14.8,0-29.5,0.5-44.2-0.1c-15.3-0.6-28.2-13.2-28.4-28.5c-0.5-30-0.5-60,0-90
	c0.2-14.6,13.3-27.7,28-27.9c30.2-0.5,60.3-0.5,90.5,0c14.6,0.2,27.7,13.3,27.9,28C167.9,79.1,167.9,109.3,167.4,139.5z"/>
<path class="st0" d="M54,94c0-21.8,18.4-40,40.4-40s40,18.4,40,40.4c0,21.8-18.5,40.1-40.4,40S54,116,54,94z M94,74.7
	C83.5,75,75,83.5,74.8,94.1c0,10.5,9.2,19.7,19.7,19.5s19.6-9.4,19.3-19.9C113.3,83.2,104.6,74.8,94,74.7L94,74.7z"/>
<path class="st0" d="M139.9,35c7.8,0.1,13.5,6,13.5,13.9c0,7.5-6.6,14-13.9,13.8s-13.9-7-13.8-14.2C126,40.9,132.3,34.9,139.9,35z"
	/>
</svg>
