<?xml version="1.0" encoding="utf-8"?>
<!-- Generator: Adobe Illustrator 25.3.1, SVG Export Plug-In . SVG Version: 6.00 Build 0)  -->
<svg version="1.1" id="レイヤー_1" xmlns="http://www.w3.org/2000/svg" xmlns:xlink="http://www.w3.org/1999/xlink" x="0px"
	 y="0px" viewBox="0 0 26.9 26.9" style="enable-background:new 0 0 26.9 26.9;" xml:space="preserve">
<style type="text/css">
	.st0{fill:none;stroke:#FFFFFF;stroke-miterlimit:10;}
	.st1{fill:#707070;}
</style>
<path class="st0" d="M20.8,20"/>
<path class="st0" d="M29,20"/>
<path class="st1" d="M0.6,11.8c0.2,0,0.3,0,0.4,0c1.5,1.1,2.9,2.2,4.2,3.4c-0.1,0.4-0.5,0.7-0.5,1.2c0.5,1.1,1.6,1.1,2.6,1.4
	C7.9,18,8.6,18.1,9.2,18c0.1,0,0.2,0,0.2,0c1.3,0.8,2.7,0.4,4,0.5c0.5,0,1,0,1.6,0c0.3,0,0.7,0.2,1-0.2c0.1-0.1,0.3,0,0.5,0
	c0.3-0.1,0.6,0.5,1,0c0.1-0.2,0.8,0.1,1-0.1s0.7-0.1,1-0.4s0.7,0,1.1-0.2c0.7-0.2,1.4-0.6,1.9-1.2v-0.7l-1.2-1.2
	c0.3-0.4,0.8-0.4,1.2-0.7c1.1-0.9,2.3-1.4,3.4-2.2c0.2-0.2,0.6-0.1,0.8,0.1c0.1,0.1,0.1,0.2,0.1,0.4c0,1.3,0,2.5-0.2,3.8
	c-0.2,1.3-0.7,2.6-1.3,3.8c-1,2-2.5,3.7-4.3,4.8c-1.1,0.8-2.3,1.3-3.6,1.8c-0.6,0.2-1.2,0.3-1.8,0.4c-0.8,0.1-1.5,0.2-2.3,0.2
	c-2.5-0.1-4.9-0.7-7-1.9C6,24.8,5.5,24.4,5.2,24c-0.3-0.4-0.7-0.5-1-0.8c-0.3-0.2-0.5-0.5-0.8-0.8c-0.9-1.1-1.6-2.3-2.2-3.5
	c-0.3-0.6-0.5-1.2-0.7-1.9c-0.3-1-0.5-2.1-0.5-3.2C0,13.2,0.2,12.4,0.6,11.8z M22.6,17.4c0,0,0.1,0.1,0.1,0.1s0.4,0.2,0.3-0.1
	s-0.3-0.2,0,0.1c0.1,0.4,0.5,0.6,0.3,1.2c-0.1,0.5-0.5,0.8-0.9,1c-0.1,0-0.2,0.2-0.3,0.2c-0.7,0.5-1.4,0.9-2.2,1.2l1.6-2.9
	c-0.7-0.2-1.1,0.3-1.5,0.5c-1.9,0.5-3.9,0.8-5.9,0.9c-1.3,0.2-2.5-0.4-3.7-0.2c-0.5-0.3-1.2-0.1-1.7-0.3c-1-0.2-2-0.6-3-1.1
	c0.1,0.4,0.3,0.7,0.5,1c0.6,0.8,1.2,1.7,1.8,2.5c0.6,0.9,1.6,1.4,2.6,1.4c2.2,0,4.4,0.2,6.6-0.2c0.6-0.1,1.2-0.3,1.7-0.7
	c0.4-0.3,1-0.6,1.5-0.7c0.4-0.2,0.8-0.3,1.1-0.4c1-0.3,1.6-1.2,2.3-1.8v-1C23.7,17.9,23.6,17.4,22.6,17.4L22.6,17.4z"/>
<path class="st1" d="M15.6,13.2h-2.4v-2.9c0-0.6,0-1.1,0-1.7c0-2.4,0.4-4.7,0.2-7.1c0-0.6,0.3-1.1,0.8-1.4c0.9-0.3,1.7,0.2,2.6,0.2
	c0.4,0,0.5,0.4,0.8,0.6L15.6,13.2z"/>
<path class="st1" d="M18.2,13.8c-0.8-0.5-1.6-0.2-2.4-0.3c0.1-0.6,0.2-1.1,0.4-1.6c0.4-1.3,0.7-2.7,1.1-4s0.6-2.5,1-3.6
	c0.2-0.4,0-0.9,0.4-1.3c0-0.8,0.7-0.8,1.1-1.2c0.2-0.1,0.4,0,0.5,0.1c0.5,0.3,1,0.6,1.5,1c0.5,0.5,0.9,0.9,1.4,1.4
	C22.4,5.5,21.8,7,21,8.3s-1.5,2.9-2.3,4.3C18.6,13.1,18,13.1,18.2,13.8z"/>
<path class="st1" d="M13.1,13.3c-1-0.3-1.6,0.2-2.5,0.1c-0.2-1.2-0.6-2.3-0.8-3.6c-0.3-1.4-0.7-2.7-1-4.1S7.8,2.9,8,1.4
	c0.6-0.2,1.3-0.4,1.9-0.7c0.1-0.1,0.3-0.1,0.4-0.2c1.3,0,1.8,0.1,1.8,1.7s0.5,3.1,0.3,4.7c0.4,0.9,0.1,1.9,0.3,2.8
	c0.2,1,0.2,2.1,0.2,3.1C12.8,12.9,12.9,13,13.1,13.3z"/>
<path class="st1" d="M6.5,2.6l3.9,10.7c-0.7,0.4-1.5,0.3-2.2,0.6C8,14,7.8,13.8,7.7,13.6C7,12,6.1,10.4,5.3,8.7
	C4.7,7.7,4.1,6.6,3.6,5.5C3.3,4.7,3.3,4.4,3.9,4s1.3-0.8,1.9-1.2C6,2.6,6.2,2.7,6.5,2.6z"/>
<path class="st1" d="M18.5,13.6c0.9-1.3,1.7-2.5,2.6-3.8c0.6-0.9,1.2-1.8,2-2.6c0.5-0.5,0.5-1.2,1-1.7c0.4,0.1,0.6,0.3,0.8,0.7
	c0.5,1,1,2,1.4,3c0.1,0.3,0.1,0.6-0.2,0.8c-0.5,0.4-0.9,0.8-1.4,1.2c-0.4,0.4-0.8,0.8-1.3,1.1c-0.6,0.4-1.1,0.9-1.5,1.5
	c-0.4,0.4-0.8,0.7-1.5,0.4S19.2,13.9,18.5,13.6z"/>
<path class="st1" d="M7.7,13.8c-0.2,0.3-0.6,0.5-1,0.6c-0.2,0-0.4,0.1-0.6,0.2c-0.5,0.4-0.7,0.4-1-0.2c-0.1-0.1-0.2-0.3-0.3-0.4
	c-1.2-1-2-2.3-3.1-3.4c-0.9-0.9-1-2.2-0.3-3.2c0.2-0.4,0.5-1,1.2-1C3.4,7.7,4.2,9,5.1,10.2C5.9,11.4,6.7,12.7,7.7,13.8z"/>
</svg>
