<svg id="レイヤー_1" data-name="レイヤー 1" xmlns="http://www.w3.org/2000/svg" viewBox="0 0 687 1031"><defs><style>.cls-1{fill:#fff;}</style></defs><path class="cls-1" d="M641,936.89H-46v-1031H641Zm-389.09-678c-.92-9.83-1.65-20.61-3-31.32a128.86,128.86,0,0,0-4-17.91c-8.05-29.07-20.8-55.61-43.21-76.5C189.09,121.45,173.85,117,157,121.06c-12.74,3.06-22.47,11.34-29.92,21.91C106.39,172.39,98,205.73,97.05,241.2c-.14,5.21,1.44,10.44,1.83,15.69.57,7.58.06,15.3,1.27,22.75,2.39,14.82,6,29.61,16.57,40.92,8.22,8.83,17.61,16.64,26.93,24.35,9.75,8,19.89,16,21.16,29.51,2.22,23.67,4.48,47.41,5,71.16q1.22,55.2,0,110.45c-.76,34.28-2.91,68.53-4.7,102.78-1.18,22.59-2.92,45.15-4.18,67.73-1.44,25.74-2.68,51.5-3.9,77.25-.43,9,3.42,16.76,8.36,23.9,3.18,4.6,7.64,8,13.52,8.39,7.76.48,15.6,1.29,23.29.61,12.05-1.07,20.58-7.34,26-18.73,5.7-12,4.41-24.45,3.36-36.7-1.41-16.49-4.16-32.87-6.56-49.27-2.66-18.18-5.62-36.31-8.34-54.48q-3.93-26.26-7.62-52.57-3.78-26.82-7.39-53.65c-2.27-16.93-4.55-33.85-6.57-50.81-1.93-16.15-3.86-32.31-5.18-48.52-1.28-15.73-2.3-31.53-2.47-47.31-.16-14.13.75-28.3,1.67-42.42.79-12.15,3.58-23.3,14.24-31.51,9.18-7.08,17.49-15.37,25.78-23.54,10.76-10.6,18.45-23.14,20.43-38.39C250.76,279.23,251.09,269.56,251.91,258.92Zm129.3-36.06-1.68.15a88.68,88.68,0,0,0-1.55,9.64c-1.08,21.12-2.19,42.24-2.93,63.38-1,27.83,1.76,55.46,6.07,82.91,2.62,16.66,4.5,33.64,9.31,49.7,6.17,20.61,7.24,41.47,7.47,62.51.54,48.28.48,96.57-4.84,144.67-1.67,15.17-2.73,30.42-4.28,45.6-1.81,17.67-3.88,35.3-5.75,53s-4.06,35.27-5.33,53a302.12,302.12,0,0,0-.52,37.82c.81,14.88,11.71,27.44,25.94,30.13,7,1.33,14.52,1.14,21.7.52,16.08-1.4,25.48-9.35,29.08-25.14,4.57-20,2.31-40.38.62-60.55-1.35-16.19-3.79-32.27-5.47-48.43-1.89-18.16-3.52-36.34-5.16-54.52-1.69-18.71-3.72-37.39-4.75-56.14q-1.83-32.89-2.09-65.88-.24-35.7,1.12-71.4c.65-17.26,2.62-34.47,3.8-51.73,1.2-17.76,2.09-35.54,3.25-53.31,1.74-26.88,4.15-53.73,5.23-80.63.86-21.29,0-42.64.26-64,.11-7.13-4.25-10-9.6-12-1.39-.54-3.71.63-5.26,1.57-.53.31-.44,3.21.07,3.45,5.89,2.8,5.7,8.64,5.76,13.35.29,24,.64,48-.34,71.9-1,24.78-3.57,49.49-5.4,74.23-.85,11.46-1.36,23-2.44,34.38-.8,8.37-3.49,10.34-11.71,9.93a112.56,112.56,0,0,0-11.45-.42c-9,.46-14.57-3.69-16.19-12.72-1.73-9.66-3.74-19.29-4.9-29-3.42-28.76-6.74-57.54-5.72-86.61q1-27.17,1.16-54.36C384.72,232.67,384.36,227.28,381.21,222.86ZM263.75,263.22c0,12.13-1,23.73,4.23,34.62.91,1.88,2.29,4.12,4,4.9,8.53,3.81,12.37,12.19,18,18.61,6.76,7.68,8.27,17.63,8.11,28-.3,20.14.57,40.3.23,60.44-.32,19.47-1.39,38.94-2.4,58.4-.9,17.28-2,34.55-3.34,51.8-1.3,16.4-2.94,32.77-4.65,49.13-1.61,15.51-3.35,31-5.31,46.47-2.39,18.9-5.25,37.74-7.59,56.64-2.3,18.59-4.78,37.18-6.11,55.85a388.38,388.38,0,0,0-.68,47.27c.56,10.95,6.51,19.8,17.26,24.21,9.71,4,19.78,5.36,30.18,3.07s19.87-6.73,23.47-17.62a68.61,68.61,0,0,0,3.61-21.41c-.06-18.46-.8-36.94-1.87-55.37-.9-15.57-2.4-31.12-4.06-46.64-2.4-22.44-5.52-44.8-7.71-67.26q-3.66-37.47-6.13-75.06c-1.93-29.4-4-58.82-4.59-88.26-.5-27.27,1-54.57,1.55-81.86.25-11.81,4.22-22.09,12.51-30.57,5.34-5.45,10.61-11,16.24-16.15,12.05-11,7.64-25.28,9.25-39.64-16.22,7-31.85,5.32-47.18,4.61S279.82,269.59,263.75,263.22Zm.41-6.7c10.42,0,20-.1,29.56,0,6,.09,12,1,17.95.75,14.13-.48,28.25-1.45,42.38-2.11,3.23-.15,3.84-1.95,3.71-4.61-.69-14.62-1.36-29.25-2.09-43.88A23.91,23.91,0,0,0,355,203c-4.64,1.89-9,3.39-13,5.44a6,6,0,0,0-2.82,4.18c-.32,4.81,0,9.66,0,14.49,0,3.42-1.4,5.92-5.29,5.77-3.57-.14-4.77-2.55-4.81-5.75,0-4,0-8,0-12,0-2.68-.22-5.36-.39-8.87-3.37,1.94-5.72,4.46-7.89,4.31-5.3-.36-4.67,2.81-4.61,5.95,0,2.16.17,4.32.36,6.48.53,6-1.39,9.7-5.08,9.79s-5.36-2.78-5.37-9V208.34l-12.52,2v3.34c0,4.46.12,8.94-.14,13.39-.19,3.12-1.89,5.64-5.31,5.38s-5-3-5-6.35c.06-4.66.34-9.31.44-14,0-1.87-.15-3.75-.18-4.51l-16.49-3.49C265.93,221.38,265,239.18,264.16,256.52Zm118.46-84.41,1.95.3c.85-6.31,1.29-12.72,2.64-18.92,2.6-12,5.44-23.91,8.67-35.73,5-18.29,10.47-36.45,15.61-54.7a132.23,132.23,0,0,1,16-35.3c2.31-3.62,5.3-6.33,9.84-5.23,4.35,1.06,4.22,5.14,4.48,8.58.52,6.8,1.07,13.61,1.2,20.42.52,26.59-.06,53.22,5.26,79.52,1.5,7.4.65,14.92-3.77,21.65-.71,1.08-.35,3.51.42,4.77,2,3.25,4.45,6.2,6.8,9.38.19-2.34.55-4.66.53-7-.23-31.81-.31-63.62-.89-95.42-.24-13.62-1.51-27.23-2.39-40.83-.36-5.55-3.47-9.57-8.53-11.16-4.82-1.53-10.17-1.53-13.6,3.2C423,21,418.91,26.4,416.15,32.35,395.57,76.67,389.08,124.4,382.62,172.11Zm-99.49,26.66a18.88,18.88,0,0,0,.81-4c-.21-6.15-.92-12.29-.83-18.43.55-37.11,1.29-74.23,1.83-111.34,0-1.62-1.29-3.25-2-4.88-1,1.52-2.58,2.94-2.85,4.58-1,6.19-1.68,12.45-2.36,18.69-1.61,14.82-3.25,29.63-4.71,44.46-1.31,13.21-2.47,26.43-3.56,39.66-.72,8.75-1.19,17.52-1.79,26.41Zm70.72-11.15c0-1.93.1-3.6,0-5.25q-2.38-33.08-4.83-66.13c-1.26-16.54-2.56-33.07-4-49.59-.15-1.59-1.69-3.05-2.59-4.58-.79,1.66-2.23,3.3-2.27,5Q339.37,95.51,339,124q-.48,35.92-.72,71.87a5.43,5.43,0,0,0,1.6,3.84c.57.47,2.39-.4,3.56-.89s2.23-1.6,3.45-1.83C352.37,196,355.41,193.34,353.85,187.62ZM304.53,59.28l-2.13,0c-.8,1.73-2,3.4-2.3,5.2-.61,4.44-.9,8.93-1.07,13.41-.74,19.62-1.3,39.26-2.1,58.88-.43,10.64-1.28,21.26-1.81,31.9-.46,9.14-.86,18.28-1,27.43,0,1.37,1.3,3.74,2.38,4,7.31,1.69,9.59-.34,9.5-7.89,0-1.33,0-2.67,0-4q0-59.47-.06-118.94C305.93,65.9,305,62.59,304.53,59.28Zm19.7-.42-1.73,0c-.83,2.78-2.12,5.52-2.39,8.36-.62,6.62-.92,13.28-1.06,19.93-.43,20.32-.57,40.65-1.1,61-.41,15.8-1.18,31.59-1.91,47.38-.22,4.84,1.15,6,5.59,4.21a6.63,6.63,0,0,1,2.8-.75c4.64.4,4.69-2.51,4.38-5.79s-.72-6.29-.78-9.44c-.71-39.31-1.34-78.62-2.1-117.93C325.88,63.5,324.82,61.18,324.23,58.86Z" transform="translate(46 94.11)"/><path d="M251.91,258.92c-.82,10.64-1.15,20.31-2.38,29.87-2,15.25-9.67,27.79-20.43,38.39-8.29,8.17-16.6,16.46-25.78,23.54-10.66,8.21-13.45,19.36-14.24,31.51-.92,14.12-1.83,28.29-1.67,42.42.17,15.78,1.19,31.58,2.47,47.31,1.32,16.21,3.25,32.37,5.18,48.52,2,17,4.3,33.88,6.57,50.81q3.59,26.84,7.39,53.65,3.72,26.29,7.62,52.57c2.72,18.17,5.68,36.3,8.34,54.48,2.4,16.4,5.15,32.78,6.56,49.27,1.05,12.25,2.34,24.66-3.36,36.7-5.4,11.39-13.93,17.66-26,18.73-7.69.68-15.53-.13-23.29-.61-5.88-.36-10.34-3.79-13.52-8.39-4.94-7.14-8.79-14.88-8.36-23.9,1.22-25.75,2.46-51.51,3.9-77.25,1.26-22.58,3-45.14,4.18-67.73,1.79-34.25,3.94-68.5,4.7-102.78q1.23-55.2,0-110.45c-.53-23.75-2.79-47.49-5-71.16-1.27-13.54-11.41-21.46-21.16-29.51-9.32-7.71-18.71-15.52-26.93-24.35-10.54-11.31-14.18-26.1-16.57-40.92-1.21-7.45-.7-15.17-1.27-22.75-.39-5.25-2-10.48-1.83-15.69,1-35.47,9.34-68.81,30.07-98.23,7.45-10.57,17.18-18.85,29.92-21.91,16.81-4,32.05.39,44.65,12.13,22.41,20.89,35.16,47.43,43.21,76.5a128.86,128.86,0,0,1,4,17.91C250.26,238.31,251,249.09,251.91,258.92Zm-49.29,87.89c8.26-4.69,13.22-11.18,15.39-19,1.58-5.75,3.73-10,9.3-12.37a6.54,6.54,0,0,0,3-3.19c2.86-6.31,6.17-12.52,8.09-19.12,6.13-21.07,3-42.5,1.17-63.76-.67-7.65-3.5-15.13-5.55-22.63C227.3,182.19,216.28,160,198,142c-13.38-13.15-32.09-17-46.72-8.41a55.7,55.7,0,0,0-17.17,15.55c-18.22,26-26.4,55.33-27.69,87-.27,6.68-1.05,13,.31,19.74,1.93,9.56,2.12,19.47,4,29.05,1.46,7.41,5.11,14.4,6.48,21.82,1.21,6.53,3.56,12.2,8,16.75,8.52,8.64,17.4,16.91,26.18,25.28.69.65,1.77.9,3.63,1.8-1.43-3.33-2.68-5.53-3.28-7.9-.4-1.6.12-3.43.22-5.16,1.41.52,3.45.63,4.13,1.65,3,4.47,5.51,9.23,8.3,13.83,5.41,8.92,10.81,17.78,10.73,28.81,0,2,1.53,4,2.35,6.06,1.58-1.56,2.33-2.91,2.37-4.29.49-16.26,9.57-29.2,16.59-42.9.54-1.06,3.15-1.94,4.34-1.54s1.94,2.45,2.51,3.92C203.57,343.84,203,344.91,202.62,346.81Zm-20,149.39-2.15.13c-.21,2.74-.62,5.47-.61,8.21,0,10.64.48,21.3.17,31.93-.69,23.29-1.95,46.56-2.49,69.85-.12,4.95,1.86,9.94,2.78,14.94.26,1.41.77,3.17.2,4.29-5.23,10.39-3.08,21-1.47,31.69.2,1.34.24,3.33-.54,4.09-4.27,4.11-4.7,9.51-5.08,14.77-2.73,37.86-5.43,75.73-7.79,113.62-.6,9.6-.34,19.25,4,28.39,2.9,6.1,7.34,9.74,13.75,9.93a187.29,187.29,0,0,0,22.31-1.12c5.47-.49,9.58-3.6,12.52-8.2,4.41-6.89,5.46-14.69,5-22.54-.71-12.63-1.58-25.28-3.25-37.81-4.95-37.2-12.76-74-14.29-111.68-.27-6.76-2-13.46-3.07-20.2q-4.52-29.54-9-59.08-3.87-25.39-7.74-50.79C184.81,509.81,183.69,503,182.6,496.2Zm3.21-85c-1.06-3.62-1.62-7.48-3.3-10.79-2.56-5-8.09-4.82-10.93,0s.46,14.07,5.86,15.9A6.17,6.17,0,0,0,185.81,411.23Z" transform="translate(46 94.11)"/><path d="M381.21,222.86c3.15,4.42,3.51,9.81,3.48,14.91q-.18,27.18-1.16,54.36c-1,29.07,2.3,57.85,5.72,86.61,1.16,9.73,3.17,19.36,4.9,29,1.62,9,7.16,13.18,16.19,12.72a112.56,112.56,0,0,1,11.45.42c8.22.41,10.91-1.56,11.71-9.93,1.08-11.43,1.59-22.92,2.44-34.38,1.83-24.74,4.38-49.45,5.4-74.23,1-23.93.63-47.93.34-71.9-.06-4.71.13-10.55-5.76-13.35-.51-.24-.6-3.14-.07-3.45,1.55-.94,3.87-2.11,5.26-1.57,5.35,2.07,9.71,4.89,9.6,12-.3,21.32.6,42.67-.26,64-1.08,26.9-3.49,53.75-5.23,80.63-1.16,17.77-2.05,35.55-3.25,53.31-1.18,17.26-3.15,34.47-3.8,51.73q-1.34,35.67-1.12,71.4.21,33,2.09,65.88c1,18.75,3.06,37.43,4.75,56.14,1.64,18.18,3.27,36.36,5.16,54.52,1.68,16.16,4.12,32.24,5.47,48.43,1.69,20.17,4,40.5-.62,60.55-3.6,15.79-13,23.74-29.08,25.14-7.18.62-14.67.81-21.7-.52C388.89,852.59,378,840,377.18,825.15a302.12,302.12,0,0,1,.52-37.82c1.27-17.69,3.45-35.31,5.33-53s3.94-35.28,5.75-53c1.55-15.18,2.61-30.43,4.28-45.6,5.32-48.1,5.38-96.39,4.84-144.67-.23-21-1.3-41.9-7.47-62.51-4.81-16.06-6.69-33-9.31-49.7-4.31-27.45-7-55.08-6.07-82.91.74-21.14,1.85-42.26,2.93-63.38a88.68,88.68,0,0,1,1.55-9.64ZM420,821.1c1.22-.6,3.56-2.5,6.13-2.86,4.05-.58,8.25-.18,12.39-.11,6.55.12,8.32-1.45,8.47-8.1a155.09,155.09,0,0,0-.06-17c-2.07-23.39-4.72-46.73-6.61-70.13-4.1-50.62-8.2-101.23-11.56-151.9-1.29-19.41-.87-39-.64-58.44.2-17,1.25-34,1.9-50.93.27-7.26-.93-8.5-8-8.82-2.83-.13-5.64-.6-8.46-.74-5.9-.29-7.9,1.59-7.76,7.6.28,11.82.94,23.63,1,35.45.18,23.3.84,46.64-.12,69.9-1.1,26.77-3.3,53.52-5.84,80.2-3.84,40.11-8.5,80.14-12.56,120.24-1.26,12.41-1.78,24.9-2.46,37.37-.31,5.65,2.33,9.73,7.87,11.31,6.05,1.72,12.22,3,18.32,4.59C414.47,819.37,416.83,820.16,420,821.1Zm-1.92,22.76c10-2.22,18.73-3.83,27.24-6.33,1.88-.55,3.75-4.16,3.91-6.48.1-1.43-2.82-4-4.76-4.45-3.12-.72-6.56-.18-9.85-.07-16.9.54-34.16,3.07-48.44-9.72-2.78-2.48-4.56-.72-5.13,2.34-1.13,6,3.1,14.85,8.94,16.78C399.47,839.08,409.22,841.4,418.08,843.86Zm20.68-412.3c.25-.76.49-1.51.74-2.26-1.43-.87-2.86-2.49-4.29-2.5-12.44-.11-24.88-.21-37.3.29-5.38.21-6.9,3.84-3.82,8.25,1.73,2.48,4,5.05,6.68,6.33,10.86,5.26,22.2,4.5,33.45,1.29,1.62-.46,2.83-2.36,4.22-3.59l-.79-1.47c-2.09-.1-4.18-.25-6.27-.3-9.62-.25-19.25-.29-28.85-.82-2.31-.12-4.54-1.84-6.8-2.82.2-.8.4-1.6.59-2.4Z" transform="translate(46 94.11)"/><path d="M263.75,263.22c16.07,6.37,31.76,3.47,47.06,4.18s31,2.41,47.18-4.61c-1.61,14.36,2.8,28.61-9.25,39.64-5.63,5.15-10.9,10.7-16.24,16.15-8.29,8.48-12.26,18.76-12.51,30.57-.57,27.29-2.05,54.59-1.55,81.86.55,29.44,2.66,58.86,4.59,88.26q2.46,37.58,6.13,75.06c2.19,22.46,5.31,44.82,7.71,67.26,1.66,15.52,3.16,31.07,4.06,46.64,1.07,18.43,1.81,36.91,1.87,55.37A68.61,68.61,0,0,1,339.19,785c-3.6,10.89-13,15.3-23.47,17.62s-20.47.92-30.18-3.07c-10.75-4.41-16.7-13.26-17.26-24.21a388.38,388.38,0,0,1,.68-47.27c1.33-18.67,3.81-37.26,6.11-55.85,2.34-18.9,5.2-37.74,7.59-56.64,2-15.46,3.7-31,5.31-46.47,1.71-16.36,3.35-32.73,4.65-49.13,1.36-17.25,2.44-34.52,3.34-51.8,1-19.46,2.08-38.93,2.4-58.4.34-20.14-.53-40.3-.23-60.44.16-10.37-1.35-20.32-8.11-28-5.64-6.42-9.48-14.8-18-18.61-1.74-.78-3.12-3-4-4.9C262.71,287,263.76,275.35,263.75,263.22Zm45.36,179.45-1.6-.27a31.72,31.72,0,0,0-1.16,5c-.59,8.3-.84,16.63-1.58,24.91-3.28,36.77-6.7,73.53-10,110.3-.65,7.27-.83,14.6-1.74,21.83q-5.29,42.36-10.94,84.68c-3.42,25.94-6.46,51.89-5.91,78.16.29,13.57,7.56,24.57,19.73,26.28,7.07,1,14.57.28,21.7-.83s11.83-6.11,13.67-13.1a66.19,66.19,0,0,0,2.45-14.75C334.76,730.34,332,696,328,661.72c-2.57-22.42-5.3-44.83-7.53-67.28-1.7-17-2.67-34.16-4.06-51.23-1.41-17.25-3.1-34.48-4.36-51.73C310.87,475.22,310.07,458.94,309.11,442.67Zm-.66-95.74,1.49.16c.67-2,1.39-3.94,2-5.94,1.29-4.26,2-8.79,3.85-12.77,5.78-12.29,15.75-21.28,25.08-30.77,4.81-4.9,7.62-10.63,6.58-17.86-.76-5.23-2.65-7-7.81-6.68-9.29.6-18.58,1.55-27.88,1.56-10.09,0-20.18-.92-30.27-1.38-6.25-.28-8.29,2.45-8.1,8.71.32,10.64,7.08,17.19,14.05,23.71a63.13,63.13,0,0,1,19.88,36.59C307.57,343.84,308.06,345.37,308.45,346.93Zm9.39,12.7c-4.55.54-8,.18-10.68,1.44-5.19,2.43-7.74,12.75-4.73,17.64.64,1,2.84,2.21,3.58,1.84,3.07-1.52,7.1-3,8.44-5.65C316.49,370.83,316.6,365.8,317.84,359.63Z" transform="translate(46 94.11)"/><path d="M264.16,256.52c.88-17.34,1.77-35.14,2.64-52.36l16.49,3.49c0,.76.22,2.64.18,4.51-.1,4.66-.38,9.31-.44,14,0,3.37,1.43,6.08,5,6.35s5.12-2.26,5.31-5.38c.26-4.45.11-8.93.14-13.39v-3.34l12.52-2v15.43c0,6.26,1.71,9.12,5.37,9S317,229,316.45,223c-.19-2.16-.33-4.32-.36-6.48-.06-3.14-.69-6.31,4.61-5.95,2.17.15,4.52-2.37,7.89-4.31.17,3.51.35,6.19.39,8.87.07,4,0,8,0,12,0,3.2,1.24,5.61,4.81,5.75,3.89.15,5.26-2.35,5.29-5.77.05-4.83-.29-9.68,0-14.49a6,6,0,0,1,2.82-4.18c4-2,8.36-3.55,13-5.44a23.91,23.91,0,0,1,.71,3.7c.73,14.63,1.4,29.26,2.09,43.88.13,2.66-.48,4.46-3.71,4.61-14.13.66-28.25,1.63-42.38,2.11-6,.21-12-.66-17.95-.75C284.15,256.42,274.58,256.52,264.16,256.52Zm46.94-6.35c7.73-.53,17.52-1.19,27.3-1.89a26.56,26.56,0,0,0,5.44-.69c3.08-.9,4.46-6,2.8-9.87-1.5-3.45-3.68-1.76-6.18-1.24a63.3,63.3,0,0,1-12.1.84c-3.87,0-7.73-.39-11.61-.54s-8.26.48-12.05-.54-6.88-1.46-10.49.32a11.19,11.19,0,0,1-11.42-.43c-6.22-3.83-7.13-3.27-8,4.15-.12,1.16-.19,2.32-.24,3.49-.13,3.15,1.58,4.53,4.55,4.68Z" transform="translate(46 94.11)"/><path d="M382.62,172.11c6.46-47.71,12.95-95.44,33.53-139.76,2.76-6,6.82-11.35,10.7-16.69,3.43-4.73,8.78-4.73,13.6-3.2,5.06,1.59,8.17,5.61,8.53,11.16.88,13.6,2.15,27.21,2.39,40.83.58,31.8.66,63.61.89,95.42,0,2.32-.34,4.64-.53,7-2.35-3.18-4.83-6.13-6.8-9.38-.77-1.26-1.13-3.69-.42-4.77,4.42-6.73,5.27-14.25,3.77-21.65-5.32-26.3-4.74-52.93-5.26-79.52-.13-6.81-.68-13.62-1.2-20.42-.26-3.44-.13-7.52-4.48-8.58-4.54-1.1-7.53,1.61-9.84,5.23a132.23,132.23,0,0,0-16,35.3c-5.14,18.25-10.61,36.41-15.61,54.7-3.23,11.82-6.07,23.76-8.67,35.73-1.35,6.2-1.79,12.61-2.64,18.92Z" transform="translate(46 94.11)"/><path d="M283.13,198.77l-15.45-4.85c.6-8.89,1.07-17.66,1.79-26.41,1.09-13.23,2.25-26.45,3.56-39.66,1.46-14.83,3.1-29.64,4.71-44.46.68-6.24,1.34-12.5,2.36-18.69.27-1.64,1.87-3.06,2.85-4.58.7,1.63,2,3.26,2,4.88-.54,37.11-1.28,74.23-1.83,111.34-.09,6.14.62,12.28.83,18.43A18.88,18.88,0,0,1,283.13,198.77Z" transform="translate(46 94.11)"/><path d="M353.85,187.62c1.56,5.72-1.48,8.33-6.93,9.34-1.22.23-2.25,1.34-3.45,1.83s-3,1.36-3.56.89a5.43,5.43,0,0,1-1.6-3.84q.24-35.94.72-71.87.38-28.47,1.07-56.92c0-1.68,1.48-3.32,2.27-5,.9,1.53,2.44,3,2.59,4.58,1.48,16.52,2.78,33.05,4,49.59q2.49,33.06,4.83,66.13C354,184,353.85,185.69,353.85,187.62Z" transform="translate(46 94.11)"/><path d="M304.53,59.28c.49,3.31,1.4,6.62,1.41,9.93q.15,59.46.06,118.94c0,1.33,0,2.67,0,4,.09,7.55-2.19,9.58-9.5,7.89-1.08-.24-2.4-2.61-2.38-4,.14-9.15.54-18.29,1-27.43.53-10.64,1.38-21.26,1.81-31.9.8-19.62,1.36-39.26,2.1-58.88.17-4.48.46-9,1.07-13.41.25-1.8,1.5-3.47,2.3-5.2Z" transform="translate(46 94.11)"/><path d="M324.23,58.86c.59,2.32,1.65,4.64,1.7,7,.76,39.31,1.39,78.62,2.1,117.93.06,3.15.49,6.3.78,9.44s.26,6.19-4.38,5.79a6.63,6.63,0,0,0-2.8.75c-4.44,1.79-5.81.63-5.59-4.21.73-15.79,1.5-31.58,1.91-47.38.53-20.32.67-40.65,1.1-61,.14-6.65.44-13.31,1.06-19.93.27-2.84,1.56-5.58,2.39-8.36Z" transform="translate(46 94.11)"/><path class="cls-1" d="M202.62,346.81c.38-1.9.95-3,.67-3.71-.57-1.47-1.34-3.52-2.51-3.92s-3.8.48-4.34,1.54c-7,13.7-16.1,26.64-16.59,42.9,0,1.38-.79,2.73-2.37,4.29-.82-2-2.36-4.05-2.35-6.06.08-11-5.32-19.89-10.73-28.81-2.79-4.6-5.32-9.36-8.3-13.83-.68-1-2.72-1.13-4.13-1.65-.1,1.73-.62,3.56-.22,5.16.6,2.37,1.85,4.57,3.28,7.9-1.86-.9-2.94-1.15-3.63-1.8-8.78-8.37-17.66-16.64-26.18-25.28-4.48-4.55-6.83-10.22-8-16.75-1.37-7.42-5-14.41-6.48-21.82-1.9-9.58-2.09-19.49-4-29.05-1.36-6.74-.58-13.06-.31-19.74,1.29-31.7,9.47-61,27.69-87a55.7,55.7,0,0,1,17.17-15.55c14.63-8.55,33.34-4.74,46.72,8.41,18.33,18,29.35,40.18,36.08,64.69,2.05,7.5,4.88,15,5.55,22.63,1.86,21.26,5,42.69-1.17,63.76-1.92,6.6-5.23,12.81-8.09,19.12a6.54,6.54,0,0,1-3,3.19c-5.57,2.38-7.72,6.62-9.3,12.37C215.84,335.63,210.88,342.12,202.62,346.81Zm11.23-112.5c-4.3-2.26-7.3-4.21-10.57-5.49-21.35-8.42-42.88-8.49-64.34-.55A103.64,103.64,0,0,0,123.35,236c-1.22.71-1.39,3.23-2,4.91,1.46.34,3.08,1.26,4.35.92q16.68-4.51,33.26-9.43c12.24-3.65,24-.6,35.54,2.87C200.67,237.14,206.2,238.08,213.85,234.31Zm3.64,18.35c-4.86-5-11.26-3.83-17.06-5.19a109.81,109.81,0,0,0-56.85,1.31c-2.9.84-5.45,2.88-8.17,4.34-3.75,2-7.43,4.14-11.29,5.88-2.78,1.25-3.54,2.61-1.41,5.57,3.18-1.79,6.23-3.4,9.18-5.18,4.13-2.49,8.1-5.18,13.29-2.55,1,.51,2.65.11,3.88-.25,18-5.34,35.94-4.94,54-.32a13.92,13.92,0,0,0,4.42.05c2.34-.19,4.67-.53,8.06-.94ZM204.3,308.1c-3.58-7.37-8.58-9.27-15-9.3-16.92-.08-33.83-.45-50.74-.7a3.75,3.75,0,0,0-1.95.21c-1.18.78-2.86,1.64-3.1,2.74a4.09,4.09,0,0,0,1.9,3.46,18.88,18.88,0,0,0,7.54,1.87c9.9-.17,19.79-1,29.69-1.07,7.93,0,15.87.71,23.79,1.27A71.81,71.81,0,0,1,204.3,308.1Zm-56.88,27.15c1.21-4.32,2.24-8,3.46-12.39l-16.1-.93c-.17.64-.34,1.28-.52,1.92Zm32.43-12.05c4.68,2.31,8.71,4.4,12.86,6.25a4.46,4.46,0,0,0,3.14-.39,2.18,2.18,0,0,0,.38-2.07c-1.81-2-3.59-5-5.82-5.47C187.14,320.89,183,319.45,179.85,323.2Zm-24.52-2.46c0,.77,0,1.53.08,2.3,3.62.49,7.24,1.19,10.87,1.32,1,0,2.06-1.62,3.1-2.5-1-.86-2-2.47-3-2.43C162.69,319.58,159,320.26,155.33,320.74Z" transform="translate(46 94.11)"/><path class="cls-1" d="M182.6,496.2c1.09,6.81,2.21,13.61,3.25,20.42q3.9,25.39,7.74,50.79,4.51,29.54,9,59.08c1,6.74,2.8,13.44,3.07,20.2,1.53,37.66,9.34,74.48,14.29,111.68,1.67,12.53,2.54,25.18,3.25,37.81.44,7.85-.61,15.65-5,22.54-2.94,4.6-7,7.71-12.52,8.2A187.29,187.29,0,0,1,183.37,828c-6.41-.19-10.85-3.83-13.75-9.93-4.34-9.14-4.6-18.79-4-28.39,2.36-37.89,5.06-75.76,7.79-113.62.38-5.26.81-10.66,5.08-14.77.78-.76.74-2.75.54-4.09-1.61-10.66-3.76-21.3,1.47-31.69.57-1.12.06-2.88-.2-4.29-.92-5-2.9-10-2.78-14.94.54-23.29,1.8-46.56,2.49-69.85.31-10.63-.16-21.29-.17-31.93,0-2.74.4-5.47.61-8.21Z" transform="translate(46 94.11)"/><path class="cls-1" d="M185.81,411.23a6.17,6.17,0,0,1-8.37,5.15c-5.4-1.83-8.75-10.94-5.86-15.9s8.37-5.08,10.93,0C184.19,403.75,184.75,407.61,185.81,411.23Z" transform="translate(46 94.11)"/><path class="cls-1" d="M420,821.1c-3.17-.94-5.53-1.73-7.93-2.35-6.1-1.55-12.27-2.87-18.32-4.59-5.54-1.58-8.18-5.66-7.87-11.31.68-12.47,1.2-25,2.46-37.37,4.06-40.1,8.72-80.13,12.56-120.24,2.54-26.68,4.74-53.43,5.84-80.2,1-23.26.3-46.6.12-69.9-.1-11.82-.76-23.63-1-35.45-.14-6,1.86-7.89,7.76-7.6,2.82.14,5.63.61,8.46.74,7,.32,8.25,1.56,8,8.82-.65,17-1.7,34-1.9,50.93-.23,19.48-.65,39,.64,58.44,3.36,50.67,7.46,101.28,11.56,151.9,1.89,23.4,4.54,46.74,6.61,70.13a155.09,155.09,0,0,1,.06,17c-.15,6.65-1.92,8.22-8.47,8.1-4.14-.07-8.34-.47-12.39.11C423.56,818.6,421.22,820.5,420,821.1Z" transform="translate(46 94.11)"/><path class="cls-1" d="M418.08,843.86c-8.86-2.46-18.61-4.78-28.09-7.93-5.84-1.93-10.07-10.78-8.94-16.78.57-3.06,2.35-4.82,5.13-2.34,14.28,12.79,31.54,10.26,48.44,9.72,3.29-.11,6.73-.65,9.85.07,1.94.45,4.86,3,4.76,4.45-.16,2.32-2,5.93-3.91,6.48C436.81,840,428,841.64,418.08,843.86Z" transform="translate(46 94.11)"/><path class="cls-1" d="M438.76,431.56H396.32c-.19.8-.39,1.6-.59,2.4,2.26,1,4.49,2.7,6.8,2.82,9.6.53,19.23.57,28.85.82,2.09,0,4.18.2,6.27.3l.79,1.47c-1.39,1.23-2.6,3.13-4.22,3.59-11.25,3.21-22.59,4-33.45-1.29-2.65-1.28-4.95-3.85-6.68-6.33-3.08-4.41-1.56-8,3.82-8.25,12.42-.5,24.86-.4,37.3-.29,1.43,0,2.86,1.63,4.29,2.5C439.25,430.05,439,430.8,438.76,431.56Z" transform="translate(46 94.11)"/><path class="cls-1" d="M309.11,442.67c1,16.27,1.76,32.55,2.95,48.81,1.26,17.25,2.95,34.48,4.36,51.73,1.39,17.07,2.36,34.19,4.06,51.23,2.23,22.45,5,44.86,7.53,67.28,3.94,34.28,6.75,68.62,5.69,103.16a66.19,66.19,0,0,1-2.45,14.75c-1.84,7-6.55,12-13.67,13.1s-14.63,1.82-21.7.83c-12.17-1.71-19.44-12.71-19.73-26.28-.55-26.27,2.49-52.22,5.91-78.16q5.58-42.33,10.94-84.68c.91-7.23,1.09-14.56,1.74-21.83,3.33-36.77,6.75-73.53,10-110.3.74-8.28,1-16.61,1.58-24.91a31.72,31.72,0,0,1,1.16-5Z" transform="translate(46 94.11)"/><path class="cls-1" d="M308.45,346.93c-.39-1.56-.88-3.09-1.14-4.67a63.13,63.13,0,0,0-19.88-36.59c-7-6.52-13.73-13.07-14.05-23.71-.19-6.26,1.85-9,8.1-8.71,10.09.46,20.18,1.39,30.27,1.38,9.3,0,18.59-1,27.88-1.56,5.16-.33,7.05,1.45,7.81,6.68,1,7.23-1.77,13-6.58,17.86-9.33,9.49-19.3,18.48-25.08,30.77-1.87,4-2.56,8.51-3.85,12.77-.6,2-1.32,4-2,5.94Z" transform="translate(46 94.11)"/><path class="cls-1" d="M317.84,359.63c-1.24,6.17-1.35,11.2-3.39,15.27-1.34,2.66-5.37,4.13-8.44,5.65-.74.37-2.94-.81-3.58-1.84-3-4.89-.46-15.21,4.73-17.64C309.85,359.81,313.29,360.17,317.84,359.63Z" transform="translate(46 94.11)"/><path class="cls-1" d="M311.1,250.17l-32-1.72c-3-.15-4.68-1.53-4.55-4.68,0-1.17.12-2.33.24-3.49.82-7.42,1.73-8,8-4.15a11.19,11.19,0,0,0,11.42.43c3.61-1.78,6.74-1.34,10.49-.32s8,.38,12.05.54,7.74.57,11.61.54a63.3,63.3,0,0,0,12.1-.84c2.5-.52,4.68-2.21,6.18,1.24,1.66,3.83.28,9-2.8,9.87a26.56,26.56,0,0,1-5.44.69C328.62,249,318.83,249.64,311.1,250.17Z" transform="translate(46 94.11)"/><path d="M217.49,252.66l-2,2.72c-3.39.41-5.72.75-8.06.94a13.92,13.92,0,0,1-4.42-.05c-18-4.62-36-5-54,.32-1.23.36-2.87.76-3.88.25-5.19-2.63-9.16.06-13.29,2.55-2.95,1.78-6,3.39-9.18,5.18-2.13-3-1.37-4.32,1.41-5.57,3.86-1.74,7.54-3.89,11.29-5.88,2.72-1.46,5.27-3.5,8.17-4.34a109.81,109.81,0,0,1,56.85-1.31C206.23,248.83,212.63,247.68,217.49,252.66Z" transform="translate(46 94.11)"/><path d="M204.3,308.1a71.81,71.81,0,0,0-7.83-1.52c-7.92-.56-15.86-1.29-23.79-1.27-9.9,0-19.79.9-29.69,1.07a18.88,18.88,0,0,1-7.54-1.87,4.09,4.09,0,0,1-1.9-3.46c.24-1.1,1.92-2,3.1-2.74a3.75,3.75,0,0,1,1.95-.21c16.91.25,33.82.62,50.74.7C195.72,298.83,200.72,300.73,204.3,308.1Z" transform="translate(46 94.11)"/><path d="M147.42,335.25l-13.16-11.4c.18-.64.35-1.28.52-1.92l16.1.93C149.66,327.22,148.63,330.93,147.42,335.25Z" transform="translate(46 94.11)"/><path d="M179.85,323.2c3.1-3.75,7.29-2.31,10.56-1.68,2.23.43,4,3.46,5.82,5.47a2.18,2.18,0,0,1-.38,2.07,4.46,4.46,0,0,1-3.14.39C188.56,327.6,184.53,325.51,179.85,323.2Z" transform="translate(46 94.11)"/><path d="M155.33,320.74c3.68-.48,7.36-1.16,11.06-1.31,1,0,2,1.57,3,2.43-1,.88-2.1,2.54-3.1,2.5-3.63-.13-7.25-.83-10.87-1.32C155.38,322.27,155.36,321.51,155.33,320.74Z" transform="translate(46 94.11)"/></svg>