<svg id="レイヤー_1" data-name="レイヤー 1" xmlns="http://www.w3.org/2000/svg" viewBox="0 0 428 428"><defs><style>.cls-1{fill:#fff;}</style></defs><path class="cls-1" d="M98,220.89H526v428H98ZM316.71,559.6a2.58,2.58,0,0,0-.26.77,4.9,4.9,0,0,0,.12,2c.13.29,1.19.56,1.39.37a2.75,2.75,0,0,0,.92-1.76,24.77,24.77,0,0,0-.37-4.79c-.16-.88-.59-2.17-1.24-2.42-2.16-.84-2.72-2.09-1.31-4.57-2.18,1-2.49.44-2.54-1.29,0-1.22-1-2.5-1.77-3.6-.9-1.28-2.17-2.31-3-3.6-1.72-2.53-4.67-5.37-7.93-4.55l1.71,2.11c.11,1.37-.11,2.75.31,3,.88.49,2.1.38,3.49.56a36.11,36.11,0,0,1,2.55,5,42.55,42.55,0,0,1,1.24,6l-.58.33-3.16-2.07c-1.31,2-1.94,4-.52,5.94s3.1,3,5.55,2.32l-.31-3.86c1.49,1.13,2.3,1.77,3.14,2.37S315.66,558.9,316.71,559.6Zm91.39-3.08a6,6,0,0,0-7.09-3.64c-1.39.35-2,.42-2.39-1.21a2.33,2.33,0,0,0-1.91-1.28c-.51,0-1.09,1.09-1.38,1.8a14,14,0,0,0-.5,2.74c-1.81-1.1-2.34-.39-2.62,1.15-.44,2.56.64,4.54,3.23,4.93.66.1,1.48-1,2.74-1.83l6,5.47.56-.28c-.59-1.77-1.2-3.53-1.75-5.31-.49-1.57-.56-2.79,1.79-2.32A13.46,13.46,0,0,0,408.1,556.52ZM291.32,536.06l-1.27.27c.11,1,.18,1.93.33,2.89.31,1.89.74,3.76,1,5.66s-1,2.61-2.66,2.54-2,.83-1.59,2.14c.59,2,1.05,3.73,4.13,3.35,2.77-.35,3,.17,2-2.37-.71-1.78.17-2.08,1.48-2,.85.06,1.65.65,2.51.8a17.87,17.87,0,0,0,4,.38c1.31-.07,1.8-1.11.74-1.93a28.34,28.34,0,0,0-4.48-2.42c-.52-.27-1.22-.35-1.59-.74a18.17,18.17,0,0,1-1.63-2.38l.19,0Zm-20.74,82.78-.42.49-4.24-2.51c-1.15,4.28,3.4,3.18,4.25,5.38l6.05-1.75c-1-.78-2.34-1.4-3-2.46s-.81-2.75-1.33-4.08c-.75-1.92-1.2-4.25-2.58-5.55-2-1.9-4.75-3.05-7.28-4.58-.7,2.92,1.32,4.2,2.59,5.33-.54.9-1.5,1.92-1.3,2.27a30.5,30.5,0,0,0,3.15,3.87l1.22-2.91Zm-44-60.65c2.69-2.49,1.27-6.1,3.28-9.45l1.64,3.38,1.14-.71c-.29-1-.25-2.59-.93-3-1.31-.85-3-1.13-3.41-3a9.3,9.3,0,0,0-2.17,0c.56.78.8,1.09,1,1.41.67,1-.41,3.61-1.61,3.39l-.41-1.79-1.37.28-.63-2.95h-3.53c.22,2.22,3.93,2.34,3,5.31l-2.46-.63-.32,5.32c.51,1.15.81,1.91,1.18,2.63s.59,1.47,1.09,1.66,1.29-.3,2-.5l1.45,1.37c.86-3.46-2.81-3-3.8-4.93l1.7-.55.38-2.8,1.06-.13Zm181.56-75.13c.11.86,0,1.7.31,2.08a37.2,37.2,0,0,0,3.33,2.92c.57-.94,1.2-1.85,1.71-2.82a11.83,11.83,0,0,0,.63-2l.86.94,1.43,2.58c1.31-3.34,2.34-6,3.48-8.9-.8.07-1.21,0-1.42.14-1.75,1.33-2.65,1.05-3-1.25-.1-.63-1.15-1.39-1.9-1.57a40.3,40.3,0,0,0-5.49-.77,6.68,6.68,0,0,0-1.85.46c2.73,2,5.39,3.42,6.42,6.8Zm-74,89.27,2.25-.6c1,1.94,2.33,3.2,4.73,2.65l.4-2.3c2.56,1.26,4.72,3.1,7.67,2.26-.72-2.94-5.31-2.75-4.45-6.63-1.9.48-2.54-.31-3.05-1.93a58.56,58.56,0,0,0-3-6.63l-.3.14c.58,2.74,1.17,5.48,1.77,8.28H337.9c-1-1.06-1.58-2.21-2.4-2.41s-1.63.81-2.71,1.42c1.62,1.17,4,1.75,1.44,3.79C333.94,570.6,334.19,571.53,334.19,572.33Zm-53.28-38.75c3.14,4.91,6.29,6.39,7.82,4.16-1.89-2.88-5.63-4.54-5.4-8.55-3.7-1-3.51-5.35-6.52-7-1,3.37.45,6.06,2,8.48-.81.18-2.09.25-2.12.49a9.26,9.26,0,0,0,0,4.13c.54,1.57,2,2.13,3.78,1.68C280.66,536,280.76,535.08,280.91,533.58Zm228.31-54a13.8,13.8,0,0,0,1.47,1c1.16.53,2.56,1.68,3.47,1.39,2.28-.74,3.77-.31,5.16,1.53.27.37,1.19.24,1.82.34l.42-.84a40.6,40.6,0,0,0-5.06-3.66c-1.93-1-3.88-1.67-1.33-4.41H511.8c.7-1.78,1.31-3.33,1.91-4.87l-1.1-.56c-1.8,2.3-3.6,4.6-5.58,7.15-.31.08-1.75.05-2,.61-.88,1.72,1.66,5.14,3.84,5.33ZM491.86,489c.86,2.09,1.44,3.68,2.22,5.17a2.75,2.75,0,0,0,1.9-.41c.45-.37.53-1.19.84-2a22.53,22.53,0,0,0,10.82,4.46,17.84,17.84,0,0,0-3.82-4.46c-2.44-2-2.5-2-1.86-4.8l-2.74.16a18.3,18.3,0,0,0,.5-3,6.15,6.15,0,0,0-.64-1.91c-.61.39-1.5.64-1.77,1.2-.9,1.89-1.57,3.89-2.34,5.86Zm-59.64,17.62c1.13.11,2.47-.09,3.43.42a13.39,13.39,0,0,1,3.18,2.9c.31.33.12,1.11.43,1.45a1.48,1.48,0,0,0,1.27-.1,3,3,0,0,0,.06-2c-1.11-2.1-2.39-4.12-3.75-6.41l1.09-2.74-3.09.6a4.25,4.25,0,0,0-.26-1.57,16.5,16.5,0,0,0-1.61-1.86,9.41,9.41,0,0,0-1.63,1.85,6.71,6.71,0,0,0-.64,2.55c-.1,1.48-.39,2.37-2.2,1.68-.32-.12-1.53.87-1.5,1.29a4.74,4.74,0,0,0,1.08,2.82,5.54,5.54,0,0,0,2.9,1.32C431.22,508.87,431.73,507.51,432.22,506.59ZM365.88,607.13c-.38,2.33-.6,4.45,1.95,5.22,1.75.53,3.46.34,3.57-2.53a32.65,32.65,0,0,1,2.61,5.07,2.59,2.59,0,0,0,.71,1.1c.16.12.95-.24.95-.38-.07-2.43-.1-4.87-.4-7.28a5.23,5.23,0,0,0-1.11-2c-1.07-.51-2.16-.68-2.57-1.3a4.44,4.44,0,0,0-7.24.18l4.21,1.57-.26.73Zm-.73-147.81-.62.4c.92,3,2.11,5.9,4.51,7.66-.85.7-2.13,1.29-2.1,1.81a3.38,3.38,0,0,0,3.25,3.3c3.28.32.28-2.55,1.52-3a54.62,54.62,0,0,0,7.79,1.74c.53.08,1.16-.58,1.74-.9-.42-.42-.76-1-1.27-1.23-1.31-.59-2.75-.89-4-1.54a32.08,32.08,0,0,1-3.61-2.48c-1.61.9-2.06-1.38-3.22-2.38C367.8,461.58,366.47,460.45,365.15,459.32Zm-154.25,93c-6.25-3.32-10-8.07-10.92-15l-.76.31v7.5c-1.85.2-2.44,1.4-2,4.23.39,2.31,2.12,3.23,4.82,2.47l-.9-3.46C203.89,551,206.21,553.87,210.9,552.35Zm158.16,4.92c-1.39-.72-3.1-1.67-4.87-2.49a6.61,6.61,0,0,0-1.92-.24c.05.74-.14,1.62.2,2.19a24.07,24.07,0,0,0,2.54,3c-.81.12-1.19.17-1.57.24s-.75.16-1.95.42l3.33,4.45,2-3.26c2.36,1.88,4.07,4.7,8,4.4C372.8,562.9,371,560.18,369.06,557.27Zm-112.93-32c.81-.29,1.95-1.23.89-2.61s-3-2.59-4.34-4a19.56,19.56,0,0,1-2.27-3.06c-.22-.34-.1-.9-.33-1.23a28.71,28.71,0,0,1-2.61-3.48c-.67-1.32-1.27-1.76-2.19-1,.45.93,1.24,1.79,1.15,2.55a8.19,8.19,0,0,1-1.41,3.24c-1.8,2.74-.38,5.77,3.09,6.17.18-.48.24-1.27.59-1.44.87-.42,2.38-1.07,2.75-.72A59.6,59.6,0,0,1,256.13,525.24Zm68.71,73.2c-2.28-.18-3,1.42-3.3,2.92a3.45,3.45,0,0,0,2.42,4c.49.17,1.77-.36,1.78-.6.13-2.94,1.61-2.43,3.37-1.46a3.93,3.93,0,0,0,1.57.57,2.38,2.38,0,0,0,1.64-.47,1.61,1.61,0,0,0-.06-1.49c-.36-.58-1-.95-1.52-1.48-1.14-1.25-3.11-1.65-3.11-4.1a3.5,3.5,0,0,0-3.43-3.24C324.43,595,324.62,596.55,324.84,598.44ZM305.67,488.51c2.32,0,3.37,1.25,4.14,3a3.38,3.38,0,0,0,1.31,1.26c.13.09.72-.32.92-.62.76-1.17-.53-5.72-1.82-5.79-2.2-.12-2.72-1.89-3.63-3.13a4.89,4.89,0,0,0-6.84-.6,30.49,30.49,0,0,1,3.47,2.13,3.78,3.78,0,0,1,1,2c0,.16-.94.75-1.48.8-1.88.16-1.71,1.16-1,2.27a3.21,3.21,0,0,0,4.19,1.4C305.88,490.38,305.79,489.61,305.67,488.51Zm26.67,47.15c.49.44,1.31,1.6,1.73,1.48,2.11-.65,2.36.82,3,2.11.21.44.88.65,1.34,1a4.84,4.84,0,0,0-.18-1.64c-.5-1-1.22-1.91-1.73-2.91-.63-1.25-1.14-2.56-1.43-3.22-2.21-2.51-4.08-4.61-6.22-7-1.17,3.11.92,5,1.27,6.44-.8,1.1-1.86,2-1.69,2.42a12.82,12.82,0,0,0,2.11,2.91Zm35.29-3.92c-.65,1.1-1.55,2.11-1.36,2.4a7.59,7.59,0,0,0,2.63,2.44c.29.16,1.27-.93,1.45-1.07,1.35-.35,2.82-.37,3-.86a5.43,5.43,0,0,0-.17-2.59c.3-1.33,1-2.69.64-3.17a28.2,28.2,0,0,0-4.3-3.67c-.35,1.26-.64,2.31-1,3.71C367,529.31,366.52,530.42,367.63,531.74ZM363.37,602c-.77-2.31-2.25-2.14-3.77-1.21l-3.76-3.08-.62.38,1.33,5.36-2.41-.11c-.16,3.26.71,3.83,3.74,2.51l2.93,4.87c1.72-3.56.32-6-1.4-8.37C360.52,599.77,361.77,602.89,363.37,602Zm59.2-19.51c.31,2.19,1.09,3.83,3.21,4.11.64.09,1.42-.91,2.52-1.69l5.95,2.33-4.09-6.13c-.53-.44-1.3-1.12-2.11-1.75-.47-.37-1.14-1.05-1.49-.92a2.48,2.48,0,0,0-1.34,1.46,8.51,8.51,0,0,0-.05,2.42ZM185,620.43l6.88,2.51c-2.73-5-8.06-4.8-11.3-7.84-.94-.88-2.81-.78-4.26-1.13l-.28.78,5.18,3.63c-.71,1-1.62,2-1.49,2.14.62.81,1.48,1.86,2.34,2S183.66,621.42,185,620.43Zm196.09-62.74c.64,2.44,1.1,4.2,1.46,5.59l-2.77,1.33c.57,1,1.14,2.74,1.71,2.74,1.16,0,2.32-1,3.94-1.74l3,1.11.64-.39c-.34-1-.44-2.25-1.09-3-1.18-1.36-2.86-2.17-3.78-3.93C383.8,558.58,382.31,558.31,381.09,557.69ZM293.48,604l.48-.37,2.66,5.71c2.35-5.16-1.73-13.63-6.58-13.73.75,1.51,1.45,2.9,2.15,4.28l-.59-.15c-.32.91-1.17,2.14-.85,2.66C291.25,603.14,292.53,603.44,293.48,604Zm-40-42.48c.54.43.84.85,1.22.94,1.77.43,3,1,2.76,3.33-.1.82,1.14,1.8,1.48,2.3l4.88-1.88c-.31-1.38-.67-2.94-1-4.51C259.85,560.77,256.85,559.55,253.5,561.47Zm-76.92,15.21,10.28,5.06c-.89-1.4-1.27-2.63-2.09-3.17-2.06-1.34-4.37-2.29-6.48-3.55a17.67,17.67,0,0,1-2.54-2.21c-.91,2.57-1,2.57-3.86,1a9,9,0,0,0-2-.58c-.11.43-.44,1-.29,1.27.35.68,1.18,1.84,1.38,1.76,1.93-.8,2.26.88,3.15,1.76a11.71,11.71,0,0,0,2.1,1.32ZM157.72,620l-.82.44,2.13,5.23c-1.79.09-1.64,1.2-1.14,2.34,1,2.29,2.27,2.83,4.23,1.89l2.29,2.14-1.76,2.51,4.79-1.43C163.1,629.41,160.78,624.41,157.72,620ZM185.89,467l.91-.07c3-3,3.4-5,1.42-7.53-1.58-2-5.94-3.13-8.16-1.88.77.58,1.4,1.11,2.08,1.58,1,.67,2.05,1.26,3,2a1.71,1.71,0,0,1,.68,2.59C185.39,464.54,185.84,465.88,185.89,467ZM400,530.4l2.16,1.12c2.81-3.44-.86-4.42-2.13-6-.7-.88-2.49-.88-3.79-1.27l-.14.65c.76,1.23,1.51,2.46,2.27,3.68l-.81-.2c-.58.69-1.69,1.42-1.65,2.08.11,1.82,1.39,2.54,3.2,2.21C399.39,531.91,399.66,531.25,400,530.4Zm50.69-15.23c-.55.77-1.44,1.49-1.32,2,.18.82.91,1.94,1.59,2.08s1.74-.61,2.7-1l4.2,2.18.22-.39-6.86-9.66-.53.07Zm-72.24,85.16L384,604a8.5,8.5,0,0,0-3.37-6.58,3.77,3.77,0,0,0-5.32,1c-.34.42-.86,1.24-.71,1.42a13.9,13.9,0,0,0,2.1,1.92ZM340.59,483.15l-.43-.09c-.61.58-1.68,1.1-1.75,1.73a2.91,2.91,0,0,0,2.52,3.28c2.21.53,2-1.18,2-2.6l2.47,1.53.74-.69-2.42-3.63a4.66,4.66,0,0,0-.64-1.86c-.21-.29-1.55-.22-1.88.14C340.77,481.47,340.78,482.4,340.59,483.15ZM320.32,535.8l2.78-.23a9,9,0,0,0-.8-2.53c-.51-.76-1.53-1.16-2.08-1.91-1.43-1.93-3.15-1.7-5.62-1l3,2.52-.64.33a26.48,26.48,0,0,0,1.66,3.38C318.68,536.53,319.88,536,320.32,535.8Zm-98.45,49.83.8,0c.18-1.11.91-2.7.43-3.25a21.81,21.81,0,0,0-5.2-4.37c-.8-.48-2.24.08-3.38.17V579l3.74,1.74-.66.34c.18.93.05,2.24.61,2.68s1.93.34,3.18.49Zm227.31,28.8a4.82,4.82,0,0,1-1,0c-1.5-.28-1.79.76-1.45,1.71.23.67,1.57,1.64,1.78,1.5,1.92-1.25,3.91-1.07,6-.74.37.05.8-.37,1.62-.78l-6.69-5.31C449.32,612.31,449.26,613.33,449.18,614.43Zm-191.82.89.45-.93a13.09,13.09,0,0,0-2.67-1.49c-1.37-.39-2.14-.86-2.39-2.49-.21-1.29-1.3-2.45-2-3.68l-.78.36c.38,1.73.75,3.46,1.05,4.85-.82.61-1.89,1.17-1.83,1.38a5.05,5.05,0,0,0,1.43,2.3c.35.3,1.72.14,1.82-.12.66-1.69,1.71-1,2.77-.66C255.91,615.05,256.64,615.16,257.36,615.32Zm189.32-72.16c-.81-1.91-1.11-3.35-1.93-4.36s-2.22-2.13-3.14-2c-1.27.23-1.48,2.59-3.31,2.75a2.67,2.67,0,0,0,.05,1.06c.79,1.85,1.83,2.08,3.37,1.08ZM265.83,528.64a10.47,10.47,0,0,0-.51,3.11c.09.5,1.11,1.31,1.56,1.22a15.5,15.5,0,0,0,3.47-1.43c.11-.06.08-.63,0-.9a20.26,20.26,0,0,0-5.86-7l-.57.37Zm99.82,57.51-1,.68c-.21.84-.8,2.23-.54,2.41a10.48,10.48,0,0,0,3,1.08l.23-.63,1.28,2.3c2.5-3.4-.6-4.76-1.79-6.63a3.23,3.23,0,0,0-3.42-1.43l-.45.75ZM184,527.16c-1.55,5.41-1.55,5.41,1.25,6.36l.51-2.18,5.23,2.95.37-.69Zm80.22,117.66c1-4.79-1.14-8.07-6-8.36l2.25,3c-.29,1-.44,2.14.08,2.68A23.56,23.56,0,0,0,264.19,644.82Zm66.57-64.74-.38.24c0,.78-.31,1.86.08,2.25s1.52.45,2.32.46,1.81-.3,2.7-.27a11.94,11.94,0,0,1,2.25.5l.32-.59L329,576.56l-.48.53Zm-23.84,26.36-.85.73a19.3,19.3,0,0,1,1.48,2.56,37.2,37.2,0,0,1,1.08,3.64,3.6,3.6,0,0,1,3.91.69c.31.25.91.15,1.37.22l.41-.68ZM242,619.24c.5,1.27.95,2.58,1.55,3.82a2.62,2.62,0,0,0,1.21,1.06c1.24.55,2.52,1,3.7,1.45A5.76,5.76,0,0,0,242,619.24Zm181.25-58.15c.7-2.32-1.42-3.45-2.85-4.78-.55-.5-1.62-.42-2-.5-.26,1.52-.68,2.49-.48,3.28a3.07,3.07,0,0,0,1.66,1.92A13.2,13.2,0,0,0,423.24,561.09ZM263.06,532.37l.27-.8-8.24-3.46-.78,1.1,3.26,1.58-.59.68-1.26,1.95c1.12.29,2,.8,2.81.63.42-.09.58-1.34.83-2ZM179,586.65c.56,2.39,1.12,4.79,1.76,7.55,2.41-2.82,4,.79,6.57,0C184.55,591.46,181.05,589.91,179,586.65Zm93.15,10.2,7,7.57C279.29,599.14,277.58,597.19,272.15,596.85Zm-17.07,22.66c-.28,2,1.63,4-.72,5.34a5.74,5.74,0,0,0,1.33,1.28,17.52,17.52,0,0,0,2.7.92c.49.15,1,.24,1.48.36.06-.51.34-1.15.13-1.52-1-1.78-2.11-3.52-3.27-5.21C256.41,620.22,255.78,620,255.08,619.51ZM325.2,644l-5.28-3.94c.42,1.91-2.65,3.82-.28,4.93C321.17,645.71,323.55,646.32,325.2,644ZM314.7,538.62c.19,1.79.28,3.25.55,4.68a1.92,1.92,0,0,0,1.08,1.14c1.23.44,2.53.71,3.86,1.06C320,542.3,317.62,540.37,314.7,538.62Zm-72.64,56-.63.19c-.13,2.31-.27,4.62-.38,6.56a11,11,0,0,1,2.91.05,12.93,12.93,0,0,1,2.45,1.43l.63-.81a21.89,21.89,0,0,1-3.21-3.17A22.24,22.24,0,0,1,242.06,594.64Zm-55.18-46.72a2.8,2.8,0,0,0,.57,0c.74-.11,1.47-.25,2.21-.37-.55-.63-1.07-1.29-1.64-1.88s-1.36-1.28-2-1.95a11.33,11.33,0,0,1-.91-1.16l-.67.25c1.8,2-1.68,5,1.88,6.94Zm246-5a11.16,11.16,0,0,0-.48,3,2.67,2.67,0,0,0,1.26,1.81,11.31,11.31,0,0,0,3.06.49c1-1.09.14-2.23-.67-3.32S434.39,542.26,432.9,542.91Zm-221.06,76.4c1.85,2.36,3.69,4.72,5.8,7.4C218.38,622.56,216.15,619.63,211.84,619.31Zm-48.91-9c.19-2.52-2-5.56-4.88-6.34a12,12,0,0,1,1.41,3.07C159.94,610.44,159.86,610.45,162.93,610.26Zm37.89-20.88c1,.45,2.35.72,2.42,1.16.49,3.51,2.5,2.08,4.34,1.64C206.49,588.8,203.47,587.48,200.82,589.38Zm-96.63-25.13-.79.6a16.37,16.37,0,0,1,1.17,2.33,24.15,24.15,0,0,1,.47,2.59c.56,2.75.57,2.74,3.79,1.35Zm259.9,10.41c0-1.66-1.3-3.29-3.61-3.79-.84-.18-1.86.5-2.81.79C359.48,574.19,361.35,575.53,364.09,574.66Zm-45.52,9.4a12.57,12.57,0,0,0,.06,3.07c.21.75.79,1.84,1.37,2a25.77,25.77,0,0,0,4.69.09Zm-24.15,49.23,5.67.27-5.67-5.38Zm189.05-79.58a36.14,36.14,0,0,0,.51,4,1.42,1.42,0,0,0,1.24.68c1.27-.26,2.5-.73,4.36-1.31Zm-175,71.73-4.46-3.09a4.48,4.48,0,0,0-.57,1.27,3,3,0,0,0,.25,1.48c.23.51.58,1.27,1,1.34a17.94,17.94,0,0,0,3.44.06C308.23,626.49,308.3,626.08,308.51,625.44Zm0-39.14a14.54,14.54,0,0,1-3.05-1.69,12.87,12.87,0,0,1-1.63-2.59c-.59,1-1.51,1.92-1.55,2.86a2.77,2.77,0,0,0,1.65,2.17C305.13,587.24,306.45,586.69,308.51,586.3Zm-75.4,28.62a34.65,34.65,0,0,0,.92,4.48,2.32,2.32,0,0,0,1.52,1.24,23.63,23.63,0,0,0,3.89.06ZM153.39,609c0-3.72-3.26-5.2-6.76-3.28Zm92,20.26c0,1.66-.07,3,0,4.27a1.46,1.46,0,0,0,.83,1.07c1.45.34,2.94.51,4.87.82Zm36.94-6.67c.1,1,.15,2,.32,3,.08.47.39,1.3.57,1.29a4.32,4.32,0,0,0,1.82-.58,14.57,14.57,0,0,0,1.8-1.26c.32-.23.6-.51,1-.85Zm-108.5-12.93.49-.56-4.22-3.53C168.67,609,169,609.3,173.86,609.66Zm157.39,7.65-5.78-6.12C325.86,616.32,326,616.45,331.25,617.31Zm-188.63-2.83,3.64.78c-1.6-3.52-4.36-1.85-6.34-2.61l-.56.56,2.56,3.21ZM157,641.77l-.11-1.1c-2,0-4-.06-6,.07-.33,0-.6.92-.9,1.41a6.22,6.22,0,0,0,1.5.33,17,17,0,0,0,2-.32C154.67,642,155.84,641.9,157,641.77Zm167.68-21.64-3.28-4.21a12.47,12.47,0,0,0-1,2.75,11,11,0,0,0,.37,2.79,14.35,14.35,0,0,1,2.19-1.19A7.56,7.56,0,0,1,324.69,620.13Zm90.64-94.23-.48.66c1.49,3.2,1.49,3.2,5.32,2.47Zm-233.8,85c-1.37-2.32-2.91-3.73-5.62-3C177.91,608.47,178.2,612.11,181.53,610.93Zm-8.3-14.52c-.27,3.68-.27,3.68,4.7,3.91C176.21,598.89,174.78,597.71,173.23,596.41Zm59.4,4.27,4.26,3.65C237.57,601.48,236,600.1,232.63,600.68Zm68.65,35.21-.56.29c.35,1.19.71,2.38,1.06,3.56l3.17-1.32ZM251.36,522.36l-.84.59a8.12,8.12,0,0,0,1.71,2.3c.5.32,1.5-.1,2.27-.19l.05-.86Zm55,109.95-.37-.69-3.26,1.5,1.43,1.93Zm56.05-15.37-3.1-2.52C358.89,617.36,359.26,617.66,362.37,616.94ZM228.44,635l-.14.84,2.82,1.8.53-.37c-.25-.61-.34-1.5-.79-1.77A7.44,7.44,0,0,0,228.44,635Z" transform="translate(-98 -220.89)"/><path d="M316.71,559.6c-1-.7-1.85-1.21-2.62-1.75s-1.65-1.24-3.14-2.37l.31,3.86c-2.45.65-4.24-.51-5.55-2.32s-.79-3.93.52-5.94l3.16,2.07.58-.33a42.55,42.55,0,0,0-1.24-6,36.11,36.11,0,0,0-2.55-5c-1.39-.18-2.61-.07-3.49-.56-.42-.24-.2-1.62-.31-3l-1.71-2.11c3.26-.82,6.21,2,7.93,4.55.88,1.29,2.15,2.32,3,3.6.77,1.1,1.73,2.38,1.77,3.6.05,1.73.36,2.31,2.54,1.29-1.41,2.48-.85,3.73,1.31,4.57.65.25,1.08,1.54,1.24,2.42a24.77,24.77,0,0,1,.37,4.79,2.75,2.75,0,0,1-.92,1.76c-.2.19-1.26-.08-1.39-.37a4.9,4.9,0,0,1-.12-2A2.58,2.58,0,0,1,316.71,559.6Z" transform="translate(-98 -220.89)"/><path d="M408.1,556.52a13.46,13.46,0,0,1-3.3.22c-2.35-.47-2.28.75-1.79,2.32.55,1.78,1.16,3.54,1.75,5.31l-.56.28-6-5.47c-1.26.88-2.08,1.93-2.74,1.83-2.59-.39-3.67-2.37-3.23-4.93.28-1.54.81-2.25,2.62-1.15a14,14,0,0,1,.5-2.74c.29-.71.87-1.76,1.38-1.8a2.33,2.33,0,0,1,1.91,1.28c.35,1.63,1,1.56,2.39,1.21A6,6,0,0,1,408.1,556.52Z" transform="translate(-98 -220.89)"/><path d="M291.32,536.06l3.09,6.15-.19,0a18.17,18.17,0,0,0,1.63,2.38c.37.39,1.07.47,1.59.74a28.34,28.34,0,0,1,4.48,2.42c1.06.82.57,1.86-.74,1.93a17.87,17.87,0,0,1-4-.38c-.86-.15-1.66-.74-2.51-.8-1.31-.09-2.19.21-1.48,2,1,2.54.81,2-2,2.37-3.08.38-3.54-1.33-4.13-3.35-.38-1.31-.11-2.22,1.59-2.14s2.91-.6,2.66-2.54-.67-3.77-1-5.66c-.15-1-.22-1.93-.33-2.89Z" transform="translate(-98 -220.89)"/><path d="M270.58,618.84l-2.91-6.5-1.22,2.91a30.5,30.5,0,0,1-3.15-3.87c-.2-.35.76-1.37,1.3-2.27-1.27-1.13-3.29-2.41-2.59-5.33,2.53,1.53,5.26,2.68,7.28,4.58,1.38,1.3,1.83,3.63,2.58,5.55.52,1.33.58,2.92,1.33,4.08s2,1.68,3,2.46l-6.05,1.75c-.85-2.2-5.4-1.1-4.25-5.38l4.24,2.51Z" transform="translate(-98 -220.89)"/><path d="M226.62,558.19l-1.76-5.73-1.06.13-.38,2.8-1.7.55c1,2,4.66,1.47,3.8,4.93l-1.45-1.37c-.69.2-1.46.69-2,.5s-.78-1.06-1.09-1.66-.67-1.48-1.18-2.63l.32-5.32,2.46.63c1-3-2.75-3.09-3-5.31h3.53l.63,2.95,1.37-.28.41,1.79c1.2.22,2.28-2.35,1.61-3.39-.21-.32-.45-.63-1-1.41a9.3,9.3,0,0,1,2.17,0c.45,1.87,2.1,2.15,3.41,3,.68.43.64,2,.93,3l-1.14.71-1.64-3.38C227.89,552.09,229.31,555.7,226.62,558.19Z" transform="translate(-98 -220.89)"/><path d="M408.18,483.06l4.48-1.38c-1-3.38-3.69-4.82-6.42-6.8a6.68,6.68,0,0,1,1.85-.46,40.3,40.3,0,0,1,5.49.77c.75.18,1.8.94,1.9,1.57.38,2.3,1.28,2.58,3,1.25.21-.16.62-.07,1.42-.14-1.14,2.91-2.17,5.56-3.48,8.9L415,484.19l-.86-.94a11.83,11.83,0,0,1-.63,2c-.51,1-1.14,1.88-1.71,2.82a37.2,37.2,0,0,1-3.33-2.92C408.14,484.76,408.29,483.92,408.18,483.06Z" transform="translate(-98 -220.89)"/><path d="M334.19,572.33c0-.8-.25-1.73,0-2,2.57-2,.18-2.62-1.44-3.79,1.08-.61,2-1.58,2.71-1.42s1.41,1.35,2.4,2.41h2.32c-.6-2.8-1.19-5.54-1.77-8.28l.3-.14a58.56,58.56,0,0,1,3,6.63c.51,1.62,1.15,2.41,3.05,1.93-.86,3.88,3.73,3.69,4.45,6.63-2.95.84-5.11-1-7.67-2.26l-.4,2.3c-2.4.55-3.71-.71-4.73-2.65Z" transform="translate(-98 -220.89)"/><path d="M280.91,533.58c-.15,1.5-.25,2.41-.35,3.4-1.75.45-3.24-.11-3.78-1.68a9.26,9.26,0,0,1,0-4.13c0-.24,1.31-.31,2.12-.49-1.59-2.42-3.08-5.11-2-8.48,3,1.64,2.82,6,6.52,7-.23,4,3.51,5.67,5.4,8.55C287.2,540,284.05,538.49,280.91,533.58Z" transform="translate(-98 -220.89)"/><path d="M509.22,479.61l-.39,3c-2.18-.19-4.72-3.61-3.84-5.33.29-.56,1.73-.53,2-.61,2-2.55,3.78-4.85,5.58-7.15l1.1.56c-.6,1.54-1.21,3.09-1.91,4.87h3.37c-2.55,2.74-.6,3.39,1.33,4.41a40.6,40.6,0,0,1,5.06,3.66l-.42.84c-.63-.1-1.55,0-1.82-.34-1.39-1.84-2.88-2.27-5.16-1.53-.91.29-2.31-.86-3.47-1.39A13.8,13.8,0,0,1,509.22,479.61Z" transform="translate(-98 -220.89)"/><path d="M491.86,489l3.11.3c.77-2,1.44-4,2.34-5.86.27-.56,1.16-.81,1.77-1.2a6.15,6.15,0,0,1,.64,1.91,18.3,18.3,0,0,1-.5,3l2.74-.16c-.64,2.83-.58,2.77,1.86,4.8a17.84,17.84,0,0,1,3.82,4.46,22.53,22.53,0,0,1-10.82-4.46c-.31.82-.39,1.64-.84,2a2.75,2.75,0,0,1-1.9.41C493.3,492.65,492.72,491.06,491.86,489Z" transform="translate(-98 -220.89)"/><path d="M432.22,506.59c-.49.92-1,2.28-1.24,2.24a5.54,5.54,0,0,1-2.9-1.32,4.74,4.74,0,0,1-1.08-2.82c0-.42,1.18-1.41,1.5-1.29,1.81.69,2.1-.2,2.2-1.68a6.71,6.71,0,0,1,.64-2.55,9.41,9.41,0,0,1,1.63-1.85,16.5,16.5,0,0,1,1.61,1.86,4.25,4.25,0,0,1,.26,1.57l3.09-.6-1.09,2.74c1.36,2.29,2.64,4.31,3.75,6.41a3,3,0,0,1-.06,2,1.48,1.48,0,0,1-1.27.1c-.31-.34-.12-1.12-.43-1.45a13.39,13.39,0,0,0-3.18-2.9C434.69,506.5,433.35,506.7,432.22,506.59Z" transform="translate(-98 -220.89)"/><path d="M365.88,607.13l2.42.36.26-.73-4.21-1.57a4.44,4.44,0,0,1,7.24-.18c.41.62,1.5.79,2.57,1.3a5.23,5.23,0,0,1,1.11,2c.3,2.41.33,4.85.4,7.28,0,.14-.79.5-.95.38a2.59,2.59,0,0,1-.71-1.1,32.65,32.65,0,0,0-2.61-5.07c-.11,2.87-1.82,3.06-3.57,2.53C365.28,611.58,365.5,609.46,365.88,607.13Z" transform="translate(-98 -220.89)"/><path d="M365.15,459.32c1.32,1.13,2.65,2.26,4,3.4,1.16,1,1.61,3.28,3.22,2.38a32.08,32.08,0,0,0,3.61,2.48c1.28.65,2.72.95,4,1.54.51.23.85.81,1.27,1.23-.58.32-1.21,1-1.74.9a54.62,54.62,0,0,1-7.79-1.74c-1.24.43,1.76,3.3-1.52,3a3.38,3.38,0,0,1-3.25-3.3c0-.52,1.25-1.11,2.1-1.81-2.4-1.76-3.59-4.64-4.51-7.66Z" transform="translate(-98 -220.89)"/><path d="M210.9,552.35c-4.69,1.52-7-1.36-9.72-4l.9,3.46c-2.7.76-4.43-.16-4.82-2.47-.48-2.83.11-4,2-4.23v-7.5l.76-.31C200.87,544.28,204.65,549,210.9,552.35Z" transform="translate(-98 -220.89)"/><path d="M369.06,557.27c1.93,2.91,3.74,5.63,5.78,8.72-4,.3-5.68-2.52-8-4.4l-2,3.26-3.33-4.45c1.2-.26,1.57-.35,1.95-.42s.76-.12,1.57-.24a24.07,24.07,0,0,1-2.54-3c-.34-.57-.15-1.45-.2-2.19a6.61,6.61,0,0,1,1.92.24C366,555.6,367.67,556.55,369.06,557.27Z" transform="translate(-98 -220.89)"/><path d="M256.13,525.24a59.6,59.6,0,0,0-4.68-5.58c-.37-.35-1.88.3-2.75.72-.35.17-.41,1-.59,1.44-3.47-.4-4.89-3.43-3.09-6.17a8.19,8.19,0,0,0,1.41-3.24c.09-.76-.7-1.62-1.15-2.55.92-.74,1.52-.3,2.19,1a28.71,28.71,0,0,0,2.61,3.48c.23.33.11.89.33,1.23a19.56,19.56,0,0,0,2.27,3.06c1.38,1.39,3.16,2.45,4.34,4S256.94,525,256.13,525.24Z" transform="translate(-98 -220.89)"/><path d="M324.84,598.44c-.22-1.89-.41-3.46-.64-5.36a3.5,3.5,0,0,1,3.43,3.24c0,2.45,2,2.85,3.11,4.1.48.53,1.16.9,1.52,1.48a1.61,1.61,0,0,1,.06,1.49,2.38,2.38,0,0,1-1.64.47,3.93,3.93,0,0,1-1.57-.57c-1.76-1-3.24-1.48-3.37,1.46,0,.24-1.29.77-1.78.6a3.45,3.45,0,0,1-2.42-4C321.81,599.86,322.56,598.26,324.84,598.44Z" transform="translate(-98 -220.89)"/><path d="M305.67,488.51c.12,1.1.21,1.87.3,2.73a3.21,3.21,0,0,1-4.19-1.4c-.76-1.11-.93-2.11,1-2.27.54-.05,1.51-.64,1.48-.8a3.78,3.78,0,0,0-1-2,30.49,30.49,0,0,0-3.47-2.13,4.89,4.89,0,0,1,6.84.6c.91,1.24,1.43,3,3.63,3.13,1.29.07,2.58,4.62,1.82,5.79-.2.3-.79.71-.92.62a3.38,3.38,0,0,1-1.31-1.26C309,489.76,308,488.54,305.67,488.51Z" transform="translate(-98 -220.89)"/><path d="M332.34,535.66l-1.84,1.53a12.82,12.82,0,0,1-2.11-2.91c-.17-.43.89-1.32,1.69-2.42-.35-1.46-2.44-3.33-1.27-6.44,2.14,2.42,4,4.52,6.22,7,.29.66.8,2,1.43,3.22.51,1,1.23,1.9,1.73,2.91a4.84,4.84,0,0,1,.18,1.64c-.46-.32-1.13-.53-1.34-1-.6-1.29-.85-2.76-3-2.11C333.65,537.26,332.83,536.1,332.34,535.66Z" transform="translate(-98 -220.89)"/><path d="M367.63,531.74c-1.11-1.32-.59-2.43.88-2.81.38-1.4.67-2.45,1-3.71a28.2,28.2,0,0,1,4.3,3.67c.38.48-.34,1.84-.64,3.17a5.43,5.43,0,0,1,.17,2.59c-.19.49-1.66.51-3,.86-.18.14-1.16,1.23-1.45,1.07a7.59,7.59,0,0,1-2.63-2.44C366.08,533.85,367,532.84,367.63,531.74Z" transform="translate(-98 -220.89)"/><path d="M363.37,602c-1.6.91-2.85-2.21-4,.35,1.72,2.38,3.12,4.81,1.4,8.37l-2.93-4.87c-3,1.32-3.9.75-3.74-2.51l2.41.11-1.33-5.36.62-.38,3.76,3.08C361.12,599.84,362.6,599.67,363.37,602Z" transform="translate(-98 -220.89)"/><path d="M422.57,582.47l2.6-.17a8.51,8.51,0,0,1,.05-2.42,2.48,2.48,0,0,1,1.34-1.46c.35-.13,1,.55,1.49.92.81.63,1.58,1.31,2.11,1.75l4.09,6.13-5.95-2.33c-1.1.78-1.88,1.78-2.52,1.69C423.66,586.3,422.88,584.66,422.57,582.47Z" transform="translate(-98 -220.89)"/><path d="M185,620.43c-1.34,1-2.2,2.11-2.93,2s-1.72-1.14-2.34-2c-.13-.18.78-1.14,1.49-2.14L176,614.75l.28-.78c1.45.35,3.32.25,4.26,1.13,3.24,3,8.57,2.88,11.3,7.84Z" transform="translate(-98 -220.89)"/><path d="M381.09,557.69c1.22.62,2.71.89,3.14,1.71.92,1.76,2.6,2.57,3.78,3.93.65.75.75,2,1.09,3l-.64.39-3-1.11c-1.62.78-2.78,1.74-3.94,1.74-.57,0-1.14-1.77-1.71-2.74l2.77-1.33C382.19,561.89,381.73,560.13,381.09,557.69Z" transform="translate(-98 -220.89)"/><path d="M293.48,604c-1-.51-2.23-.81-2.73-1.6-.32-.52.53-1.75.85-2.66l.59.15c-.7-1.38-1.4-2.77-2.15-4.28,4.85.1,8.93,8.57,6.58,13.73L294,603.58Z" transform="translate(-98 -220.89)"/><path d="M253.5,561.47c3.35-1.92,6.35-.7,9.31.18.36,1.57.72,3.13,1,4.51L259,568c-.34-.5-1.58-1.48-1.48-2.3.27-2.33-1-2.9-2.76-3.33C254.34,562.32,254,561.9,253.5,561.47Z" transform="translate(-98 -220.89)"/><path d="M176.58,576.68l-.32,2.62a11.71,11.71,0,0,1-2.1-1.32c-.89-.88-1.22-2.56-3.15-1.76-.2.08-1-1.08-1.38-1.76-.15-.29.18-.84.29-1.27a9,9,0,0,1,2,.58c2.88,1.61,3,1.61,3.86-1a17.67,17.67,0,0,0,2.54,2.21c2.11,1.26,4.42,2.21,6.48,3.55.82.54,1.2,1.77,2.09,3.17Z" transform="translate(-98 -220.89)"/><path d="M157.72,620c3.06,4.46,5.38,9.46,9.72,13.12l-4.79,1.43,1.76-2.51-2.29-2.14c-2,.94-3.24.4-4.23-1.89-.5-1.14-.65-2.25,1.14-2.34l-2.13-5.23Z" transform="translate(-98 -220.89)"/><path d="M185.89,467c0-1.14-.5-2.48,0-3.35a1.71,1.71,0,0,0-.68-2.59c-1-.7-2-1.29-3-2-.68-.47-1.31-1-2.08-1.58,2.22-1.25,6.58-.11,8.16,1.88,2,2.51,1.61,4.52-1.42,7.53Z" transform="translate(-98 -220.89)"/><path d="M400,530.4c-.33.85-.6,1.51-.89,2.26-1.81.33-3.09-.39-3.2-2.21,0-.66,1.07-1.39,1.65-2.08l.81.2c-.76-1.22-1.51-2.45-2.27-3.68l.14-.65c1.3.39,3.09.39,3.79,1.27,1.27,1.59,4.94,2.57,2.13,6Z" transform="translate(-98 -220.89)"/><path d="M450.68,515.17v-4.76l.53-.07,6.86,9.66-.22.39-4.2-2.18c-1,.4-1.92,1.17-2.7,1s-1.41-1.26-1.59-2.08C449.24,516.66,450.13,515.94,450.68,515.17Z" transform="translate(-98 -220.89)"/><path d="M378.44,600.33l-1.71,1.44a13.9,13.9,0,0,1-2.1-1.92c-.15-.18.37-1,.71-1.42a3.77,3.77,0,0,1,5.32-1A8.5,8.5,0,0,1,384,604Z" transform="translate(-98 -220.89)"/><path d="M340.59,483.15c.19-.75.18-1.68.64-2.19.33-.36,1.67-.43,1.88-.14a4.66,4.66,0,0,1,.64,1.86l2.42,3.63-.74.69L343,485.47c0,1.42.18,3.13-2,2.6a2.91,2.91,0,0,1-2.52-3.28c.07-.63,1.14-1.15,1.75-1.73Z" transform="translate(-98 -220.89)"/><path d="M320.32,535.8c-.44.15-1.64.73-1.74.58a26.48,26.48,0,0,1-1.66-3.38l.64-.33-3-2.52c2.47-.72,4.19-.95,5.62,1,.55.75,1.57,1.15,2.08,1.91a9,9,0,0,1,.8,2.53Z" transform="translate(-98 -220.89)"/><path d="M221.87,585.63l-.48-1.34c-1.25-.15-2.5.05-3.18-.49s-.43-1.75-.61-2.68l.66-.34L214.52,579v-.81c1.14-.09,2.58-.65,3.38-.17a21.81,21.81,0,0,1,5.2,4.37c.48.55-.25,2.14-.43,3.25Z" transform="translate(-98 -220.89)"/><path d="M449.18,614.43c.08-1.1.14-2.12.24-3.63l6.69,5.31c-.82.41-1.25.83-1.62.78-2.07-.33-4.06-.51-6,.74-.21.14-1.55-.83-1.78-1.5-.34-1-.05-2,1.45-1.71A4.82,4.82,0,0,0,449.18,614.43Z" transform="translate(-98 -220.89)"/><path d="M257.36,615.32c-.72-.16-1.45-.27-2.15-.48-1.06-.31-2.11-1-2.77.66-.1.26-1.47.42-1.82.12a5.05,5.05,0,0,1-1.43-2.3c-.06-.21,1-.77,1.83-1.38-.3-1.39-.67-3.12-1.05-4.85l.78-.36c.7,1.23,1.79,2.39,2,3.68.25,1.63,1,2.1,2.39,2.49a13.09,13.09,0,0,1,2.67,1.49Z" transform="translate(-98 -220.89)"/><path d="M446.68,543.16l-5-1.43c-1.54,1-2.58.77-3.37-1.08a2.67,2.67,0,0,1-.05-1.06c1.83-.16,2-2.52,3.31-2.75.92-.17,2.37,1,3.14,2S445.87,541.25,446.68,543.16Z" transform="translate(-98 -220.89)"/><path d="M265.83,528.64,263.88,524l.57-.37a20.26,20.26,0,0,1,5.86,7c.12.27.15.84,0,.9a15.5,15.5,0,0,1-3.47,1.43c-.45.09-1.47-.72-1.56-1.22A10.47,10.47,0,0,1,265.83,528.64Z" transform="translate(-98 -220.89)"/><path d="M365.65,586.15l-2.71-1.47.45-.75a3.23,3.23,0,0,1,3.42,1.43c1.19,1.87,4.29,3.23,1.79,6.63l-1.28-2.3-.23.63a10.48,10.48,0,0,1-3-1.08c-.26-.18.33-1.57.54-2.41Z" transform="translate(-98 -220.89)"/><path d="M184,527.16l7.36,6.44-.37.69-5.23-2.95-.51,2.18C182.42,532.57,182.42,532.57,184,527.16Z" transform="translate(-98 -220.89)"/><path d="M264.19,644.82a23.56,23.56,0,0,1-3.71-2.7c-.52-.54-.37-1.71-.08-2.68l-2.25-3C263.05,636.75,265.18,640,264.19,644.82Z" transform="translate(-98 -220.89)"/><path d="M330.76,580.08l-2.25-3,.48-.53,9.06,6.11-.32.59a11.94,11.94,0,0,0-2.25-.5c-.89,0-1.8.28-2.7.27s-1.86,0-2.32-.46-.08-1.47-.08-2.25Z" transform="translate(-98 -220.89)"/><path d="M306.92,606.44l7.4,7.16-.41.68c-.46-.07-1.06,0-1.37-.22a3.6,3.6,0,0,0-3.91-.69,37.2,37.2,0,0,0-1.08-3.64,19.3,19.3,0,0,0-1.48-2.56Z" transform="translate(-98 -220.89)"/><path d="M242,619.24a5.76,5.76,0,0,1,6.46,6.33c-1.18-.45-2.46-.9-3.7-1.45a2.62,2.62,0,0,1-1.21-1.06C242.94,621.82,242.49,620.51,242,619.24Z" transform="translate(-98 -220.89)"/><path d="M423.24,561.09a13.2,13.2,0,0,1-3.67-.08,3.07,3.07,0,0,1-1.66-1.92c-.2-.79.22-1.76.48-3.28.38.08,1.45,0,2,.5C421.82,557.64,423.94,558.77,423.24,561.09Z" transform="translate(-98 -220.89)"/><path d="M263.06,532.37l-3.7-.32c-.25.66-.41,1.91-.83,2-.77.17-1.69-.34-2.81-.63l1.26-1.95.59-.68-3.26-1.58.78-1.1,8.24,3.46Z" transform="translate(-98 -220.89)"/><path d="M179,586.65c2.05,3.26,5.55,4.81,8.33,7.59-2.53.75-4.16-2.86-6.57,0C180.12,591.44,179.56,589,179,586.65Z" transform="translate(-98 -220.89)"/><path d="M272.15,596.85c5.43.34,7.14,2.29,7,7.57Z" transform="translate(-98 -220.89)"/><path d="M255.08,619.51c.7.48,1.33.71,1.65,1.17,1.16,1.69,2.26,3.43,3.27,5.21.21.37-.07,1-.13,1.52-.49-.12-1-.21-1.48-.36a17.52,17.52,0,0,1-2.7-.92,5.74,5.74,0,0,1-1.33-1.28C256.71,623.52,254.8,621.51,255.08,619.51Z" transform="translate(-98 -220.89)"/><path d="M325.2,644c-1.65,2.32-4,1.71-5.56,1-2.37-1.11.7-3,.28-4.93Z" transform="translate(-98 -220.89)"/><path d="M314.7,538.62c2.92,1.75,5.29,3.68,5.49,6.88-1.33-.35-2.63-.62-3.86-1.06a1.92,1.92,0,0,1-1.08-1.14C315,541.87,314.89,540.41,314.7,538.62Z" transform="translate(-98 -220.89)"/><path d="M242.06,594.64a22.24,22.24,0,0,0,1.77,4.25,21.89,21.89,0,0,0,3.21,3.17l-.63.81a12.93,12.93,0,0,0-2.45-1.43,11,11,0,0,0-2.91-.05c.11-1.94.25-4.25.38-6.56Z" transform="translate(-98 -220.89)"/><path d="M186.88,547.92l-.57,1.82c-3.56-2-.08-5-1.88-6.94l.67-.25a11.33,11.33,0,0,0,.91,1.16c.65.67,1.36,1.27,2,1.95s1.09,1.25,1.64,1.88c-.74.12-1.47.26-2.21.37A2.8,2.8,0,0,1,186.88,547.92Z" transform="translate(-98 -220.89)"/><path d="M432.9,542.91c1.49-.65,2.29.81,3.17,2s1.68,2.23.67,3.32a11.31,11.31,0,0,1-3.06-.49,2.67,2.67,0,0,1-1.26-1.81A11.16,11.16,0,0,1,432.9,542.91Z" transform="translate(-98 -220.89)"/><path d="M211.84,619.31c4.31.32,6.54,3.25,5.8,7.4C215.53,624,213.69,621.67,211.84,619.31Z" transform="translate(-98 -220.89)"/><path d="M162.93,610.26c-3.07.19-3,.18-3.47-3.27a12,12,0,0,0-1.41-3.07C160.89,604.7,163.12,607.74,162.93,610.26Z" transform="translate(-98 -220.89)"/><path d="M200.82,589.38c2.65-1.9,5.67-.58,6.76,2.8-1.84.44-3.85,1.87-4.34-1.64C203.17,590.1,201.81,589.83,200.82,589.38Z" transform="translate(-98 -220.89)"/><path d="M104.19,564.25l4.64,6.87c-3.22,1.39-3.23,1.4-3.79-1.35a24.15,24.15,0,0,0-.47-2.59,16.37,16.37,0,0,0-1.17-2.33Z" transform="translate(-98 -220.89)"/><path d="M364.09,574.66c-2.74.87-4.61-.47-6.42-3,.95-.29,2-1,2.81-.79C362.79,571.37,364.12,573,364.09,574.66Z" transform="translate(-98 -220.89)"/><path d="M318.57,584.06l6.12,5.12a25.77,25.77,0,0,1-4.69-.09c-.58-.12-1.16-1.21-1.37-2A12.57,12.57,0,0,1,318.57,584.06Z" transform="translate(-98 -220.89)"/><path d="M294.42,633.29v-5.11l5.67,5.38Z" transform="translate(-98 -220.89)"/><path d="M483.47,553.71l6.11,3.36c-1.86.58-3.09,1-4.36,1.31a1.42,1.42,0,0,1-1.24-.68A36.14,36.14,0,0,1,483.47,553.71Z" transform="translate(-98 -220.89)"/><path d="M308.51,625.44c-.21.64-.28,1-.36,1.06a17.94,17.94,0,0,1-3.44-.06c-.4-.07-.75-.83-1-1.34a3,3,0,0,1-.25-1.48,4.48,4.48,0,0,1,.57-1.27Z" transform="translate(-98 -220.89)"/><path d="M308.51,586.3c-2.06.39-3.38.94-4.58.75a2.77,2.77,0,0,1-1.65-2.17c0-.94,1-1.86,1.55-2.86a12.87,12.87,0,0,0,1.63,2.59A14.54,14.54,0,0,0,308.51,586.3Z" transform="translate(-98 -220.89)"/><path d="M233.11,614.92l6.33,5.78a23.63,23.63,0,0,1-3.89-.06A2.32,2.32,0,0,1,234,619.4,34.65,34.65,0,0,1,233.11,614.92Z" transform="translate(-98 -220.89)"/><path d="M153.39,609l-6.76-3.28C150.13,603.8,153.38,605.28,153.39,609Z" transform="translate(-98 -220.89)"/><path d="M245.42,629.26l5.74,6.16c-1.93-.31-3.42-.48-4.87-.82a1.46,1.46,0,0,1-.83-1.07C245.35,632.23,245.42,630.92,245.42,629.26Z" transform="translate(-98 -220.89)"/><path d="M282.36,622.59l5.5,1.61c-.39.34-.67.62-1,.85a14.57,14.57,0,0,1-1.8,1.26,4.32,4.32,0,0,1-1.82.58c-.18,0-.49-.82-.57-1.29C282.51,624.6,282.46,623.58,282.36,622.59Z" transform="translate(-98 -220.89)"/><path d="M173.86,609.66c-4.87-.36-5.19-.64-3.73-4.09l4.22,3.53Z" transform="translate(-98 -220.89)"/><path d="M331.25,617.31c-5.28-.86-5.39-1-5.78-6.12Z" transform="translate(-98 -220.89)"/><path d="M142.62,614.48l-.7,1.94-2.56-3.21.56-.56c2,.76,4.74-.91,6.34,2.61Z" transform="translate(-98 -220.89)"/><path d="M157,641.77c-1.17.13-2.34.24-3.51.39a17,17,0,0,1-2,.32,6.22,6.22,0,0,1-1.5-.33c.3-.49.57-1.39.9-1.41,2-.13,4-.07,6-.07Z" transform="translate(-98 -220.89)"/><path d="M324.69,620.13a7.56,7.56,0,0,0-1.76.14,14.35,14.35,0,0,0-2.19,1.19,11,11,0,0,1-.37-2.79,12.47,12.47,0,0,1,1-2.75Z" transform="translate(-98 -220.89)"/><path d="M415.33,525.9l4.84,3.13c-3.83.73-3.83.73-5.32-2.47Z" transform="translate(-98 -220.89)"/><path d="M181.53,610.93c-3.33,1.18-3.62-2.46-5.62-3C178.62,607.2,180.16,608.61,181.53,610.93Z" transform="translate(-98 -220.89)"/><path d="M173.23,596.41c1.55,1.3,3,2.48,4.7,3.91C173,600.09,173,600.09,173.23,596.41Z" transform="translate(-98 -220.89)"/><path d="M232.63,600.68c3.32-.58,4.94.8,4.26,3.65Z" transform="translate(-98 -220.89)"/><path d="M301.28,635.89l3.67,2.53-3.17,1.32c-.35-1.18-.71-2.37-1.06-3.56Z" transform="translate(-98 -220.89)"/><path d="M251.36,522.36l3.19,1.84-.05.86c-.77.09-1.77.51-2.27.19a8.12,8.12,0,0,1-1.71-2.3Z" transform="translate(-98 -220.89)"/><path d="M306.32,632.31l-2.2,2.74-1.43-1.93,3.26-1.5Z" transform="translate(-98 -220.89)"/><path d="M362.37,616.94c-3.11.72-3.48.42-3.1-2.52Z" transform="translate(-98 -220.89)"/><path d="M228.44,635a7.44,7.44,0,0,1,2.42.5c.45.27.54,1.16.79,1.77l-.53.37-2.82-1.8Z" transform="translate(-98 -220.89)"/></svg>