<svg id="レイヤー_1" data-name="レイヤー 1" xmlns="http://www.w3.org/2000/svg" viewBox="0 0 423 634.81"><defs><style>.cls-1{fill:#fff;}</style></defs><path class="cls-1" d="M258.9,719.89H86.14V85.08h423V719.89H267.51c.75-4.74,1.19-9.55,2.31-14.19,5.84-24.25,10-48.79,13.85-73.42.87-5.63.62-11.74,4.79-16.48a1.82,1.82,0,0,0,.23-1.47c-1.52-5.25.81-9.92,2.5-14.52,2.38-6.49,5.56-12.67,8.17-19.07q5.55-13.56,10.7-27.28c.58-1.54.08-3.47.08-5.23l-.79-.36c-1.76,2-3.65,3.83-5.25,5.92-1.8,2.36-3.19,5.21-7,3.55-.14-.06-.47.3-1.25.82l5.75,4.94c-1.43.77-2.79,1.61-4.24,2.26-.9.4-2.2.22-2.86.81-2.23,2-4.3,4.25-6.36,6.46-2.61,2.8-6.9,3.3-9.53.71s-4.81-5.33-7.77-8.65c-.12,1.46-.6,2.69-.23,3.55a14.68,14.68,0,0,0,8.59,7.8c1.76.69,2.4,1.51,2.22,3.36-1.29,13.05-2.1,26.16-3.86,39.14-2.55,18.88-5.66,37.68-8.79,56.48-.89,5.32-1.6,11.17-4.36,15.54-2.56,4-2.16,7.74-2.62,11.79C261.14,708.23,259.9,714.05,258.9,719.89ZM301.28,394c-1.95-9.1-3-18.2.38-27.24-.17-.07-.44-.27-.52-.21-4.63,3.58-9.29,7.12-13.77,10.87-.52.43-.37,2.3.12,3.12.79,1.37,2.62,2.25,3.12,3.66a14.52,14.52,0,0,0,10.76,9.72c0,3.28.07,6.56-.11,9.82-.05.84-.86,2.22-1.5,2.33-1.57.27-3.52.46-4.81-.24-2-1.1-3.44-.39-5.13.41A39.64,39.64,0,0,1,285.1,408c-1.11.35-2.57.11-3.38.75-3.72,3-7.24,6.18-10.9,9.21a26.86,26.86,0,0,1-4.57,3.07c-.3.15-1.53-.82-1.83-1.5-.64-1.43-.71-3.15-1.45-4.51-1.48-2.74-6.55-4.12-8.35-2.17a88.83,88.83,0,0,0-5.91,7.93l3.38,2c1.69-2,2.14-6.08,5.94-4.1,2.4,1.24,4.38,3.27,6.39,4.82a34,34,0,0,1,4.8-1.43,16.43,16.43,0,0,0,10.69-6.55c1-1.27,2.85-2.92,4.1-2.76,3.84.48,6.33-2.27,9.46-3.32,2-.68,3.07-.51,3.47,1.25.76,3.34,1.13,6.77,1.71,10.15a19,19,0,0,0,.87,2.59c2-6-.06-12.22,4.75-16.84,2,6.6,4.1,13.11,1.67,20.14-1.06,3.07-1.73,6.28-2.55,9.43-.35,1.39-.56,2.82-1,4.17A4.6,4.6,0,0,1,301.1,442c-.43.43-1.29.7-1.4,1.16-1.78,7.78-3.43,15.59-5.22,23.36a12.26,12.26,0,0,1-1.69,3c-1.05-.83-2.14-1.61-3.13-2.5-.35-.31-.43-.9-.68-1.34a28,28,0,0,0-12.06-12.11,58.89,58.89,0,0,1-6.42-4.3l.3-1a29.61,29.61,0,0,0,15.24,0c5.72-1.33,8.79-5.71,13.15-9.08a3.79,3.79,0,0,0-2.79-.53c-4.89,2-9.77,4.08-14.55,6.33-5.68,2.66-11.08,2.1-16.36-.94-.84-.49-2.06-1.28-2.12-2-.3-3.43-3-3.82-5.26-4.66l-2.19,2.05c1.16.92,2.6,1.62,3.41,2.76,4.37,6.18,11,9.57,16.93,13.77,4.9,3.48,9.65,6.91,12.09,12.61,1.18,2.74,1.65,5.91,5,6.75-.67,1.3-1.61,2.33-1.72,3.44-.55,5.6-.7,11.25-1.33,16.84-1.28,11.35-.79,22.93-5.82,33.78-1.93,4.18-2.77,9.43-.81,14.07,1.16,2.71.67,4.88-.15,7.31-1.26,3.73-.22,4.74,4.27,3.83v-17l-1.36,1c-1.17-8.13,4.38-14,5.77-21.65.94,5,3.32,5,6.65,3a3.58,3.58,0,0,1,2.69-.24c3.83,1.35,7.6,2.84,11.36,4.37,1.3.53,2.44,1.51,3.76,2,.48.16,1.34-.58,1.9-1.06a2.43,2.43,0,0,0-.73-1.37c-3-2.26-6.09-4.36-9-6.7-2.51-2-5.23-2.11-8.07-1.32a4.18,4.18,0,0,1-5.34-4.51c.64-4.66,1.2-9.33,1.61-14,1.14-13,2-26.08,5.53-38.77A111.46,111.46,0,0,0,306,443.44c1-7.39,2-14.66,6.81-20.75.87-1.11,1.45-2.58,2.53-3.37,6-4.38,12.14-8.55,18.14-12.91,2.07-1.51,3.88-3.37,6-5.21a12.66,12.66,0,0,1,.54,1.39c1.08,4.29,2.1,8.6,3.21,12.89C344.35,420,347.77,423,351,426c3.1,2.84,6.19,5.83,10.94,5.89a8.24,8.24,0,0,1,4,1.73c3.35,2.27,6.18,2,8.39-1.38a23,23,0,0,0,2.51-5.19c2.33-6.86,3-13.71.8-20.88-2.59-8.56-8.1-14.52-16.26-16.88-4.5-1.31-9.88.15-14.81.8-1.94.26-4.27,1.82-3.52,4.11.3.92,3.75,1.81,5.05,1.19,3.6-1.71,7.21-1,10.82-1a7.3,7.3,0,0,1,3.95,1.22c10,7.12,12.06,15.27,10.84,25.85-.5,4.29-3.2,6.42-7.57,6.49a10.42,10.42,0,0,1-4.33-.91c-2.34-1.05-4.52-2.43-6.79-3.64-1.17-.62-2.37-1.63-3.58-1.66-2.48-.05-3.63-1-3.63-3.45a5.5,5.5,0,0,0-.2-2.12c-1.74-4-3.64-7.87-5.32-11.86a9,9,0,0,1-1-4.5c.62-3.63.62-3.84-3.37-4.33.17,5.36-4,7.44-7.62,9.8-.64.41-2-.3-2.79-.44a15.69,15.69,0,0,1-2.16,3c-3.72,3.33-7.55,6.53-11.33,9.77l-2.52,2.14-.52-.51,4-8.1a42,42,0,0,1-5.47-1.24c-.84-.3-1.95-1.28-2-2a73.19,73.19,0,0,1-.19-8c0-1.48.76-2.26,2.14-1.48A19.66,19.66,0,0,0,323,400.6c4.77-.83,9.32-2.4,12.93-5.9a4.94,4.94,0,0,0-6.37-1.61c-3.07,1.4-5.83,3.13-9.42,2.36a8.24,8.24,0,0,0-3.34.19,13.76,13.76,0,0,1-10.37-1.88c-.49,2.21-1,4.31-1.49,6.73ZM286.17,229c1.55-.23,3-.57,4.52-.65,2.42-.12,4.86-.16,7.28-.09,3.42.1,4.92,2.29,5.11,5.39s.16,6.32.07,9.48c-.19,6.18-.56,12.36-.73,18.55-.11,4,0,8,0,12-2.6-3.37-.4-8.05-4.06-10.93a9.78,9.78,0,0,0-.67,4.21c.43,5.82,1.12,11.62,1.45,17.44.69,12.35,1.25,24.71,1.81,37.06.19,4.37.27,8.74.31,13.11q.15,13.32.2,26.65c0,1.86-.81,2.39-2.54,1.46-2.31-1.25-4.55-2.92-7-3.48A132.17,132.17,0,0,0,277.39,357c-2.79-.31-5.32-2.4-5.56-5.11a7.9,7.9,0,0,0-6.49-7c-.77-3.59-.78-3.55-4.91-4.07a8.51,8.51,0,0,1-2.22-1c-1.68-.74-3.28-1.8-5-2.16-4-.82-8.08-1.23-11.16,2.53-.31.38-1,.43-1.59.56-1.62.38-3.24.76-4.87,1.09s-3.35,1-5,.85c-3.16-.32-5.65,1.37-6.1,4.62-.21,1.52.1,2.66,1.9,2.82a48.42,48.42,0,0,0,6.32.54c3.37-.17,6.73-.71,10.09-1.09,1.07,2.8-.92,4-2.43,5.48-1.9,1.87-1.76,2.86.74,3.66a45,45,0,0,0,7.42,1.66c7.13,1,13.94.59,19.41-5a11.16,11.16,0,0,1,2.29-1.39,7.26,7.26,0,0,0,6.56,4.9c7.89.73,15.94.87,21.82,6.27l5.49-1.51L305,360a23.9,23.9,0,0,1,.42,5c.15,4.5,1.51,5.77,6,5.93a18,18,0,0,1,4.8.69c5.79,1.84,11.53,3.83,16.68,5.56a26.49,26.49,0,0,1-.86-5c0-1.68.74-3.36.94-5.06,1-8.4.95-16.94,3.6-25.13.86-2.67.74-5.8,4.35-6.65.34-.08.5-.82.79-1.21,2-2.69,3.49-6.15,6.12-7.87,4.22-2.78,9.19-4.41,13.35-6.3,2.22,3.51,4.09,6.45,5.93,9.39.93,1.48,2.23,2.87,2.67,4.49,1.36,5,2.9,9.76,2.28,15.4-1.21,10.9-3,21.1-13.62,26.74-3.71,2-7.27,5.33-12.21,4.25a2,2,0,0,0-1.66.93,40.32,40.32,0,0,0-1.83,4.21,4.74,4.74,0,0,0,1.51.24c4.12-1,8.21-2.18,12.36-3,6.05-1.23,9.28-6.07,13.28-9.94a2.88,2.88,0,0,0,.38-.83c1.59-3.62,3.55-7.13,4.69-10.89a44.23,44.23,0,0,0,2.3-12.55c0-4.16.14-8.32-1.16-12.69-1.23-4.13-2.72-7.9-5.79-10.17-3.61-2.68-3.54-5.55-2.8-9.07.52-2.4-.59-3.28-2.8-3a9.81,9.81,0,0,0-3.22.83c-2.55,1.3-4.93,3-7.56,4.13-2,.86-4.41.74-6.29,1.73a21.3,21.3,0,0,0-6.21,4.8,42.86,42.86,0,0,0-5.9,8.84,96.18,96.18,0,0,0-5.83,14.34,42.5,42.5,0,0,0-1.28,10.71,36.2,36.2,0,0,0,.8,7.52c.34,2,1,3.94,1.61,6.11a4.42,4.42,0,0,1-1.39-.16c-3-1.51-5.83-3.32-8.93-4.52a63.64,63.64,0,0,0-9.12-2.39c-2.13-.48-4.39-.52-3.4-3.85a12,12,0,0,0,.4-4.87c-.84-6.09,2.68-11.91.46-18.24-1.4-4-1.22-8.63-1.42-13-.66-14.63-1.28-29.25-1.73-43.89-.27-8.9-.08-17.82-.35-26.72-.16-5.31.39-10.39,2.65-15.24a2.61,2.61,0,0,0,.09-2c-1.7-3.18-1.55-7.27-4.94-9.66-.65-.46-.65-1.86-1.15-3.48a101.1,101.1,0,0,0-10.94-.22C288.69,224.43,285.88,225.09,286.17,229Zm50.62-57,3.55-1.93c1.25-.68,2.52-1.32,3.72-2.08,3.29-2.1,3.61-4,1.35-7.08-1.48-2-3.28-2.65-5.58-1.52-1.36.66-2.78,1.26-4.08,2-2.68,1.61-5.31,2.81-8.24-.35l4.59-2c-5-2.56-7.39,2.63-10.74,2.61-.72-2.85-1.34-5.27-1.92-7.57-2.16.66-3.78,1.19-5.42,1.64-2.9.78-5.83,1.46-8.72,2.28-2.12.61-4.22,2-6.28,2-6.18-.25-12.33-1-18.1,2.1a2.26,2.26,0,0,1-1.19.15c-3.78-.24-7.56-.43-11.33-.79-2.7-.26-5.39-1.07-8.08-1.06-4.78,0-8.67,3.85-9.32,8.76l-4.27-1-.21.63,2.44,1.81,0,.94-5.72.88a71.69,71.69,0,0,0-8.93,1.48c-2,.57-1.7,2,0,3a10.28,10.28,0,0,0,2,.61c6.84,2.26,4.9.77,3.18,7.08-.08.29-.34.52-.45.8-1.72,4.29-3.85,8.47-3.69,12.18a32.82,32.82,0,0,1,4.5,2.74,23,23,0,0,0,16.45,6.17c5.14-.2,5.51-.38,8.11,4q1.33,2.25,2.74,4.45c.85,1.36,1.75,2.69,2.63,4-2.22-6.42-4.65-12.66-11.28-16.06l-.81,2.08c-4.14-2.18-8.14-4.23-12.07-6.38-4.35-2.39-4.54-3.76-3-8.4,1.39-4.25,5.86-8.37,1.49-12.61,2.52-1.63,4.73-3.25,7.12-4.55,3.71-2,7.52-3.89,11.34-5.71a6.89,6.89,0,0,1,2.42-.1c1.33-.05,2.65-.1,4-.2,6.73-.51,13.46-1,20.18-1.56,7.08-.6,14.14-1.28,21.21-2a2.41,2.41,0,0,0,1.56-.79c1.72-2.39,3.26-2.77,5.89-1.12a4.79,4.79,0,0,1,2.05,2.09c.15.43-1,1.31-1.27,1.64,4.2.44,8.57.82,12.93,1.37,4.19.52,4.43.75,2.72,4.72a15.07,15.07,0,0,0,.09,12.2,50.92,50.92,0,0,1,2.42,7.28c1.09,4.7,1.29,9.61-1.28,13.77-3.68,6-8,11.52-12.3,17.57-2.5-2.77-4-1.18-5.47.3-1.8,1.85-3.51,2.72-6.21,1.39-1.83-.9-4.44-2.15-6.11,1.81,3.53-.14,6.48.62,8.43,3.43.09.12.56,0,.86,0,4.14-.56,8-1.62,10.25-5.64.84-1.49,1.9-2,3.44-.65a2.11,2.11,0,0,0,2,.08c3.46-4.14,7.66-8,9.92-12.72A26.76,26.76,0,0,0,342.6,196C341.54,188,338.89,180.26,336.79,172ZM242.38,423.72a28.07,28.07,0,0,0,3.54-2.17,7.06,7.06,0,0,0,1.78-2.4,17.8,17.8,0,0,0-3.63-2.81c-.6-.36-1.65-.06-2.18-.48-3.28-2.57-6.33-5.45-9.73-7.84a17.42,17.42,0,0,0-6.87-3,68.51,68.51,0,0,0-11.64-.61c-7.25.07-14.5.33-21.74.64a4.58,4.58,0,0,0-3,1.29c-2.54,2.91-4.95,6-7.24,9.08-.54.75-.42,2-.62,3.13,2.53-.94,4.4-1.68,6.31-2.32,3.59-1.2,7.36-2,10.73-3.65a3.82,3.82,0,0,1,4.42.24c1.84,1.25,3.56,2.73,5.51,3.79,6.22,3.4,12.46,6.74,18.81,9.89,2.08,1,4.49,1.38,6.75,2l.47-1.06a11,11,0,0,0-1.83-1.25c-1-.43-2.17-.48-3-1.05-6.7-4.35-13.35-8.78-20-13.2-1.11-.74-1.79-1.65-.27-2.55,1.87-1.1,3.75-2.06,5.91-.22a23,23,0,0,0,4.34,2.36l1.33-2.16A33.77,33.77,0,0,1,242.38,423.72Zm67.51,19.91,1,1.11A50.85,50.85,0,0,0,316,441.3c2.17-1.85,4.08-4,6.17-5.95,3.12-2.91,6.88-3.36,10.17-.75a90.87,90.87,0,0,1,11.13,9.95c6.8,7.52,10.22,16.66,7.7,26.55-1.54,6-5.49,11.48-8.61,17-1.86,3.32-4.19,6.37-6.31,9.54a2.27,2.27,0,0,0,2-.5c4.94-5.83,9.92-11.62,14.69-17.58a17.78,17.78,0,0,0,2.82-5.7c2.14-6.78.53-13.39-1.34-19.92a21.59,21.59,0,0,0-2.53-6,74.62,74.62,0,0,0-6.41-8.11,53,53,0,0,0-7.15-7c-3.71-2.8-7.77-5.15-12.18-8C321,430.83,313.58,435.62,309.89,443.63Zm61.93,66.19c-1.15.74-1.94,1.3-2.77,1.78-4.8,2.71-10.16,4.77-14.32,8.25-7.43,6.23-15.91,9.57-25.1,11.77-2.05.49-3.93,1.71-5.88,2.6l.27,1.07a33.79,33.79,0,0,0,5.23,0c1.88-.3,3.74-1.65,5.51-1.5,6.91.6,12.37-2.57,17.76-6.12a9.16,9.16,0,0,0,2.85-2.14c3-4.61,6.58-8.45,11.95-10.28a13,13,0,0,0,4.09-1.82c3.69-3.09,7.56-5.75,12.43-6.57-3.23-7.25-11.29-13.33-19.71-13.18-9.19.17-17.49,3.25-25.74,6.73A15.43,15.43,0,0,0,336,501.8c-.74.48-1.46,1-2.19,1.48a1.72,1.72,0,0,0,1.42.17c9-3.08,18.07-6,27.7-5.4a24.85,24.85,0,0,1,10,3c3,1.63,2.5,4.16-.61,5.8a48.07,48.07,0,0,1-5,1.89ZM244.63,432a11,11,0,0,0-10.07,3.51c-2.57,2.64-3.7,5.63-2.64,9.18.59,2,2.09,2.66,4.12,1.94,1.82-.65,3.67-1.22,5.48-1.9q5.61-2.11,11.17-4.35c.39-.15.62-.7,1.57-1.83a21.83,21.83,0,0,0-4.07,0,47,47,0,0,0-5.26,1.64c-4.87,1.74-6.79,1.39-9.16-2.07ZM281.81,272.6c2.25-1.59,4-3.31,6.14-4.25,3.91-1.76,7.76-7.91,7.38-12.22-.51-5.74-3.68-10.32-6.44-15.06a3.76,3.76,0,0,0-2.82-1.42,2.69,2.69,0,0,0-2,1.68c-.09.75.77,1.71,1.39,2.42s1.9,1.13,2.26,1.95a114.89,114.89,0,0,1,4.16,10.85c1,3.11-1.51,8.18-4.49,9.5A9.13,9.13,0,0,0,281.81,272.6Zm32.53-41.71c.73,2.74,1.66,5.45,2.17,8.23,1.07,5.84,5,6.51,9.62,5.5,3.23-.7,6.26-2.35,9.35-3.63,1.2-.49,2.33-1.12,3.5-1.68l-.32-1a13.74,13.74,0,0,0-3,.4c-2.94,1.09-5.78,2.44-8.75,3.47s-5.68-.4-6.3-2.79l7.31,1.7.31-1.07-6.48-2.83L323.3,235C318.57,236.37,317.27,232.51,314.34,230.89Zm-2.84,320.3,1,.48c5.76-1.83,10-4.94,9.8-11.75a13.94,13.94,0,0,1,0-3.35c.45-2.15-.54-2.73-2.53-2.74-1.25,3.08-2.35,6.16-3.74,9.1S313,548.44,311.5,551.19ZM260.65,220.94c1.55,7.54,7.18,11.21,13.25,14.33.59.3,2.24-.91,3-1.76.6-.65.62-1.83,1.05-3.27a15,15,0,0,1-13.29-5.38l4.72,1.71-6.83-5,1.08-1.18Zm53.81,24.54-.53.8a8.62,8.62,0,0,0,1.17,1.24c3.6,2.68,7.14,5.44,10.87,7.93a17.14,17.14,0,0,0,5.61,2.3c.86.19,2-.8,3-1.25-.86-.48-1.69-1-2.58-1.43-2.06-.95-4.24-1.65-6.2-2.76C321.94,250.14,318.22,247.77,314.46,245.48Zm-10,243.65c1.28,3.25.62,7.31,5,9,1.14.43,1.87,1.83,2.91,2.65,2.19,1.73,3.71,4.63,7.46,4.43ZM270,240.57l2.47-2.25c-1.39-.74-2.42-1.37-3.52-1.86A25.83,25.83,0,0,1,258.62,228a32.85,32.85,0,0,0-3.77-4.38c-.49-.45-1.61-.23-2.45-.32v.89Zm10,1.53a28.88,28.88,0,0,0,3.17-4.52c.14-.29-1.68-2.15-2.3-2a30,30,0,0,0-5.41,2.3ZM277.2,551.46c-1.45-4.07.36-9.08-3.49-12.05-.57,1.69-1.08,3.2-1.68,5ZM320,521l.91.31,4.51-11.82C318.85,511.48,321.49,517,320,521Zm17.79-139.08c.61,3.62-2.47,7.25-.1,10.86C337.83,389.11,341.34,385.57,337.79,381.87Zm-75.68-163.2.37-1c-1.1-2.05-2.21-4.09-3.32-6.14l-1.2.34a24.18,24.18,0,0,0,1.23,5.31C259.54,218,261.1,218.2,262.11,218.67ZM288.72,556.6l5,1.66.8-1-2.6-3.59ZM314.65,536l.71.08a10.54,10.54,0,0,0,1.14-2.88,9.84,9.84,0,0,0-.69-3c-.59.89-1.49,1.72-1.69,2.68S314.45,534.92,314.65,536Z" transform="translate(-86.14 -85.08)"/><path d="M258.9,719.89c1-5.84,2.24-11.66,2.9-17.54.46-4.05.06-7.75,2.62-11.79,2.76-4.37,3.47-10.22,4.36-15.54,3.13-18.8,6.24-37.6,8.79-56.48,1.76-13,2.57-26.09,3.86-39.14.18-1.85-.46-2.67-2.22-3.36a14.68,14.68,0,0,1-8.59-7.8c-.37-.86.11-2.09.23-3.55,3,3.32,5.21,6.14,7.77,8.65s6.92,2.09,9.53-.71c2.06-2.21,4.13-4.43,6.36-6.46.66-.59,2-.41,2.86-.81,1.45-.65,2.81-1.49,4.24-2.26l-5.75-4.94c.78-.52,1.11-.88,1.25-.82,3.8,1.66,5.19-1.19,7-3.55,1.6-2.09,3.49-3.95,5.25-5.92l.79.36c0,1.76.5,3.69-.08,5.23q-5.13,13.72-10.7,27.28c-2.61,6.4-5.79,12.58-8.17,19.07-1.69,4.6-4,9.27-2.5,14.52a1.82,1.82,0,0,1-.23,1.47c-4.17,4.74-3.92,10.85-4.79,16.48-3.81,24.63-8,49.17-13.85,73.42-1.12,4.64-1.56,9.45-2.31,14.19Zm27.68-116.44.64.15a20.4,20.4,0,0,0,1.11-2.25c1.43-3.9,2.66-7.88,4.24-11.71,2.83-6.86,5.81-13.67,8.85-20.44.84-1.86.27-3.12-1.45-2.9a9,9,0,0,0-4.28,2.48,44.06,44.06,0,0,0-4.57,5.08c-.89,1.1-2.1,2.29-2.26,3.55-1,8-1.75,16.07-2.55,24.11A8.09,8.09,0,0,0,286.58,603.45Zm-5.71,11.64.43.79c3.86-.39,5.72-1.75,5.3-4.14Z" transform="translate(-86.14 -85.08)"/><path d="M301.28,394c1.14,2,2.28,4.1,3.61,6.51.53-2.42,1-4.52,1.49-6.73a13.76,13.76,0,0,0,10.37,1.88,8.24,8.24,0,0,1,3.34-.19c3.59.77,6.35-1,9.42-2.36a4.94,4.94,0,0,1,6.37,1.61c-3.61,3.5-8.16,5.07-12.93,5.9a19.66,19.66,0,0,1-13.46-2.27c-1.38-.78-2.14,0-2.14,1.48a73.19,73.19,0,0,0,.19,8c.08.77,1.19,1.75,2,2a42,42,0,0,0,5.47,1.24l-4,8.1.52.51,2.52-2.14c3.78-3.24,7.61-6.44,11.33-9.77a15.69,15.69,0,0,0,2.16-3c.77.14,2.15.85,2.79.44,3.63-2.36,7.79-4.44,7.62-9.8,4,.49,4,.7,3.37,4.33a9,9,0,0,0,1,4.5c1.68,4,3.58,7.89,5.32,11.86a5.5,5.5,0,0,1,.2,2.12c0,2.45,1.15,3.4,3.63,3.45,1.21,0,2.41,1,3.58,1.66,2.27,1.21,4.45,2.59,6.79,3.64a10.42,10.42,0,0,0,4.33.91c4.37-.07,7.07-2.2,7.57-6.49,1.22-10.58-.8-18.73-10.84-25.85a7.3,7.3,0,0,0-3.95-1.22c-3.61,0-7.22-.67-10.82,1-1.3.62-4.75-.27-5.05-1.19-.75-2.29,1.58-3.85,3.52-4.11,4.93-.65,10.31-2.11,14.81-.8,8.16,2.36,13.67,8.32,16.26,16.88,2.17,7.17,1.53,14-.8,20.88a23,23,0,0,1-2.51,5.19c-2.21,3.34-5,3.65-8.39,1.38a8.24,8.24,0,0,0-4-1.73c-4.75-.06-7.84-3.05-10.94-5.89-3.26-3-6.68-5.95-7.85-10.51-1.11-4.29-2.13-8.6-3.21-12.89a12.66,12.66,0,0,0-.54-1.39c-2.1,1.84-3.91,3.7-6,5.21-6,4.36-12.15,8.53-18.14,12.91-1.08.79-1.66,2.26-2.53,3.37C308,428.78,307,436.05,306,443.44a111.46,111.46,0,0,1-3.44,14.78C299,470.91,298.14,484,297,497c-.41,4.68-1,9.35-1.61,14a4.18,4.18,0,0,0,5.34,4.51c2.84-.79,5.56-.69,8.07,1.32,2.92,2.34,6,4.44,9,6.7a2.43,2.43,0,0,1,.73,1.37c-.56.48-1.42,1.22-1.9,1.06-1.32-.45-2.46-1.43-3.76-2-3.76-1.53-7.53-3-11.36-4.37a3.58,3.58,0,0,0-2.69.24c-3.33,2-5.71,2-6.65-3-1.39,7.61-6.94,13.52-5.77,21.65l1.36-1v17c-4.49.91-5.53-.1-4.27-3.83.82-2.43,1.31-4.6.15-7.31-2-4.64-1.12-9.89.81-14.07,5-10.85,4.54-22.43,5.82-33.78.63-5.59.78-11.24,1.33-16.84.11-1.11,1.05-2.14,1.72-3.44-3.33-.84-3.8-4-5-6.75-2.44-5.7-7.19-9.13-12.09-12.61-5.92-4.2-12.56-7.59-16.93-13.77-.81-1.14-2.25-1.84-3.41-2.76l2.19-2.05c2.27.84,5,1.23,5.26,4.66.06.74,1.28,1.53,2.12,2,5.28,3,10.68,3.6,16.36.94,4.78-2.25,9.66-4.32,14.55-6.33a3.79,3.79,0,0,1,2.79.53c-4.36,3.37-7.43,7.75-13.15,9.08a29.61,29.61,0,0,1-15.24,0l-.3,1a58.89,58.89,0,0,0,6.42,4.3A28,28,0,0,1,289,465.66c.25.44.33,1,.68,1.34,1,.89,2.08,1.67,3.13,2.5a12.26,12.26,0,0,0,1.69-3c1.79-7.77,3.44-15.58,5.22-23.36.11-.46,1-.73,1.4-1.16a4.6,4.6,0,0,0,1.28-1.57c.45-1.35.66-2.78,1-4.17.82-3.15,1.49-6.36,2.55-9.43,2.43-7,.32-13.54-1.67-20.14-4.81,4.62-2.79,10.86-4.75,16.84a19,19,0,0,1-.87-2.59c-.58-3.38-.95-6.81-1.71-10.15-.4-1.76-1.45-1.93-3.47-1.25-3.13,1.05-5.62,3.8-9.46,3.32-1.25-.16-3.1,1.49-4.1,2.76a16.43,16.43,0,0,1-10.69,6.55,34,34,0,0,0-4.8,1.43c-2-1.55-4-3.58-6.39-4.82-3.8-2-4.25,2.14-5.94,4.1l-3.38-2a88.83,88.83,0,0,1,5.91-7.93c1.8-1.95,6.87-.57,8.35,2.17.74,1.36.81,3.08,1.45,4.51.3.68,1.53,1.65,1.83,1.5a26.86,26.86,0,0,0,4.57-3.07c3.66-3,7.18-6.25,10.9-9.21.81-.64,2.27-.4,3.38-.75a39.64,39.64,0,0,0,4.72-1.82c1.69-.8,3.1-1.51,5.13-.41,1.29.7,3.24.51,4.81.24.64-.11,1.45-1.49,1.5-2.33.18-3.26.09-6.54.11-9.82Z" transform="translate(-86.14 -85.08)"/><path d="M286.17,229c-.29-3.92,2.52-4.58,4.92-4.76a101.1,101.1,0,0,1,10.94.22c.5,1.62.5,3,1.15,3.48,3.39,2.39,3.24,6.48,4.94,9.66a2.61,2.61,0,0,1-.09,2c-2.26,4.85-2.81,9.93-2.65,15.24.27,8.9.08,17.82.35,26.72.45,14.64,1.07,29.26,1.73,43.89.2,4.36,0,9,1.42,13,2.22,6.33-1.3,12.15-.46,18.24a12,12,0,0,1-.4,4.87c-1,3.33,1.27,3.37,3.4,3.85a63.64,63.64,0,0,1,9.12,2.39c3.1,1.2,5.95,3,8.93,4.52a4.42,4.42,0,0,0,1.39.16c-.59-2.17-1.27-4.11-1.61-6.11a36.2,36.2,0,0,1-.8-7.52,42.5,42.5,0,0,1,1.28-10.71,96.18,96.18,0,0,1,5.83-14.34,42.86,42.86,0,0,1,5.9-8.84,21.3,21.3,0,0,1,6.21-4.8c1.88-1,4.31-.87,6.29-1.73,2.63-1.14,5-2.83,7.56-4.13a9.81,9.81,0,0,1,3.22-.83c2.21-.26,3.32.62,2.8,3-.74,3.52-.81,6.39,2.8,9.07,3.07,2.27,4.56,6,5.79,10.17,1.3,4.37,1.16,8.53,1.16,12.69A44.23,44.23,0,0,1,375,361c-1.14,3.76-3.1,7.27-4.69,10.89a2.88,2.88,0,0,1-.38.83c-4,3.87-7.23,8.71-13.28,9.94-4.15.84-8.24,2-12.36,3a4.74,4.74,0,0,1-1.51-.24,40.32,40.32,0,0,1,1.83-4.21,2,2,0,0,1,1.66-.93c4.94,1.08,8.5-2.27,12.21-4.25,10.58-5.64,12.41-15.84,13.62-26.74.62-5.64-.92-10.39-2.28-15.4-.44-1.62-1.74-3-2.67-4.49-1.84-2.94-3.71-5.88-5.93-9.39-4.16,1.89-9.13,3.52-13.35,6.3-2.63,1.72-4.12,5.18-6.12,7.87-.29.39-.45,1.13-.79,1.21-3.61.85-3.49,4-4.35,6.65-2.65,8.19-2.6,16.73-3.6,25.13-.2,1.7-.94,3.38-.94,5.06a26.49,26.49,0,0,0,.86,5c-5.15-1.73-10.89-3.72-16.68-5.56a18,18,0,0,0-4.8-.69c-4.48-.16-5.84-1.43-6-5.93a23.9,23.9,0,0,0-.42-5l-.93,3.61-5.49,1.51c-5.88-5.4-13.93-5.54-21.82-6.27a7.26,7.26,0,0,1-6.56-4.9,11.16,11.16,0,0,0-2.29,1.39c-5.47,5.61-12.28,6-19.41,5a45,45,0,0,1-7.42-1.66c-2.5-.8-2.64-1.79-.74-3.66,1.51-1.49,3.5-2.68,2.43-5.48-3.36.38-6.72.92-10.09,1.09a48.42,48.42,0,0,1-6.32-.54c-1.8-.16-2.11-1.3-1.9-2.82.45-3.25,2.94-4.94,6.1-4.62,1.61.16,3.31-.51,5-.85s3.25-.71,4.87-1.09c.55-.13,1.28-.18,1.59-.56,3.08-3.76,7.14-3.35,11.16-2.53,1.76.36,3.36,1.42,5,2.16a8.51,8.51,0,0,0,2.22,1c4.13.52,4.14.48,4.91,4.07a7.9,7.9,0,0,1,6.49,7c.24,2.71,2.77,4.8,5.56,5.11a132.17,132.17,0,0,1,14.47,2.18c2.49.56,4.73,2.23,7,3.48,1.73.93,2.55.4,2.54-1.46q-.06-13.32-.2-26.65c0-4.37-.12-8.74-.31-13.11-.56-12.35-1.12-24.71-1.81-37.06-.33-5.82-1-11.62-1.45-17.44a9.78,9.78,0,0,1,.67-4.21c3.66,2.88,1.46,7.56,4.06,10.93,0-4-.09-8,0-12,.17-6.19.54-12.37.73-18.55.09-3.16.12-6.33-.07-9.48s-1.69-5.29-5.11-5.39c-2.42-.07-4.86,0-7.28.09C289.2,228.44,287.72,228.78,286.17,229ZM262.42,345.54l-.16-1c-4.27-.4-9-2.11-12.67-.84-4.11,1.42-9-1.35-12.44,2.26l0,1.32,9.31,1.42c.07-.26,0-.05,0,.12-.83,1.86-2.76,4.16-2.23,5.46s3.35,2.17,5.27,2.89c5,1.88,9.36-.93,13.83-2.44,1.87-.64,2.54-2.31,1-3.87a38.6,38.6,0,0,0-4.71-3.65Z" transform="translate(-86.14 -85.08)"/><path d="M336.79,172c2.1,8.28,4.75,16,5.81,24a26.76,26.76,0,0,1-2.37,14.28c-2.26,4.75-6.46,8.58-9.92,12.72a2.11,2.11,0,0,1-2-.08c-1.54-1.4-2.6-.84-3.44.65-2.26,4-6.11,5.08-10.25,5.64-.3,0-.77.15-.86,0-1.95-2.81-4.9-3.57-8.43-3.43,1.67-4,4.28-2.71,6.11-1.81,2.7,1.33,4.41.46,6.21-1.39,1.44-1.48,3-3.07,5.47-.3,4.28-6.05,8.62-11.61,12.3-17.57,2.57-4.16,2.37-9.07,1.28-13.77a50.92,50.92,0,0,0-2.42-7.28,15.07,15.07,0,0,1-.09-12.2c1.71-4,1.47-4.2-2.72-4.72-4.36-.55-8.73-.93-12.93-1.37.27-.33,1.42-1.21,1.27-1.64a4.79,4.79,0,0,0-2.05-2.09c-2.63-1.65-4.17-1.27-5.89,1.12a2.41,2.41,0,0,1-1.56.79c-7.07.69-14.13,1.37-21.21,2-6.72.57-13.45,1-20.18,1.56-1.32.1-2.64.15-4,.2a6.89,6.89,0,0,0-2.42.1c-3.82,1.82-7.63,3.68-11.34,5.71-2.39,1.3-4.6,2.92-7.12,4.55,4.37,4.24-.1,8.36-1.49,12.61-1.51,4.64-1.32,6,3,8.4,3.93,2.15,7.93,4.2,12.07,6.38l.81-2.08c6.63,3.4,9.06,9.64,11.28,16.06-.88-1.35-1.78-2.68-2.63-4s-1.85-2.95-2.74-4.45c-2.6-4.42-3-4.24-8.11-4a23,23,0,0,1-16.45-6.17,32.82,32.82,0,0,0-4.5-2.74c-.16-3.71,2-7.89,3.69-12.18.11-.28.37-.51.45-.8,1.72-6.31,3.66-4.82-3.18-7.08a10.28,10.28,0,0,1-2-.61c-1.69-1-2-2.46,0-3a71.69,71.69,0,0,1,8.93-1.48l5.72-.88,0-.94-2.44-1.81.21-.63,4.27,1c.65-4.91,4.54-8.74,9.32-8.76,2.69,0,5.38.8,8.08,1.06,3.77.36,7.55.55,11.33.79a2.26,2.26,0,0,0,1.19-.15c5.77-3.1,11.92-2.35,18.1-2.1,2.06.08,4.16-1.36,6.28-2,2.89-.82,5.82-1.5,8.72-2.28,1.64-.45,3.26-1,5.42-1.64.58,2.3,1.2,4.72,1.92,7.57,3.35,0,5.76-5.17,10.74-2.61l-4.59,2c2.93,3.16,5.56,2,8.24.35,1.3-.78,2.72-1.38,4.08-2,2.3-1.13,4.1-.5,5.58,1.52,2.26,3.08,1.94,5-1.35,7.08-1.2.76-2.47,1.4-3.72,2.08Z" transform="translate(-86.14 -85.08)"/><path d="M242.38,423.72a33.77,33.77,0,0,0-21.9-14.35l-1.33,2.16a23,23,0,0,1-4.34-2.36c-2.16-1.84-4-.88-5.91.22-1.52.9-.84,1.81.27,2.55,6.67,4.42,13.32,8.85,20,13.2.87.57,2.06.62,3,1.05a11,11,0,0,1,1.83,1.25l-.47,1.06c-2.26-.65-4.67-1-6.75-2-6.35-3.15-12.59-6.49-18.81-9.89-1.95-1.06-3.67-2.54-5.51-3.79a3.82,3.82,0,0,0-4.42-.24c-3.37,1.64-7.14,2.45-10.73,3.65-1.91.64-3.78,1.38-6.31,2.32.2-1.13.08-2.38.62-3.13,2.29-3.12,4.7-6.17,7.24-9.08a4.58,4.58,0,0,1,3-1.29c7.24-.31,14.49-.57,21.74-.64a68.51,68.51,0,0,1,11.64.61,17.42,17.42,0,0,1,6.87,3c3.4,2.39,6.45,5.27,9.73,7.84.53.42,1.58.12,2.18.48a17.8,17.8,0,0,1,3.63,2.81,7.06,7.06,0,0,1-1.78,2.4A28.07,28.07,0,0,1,242.38,423.72Z" transform="translate(-86.14 -85.08)"/><path d="M309.89,443.63c3.69-8,11.08-12.8,16.25-18.76,4.41,2.86,8.47,5.21,12.18,8a53,53,0,0,1,7.15,7,74.62,74.62,0,0,1,6.41,8.11,21.59,21.59,0,0,1,2.53,6c1.87,6.53,3.48,13.14,1.34,19.92a17.78,17.78,0,0,1-2.82,5.7c-4.77,6-9.75,11.75-14.69,17.58a2.27,2.27,0,0,1-2,.5c2.12-3.17,4.45-6.22,6.31-9.54,3.12-5.57,7.07-11,8.61-17,2.52-9.89-.9-19-7.7-26.55a90.87,90.87,0,0,0-11.13-9.95c-3.29-2.61-7.05-2.16-10.17.75-2.09,1.95-4,4.1-6.17,5.95a50.85,50.85,0,0,1-5.12,3.44Z" transform="translate(-86.14 -85.08)"/><path d="M371.82,509.82l-4.43-1.07a48.07,48.07,0,0,0,5-1.89c3.11-1.64,3.58-4.17.61-5.8a24.85,24.85,0,0,0-10-3c-9.63-.6-18.71,2.32-27.7,5.4a1.72,1.72,0,0,1-1.42-.17c.73-.5,1.45-1,2.19-1.48a15.43,15.43,0,0,1,2.35-1.44c8.25-3.48,16.55-6.56,25.74-6.73,8.42-.15,16.48,5.93,19.71,13.18-4.87.82-8.74,3.48-12.43,6.57a13,13,0,0,1-4.09,1.82c-5.37,1.83-8.95,5.67-11.95,10.28a9.16,9.16,0,0,1-2.85,2.14c-5.39,3.55-10.85,6.72-17.76,6.12-1.77-.15-3.63,1.2-5.51,1.5a33.79,33.79,0,0,1-5.23,0l-.27-1.07c1.95-.89,3.83-2.11,5.88-2.6,9.19-2.2,17.67-5.54,25.1-11.77,4.16-3.48,9.52-5.54,14.32-8.25C369.88,511.12,370.67,510.56,371.82,509.82Z" transform="translate(-86.14 -85.08)"/><path d="M301.37,393.89a14.52,14.52,0,0,1-10.76-9.72c-.5-1.41-2.33-2.29-3.12-3.66-.49-.82-.64-2.69-.12-3.12,4.48-3.75,9.14-7.29,13.77-10.87.08-.06.35.14.52.21-3.35,9-2.33,18.14-.38,27.25Z" transform="translate(-86.14 -85.08)"/><path d="M244.63,432l-8.86,6.16c2.37,3.46,4.29,3.81,9.16,2.07a47,47,0,0,1,5.26-1.64,21.83,21.83,0,0,1,4.07,0c-.95,1.13-1.18,1.68-1.57,1.83q-5.56,2.24-11.17,4.35c-1.81.68-3.66,1.25-5.48,1.9-2,.72-3.53,0-4.12-1.94-1.06-3.55.07-6.54,2.64-9.18A11,11,0,0,1,244.63,432Z" transform="translate(-86.14 -85.08)"/><path d="M281.81,272.6a9.13,9.13,0,0,1,5.54-6.55c3-1.32,5.47-6.39,4.49-9.5a114.89,114.89,0,0,0-4.16-10.85c-.36-.82-1.6-1.21-2.26-1.95s-1.48-1.67-1.39-2.42a2.69,2.69,0,0,1,2-1.68,3.76,3.76,0,0,1,2.82,1.42c2.76,4.74,5.93,9.32,6.44,15.06.38,4.31-3.47,10.46-7.38,12.22C285.83,269.29,284.06,271,281.81,272.6Z" transform="translate(-86.14 -85.08)"/><path d="M314.34,230.89c2.93,1.62,4.23,5.48,9,4.08l-1.58,2.22L328.2,240l-.31,1.07-7.31-1.7c.62,2.39,3.39,3.8,6.3,2.79s5.81-2.38,8.75-3.47a13.74,13.74,0,0,1,3-.4l.32,1c-1.17.56-2.3,1.19-3.5,1.68-3.09,1.28-6.12,2.93-9.35,3.63-4.6,1-8.55.34-9.62-5.5C316,236.34,315.07,233.63,314.34,230.89Z" transform="translate(-86.14 -85.08)"/><path d="M311.5,551.19c1.51-2.75,3.14-5.43,4.47-8.26s2.49-6,3.74-9.1c2,0,3,.59,2.53,2.74a13.94,13.94,0,0,0,0,3.35c.2,6.81-4,9.92-9.8,11.75Z" transform="translate(-86.14 -85.08)"/><path d="M260.65,220.94l3-.56-1.08,1.18,6.83,5-4.72-1.71A15,15,0,0,0,278,230.24c-.43,1.44-.45,2.62-1.05,3.27-.8.85-2.45,2.06-3,1.76C267.83,232.15,262.2,228.48,260.65,220.94Z" transform="translate(-86.14 -85.08)"/><path d="M314.46,245.48c3.76,2.29,7.48,4.66,11.32,6.83,2,1.11,4.14,1.81,6.2,2.76.89.41,1.72.95,2.58,1.43-1,.45-2.12,1.44-3,1.25a17.14,17.14,0,0,1-5.61-2.3c-3.73-2.49-7.27-5.25-10.87-7.93a8.62,8.62,0,0,1-1.17-1.24Z" transform="translate(-86.14 -85.08)"/><path d="M304.41,489.13l15.42,16.07c-3.75.2-5.27-2.7-7.46-4.43-1-.82-1.77-2.22-2.91-2.65C305,496.44,305.69,492.38,304.41,489.13Z" transform="translate(-86.14 -85.08)"/><path d="M270,240.57l-17.55-16.36v-.89c.84.09,2-.13,2.45.32a32.85,32.85,0,0,1,3.77,4.38,25.83,25.83,0,0,0,10.29,8.44c1.1.49,2.13,1.12,3.52,1.86Z" transform="translate(-86.14 -85.08)"/><path d="M280,242.1l-4.54-4.23a30,30,0,0,1,5.41-2.3c.62-.14,2.44,1.72,2.3,2A28.88,28.88,0,0,1,280,242.1Z" transform="translate(-86.14 -85.08)"/><path d="M277.2,551.46,272,544.37c.6-1.76,1.11-3.27,1.68-5C277.56,542.38,275.75,547.39,277.2,551.46Z" transform="translate(-86.14 -85.08)"/><path d="M320,521c1.49-4-1.15-9.47,5.42-11.51l-4.51,11.82Z" transform="translate(-86.14 -85.08)"/><path d="M337.79,381.87c3.55,3.7,0,7.24-.1,10.86C335.32,389.12,338.4,385.49,337.79,381.87Z" transform="translate(-86.14 -85.08)"/><path d="M262.11,218.67c-1-.47-2.57-.68-2.92-1.45a24.18,24.18,0,0,1-1.23-5.31l1.2-.34c1.11,2.05,2.22,4.09,3.32,6.14Z" transform="translate(-86.14 -85.08)"/><path d="M288.72,556.6l3.23-2.93,2.6,3.59-.8,1Z" transform="translate(-86.14 -85.08)"/><path d="M314.65,536c-.2-1-.72-2.13-.53-3.08s1.1-1.79,1.69-2.68a9.84,9.84,0,0,1,.69,3,10.54,10.54,0,0,1-1.14,2.88Z" transform="translate(-86.14 -85.08)"/><path class="cls-1" d="M286.58,603.45a8.09,8.09,0,0,1-.27-1.93c.8-8,1.55-16.09,2.55-24.11.16-1.26,1.37-2.45,2.26-3.55a44.06,44.06,0,0,1,4.57-5.08A9,9,0,0,1,300,566.3c1.72-.22,2.29,1,1.45,2.9-3,6.77-6,13.58-8.85,20.44-1.58,3.83-2.81,7.81-4.24,11.71a20.4,20.4,0,0,1-1.11,2.25Z" transform="translate(-86.14 -85.08)"/><path class="cls-1" d="M280.87,615.09l5.73-3.35c.42,2.39-1.44,3.75-5.3,4.14Z" transform="translate(-86.14 -85.08)"/><path class="cls-1" d="M262.42,345.54l-2.84,1.69a38.6,38.6,0,0,1,4.71,3.65c1.52,1.56.85,3.23-1,3.87-4.47,1.51-8.79,4.32-13.83,2.44-1.92-.72-4.67-1.44-5.27-2.89s1.4-3.6,2.23-5.46c.08-.17.1-.38,0-.12l-9.31-1.42,0-1.32c3.42-3.61,8.33-.84,12.44-2.26,3.69-1.27,8.4.44,12.67.84Z" transform="translate(-86.14 -85.08)"/></svg>