<svg id="レイヤー_1" data-name="レイヤー 1" xmlns="http://www.w3.org/2000/svg" viewBox="0 0 457.77 687"><defs><style>.cls-1{fill:#fff;}</style></defs><path class="cls-1" d="M262.19,764.44h-187v-687H533v687H272.17a27.39,27.39,0,0,1,.12-5c3.33-16.42,6.92-32.79,10.08-49.24,2.42-12.59,4.24-25.3,6.47-37.93,1.21-6.86,1.27-14,4.9-20.32a7.14,7.14,0,0,0,.82-3.5c-.17-8.87,3.45-16.7,6.71-24.61,4.19-10.15,8.85-20.11,12.66-30.39,2.07-5.56,4.77-10.05,10.1-12.8a12.13,12.13,0,0,0,6.88-9.81c.24-1.77,1.62-4.21,3.11-4.83a38.7,38.7,0,0,1,10.78-2.6c9.79-1,17.82-4.92,24.15-12.54a33.2,33.2,0,0,1,7.75-7.23c5.41-3.29,11.19-6,16.9-8.77,2.54-1.23,2.78-2.56,1.45-4.94-3.47-6.23-9.3-9.29-15.73-10.34-7.68-1.25-15.23.88-22.52,3.53a9,9,0,0,1-4.11.82c-.7-.12-1.69-1.79-1.6-2.67.1-1.07,1.12-2.1,1.88-3,3-3.71,6.2-7.24,8.93-11.11,2.12-3,4.3-6.26,5.3-9.73,2.94-10.18-.17-19.65-5.35-28.26-5.62-9.34-14.09-15.94-23.27-21.71-2.85-1.79-4.84-1.39-6.94.87-3.79,4-7.58,8.08-11.46,12-1.36,1.39-3,2.53-5,4.17-.51-1.94-1-2.9-1-3.81.92-9.3,4.27-17.52,11.69-23.52,5.57-4.51,11.42-8.66,17.2-12.89,3.8-2.79,6.34-1.94,7.5,2.59,2.36,9.16,6.71,17.19,14.81,22.21,4.74,2.93,10.35,4.52,15.69,6.36,2.34.81,4.56-.27,6-2.47a32.15,32.15,0,0,0,5-23.19c-1.86-12.27-11.95-25-27.11-24.23-1.5.08-3.05-.57-4.57-.88l-.19-1.12c3-1.51,5.9-3.25,9-4.46,6.74-2.62,11.18-7.6,14.77-13.57,3.82-6.34,5.5-13.28,6.31-20.57,1.15-10.29-.13-19.82-7.52-27.72a10.09,10.09,0,0,1-3-7.07c-.11-4.95-2.21-6.23-6.89-4.46-3.57,1.36-7,3.18-10.6,4.35a23.81,23.81,0,0,0-11.95,8.28c-9.91,12.72-14.29,26.95-12.33,43,.4,3.34-1.7,5-4.91,3.81s-6.27-2.56-9.45-3.74c-8.45-3.12-7.71-1.52-7.53-11.81,0-.32.12-.65.16-1a96.68,96.68,0,0,0,.25-21.71c-1.15-12.86-2.56-25.72-3-38.61-.54-16.15-.24-32.33-.19-48.5,0-3.73-.12-7.63.89-11.14a16.47,16.47,0,0,0-.86-12.35,5.82,5.82,0,0,1-.54-1.2c-.71-3,.28-4.46,3.32-3.83,1.93.4,4.32,1.7,5.2,3.32,1.63,3,2.1,6.61,3.46,9.79.82,1.93,2,4.19,3.71,5.14,3.27,1.83,12.06-.42,13.56-3.29-5.18-2.66-10.38-5.26-15.5-8-1.56-.83-3-2.47-1.17-4,3.25-2.71,6.56-6.1,10.41-7.15,4.54-1.24,7.06-3.94,9.78-7.14,6.34-7.48,7.88-16.29,6.95-25.59-.42-4.18-1.88-8.32-3.25-12.34-2.2-6.43-2.66-11.95,4.94-15.26,2.25-1,3.24-3.28,1.93-5.87s-3.41-3.95-6.45-2.95a44.31,44.31,0,0,1-5.89,2c-1.07.2-2.86-.23-3.37-1-1.41-2.18-3.2-2.21-5.17-1.49-2.9,1.05-4.92.55-6.73-2.19a5.77,5.77,0,0,0-4.28-2c-8.26,0-15.56,5.31-24.12,4.46-3.23-.32-6.57.61-9.87.93-4.46.43-8.91,1.05-13.38,1.17-4.07.1-8.17-.35-12.25-.58-4.23-.23-7.29,2-10.11,4.76-3.43,3.39-6.74,6.94-12,7.4a11.47,11.47,0,0,0-4.08,1.18,16,16,0,0,0-2.86,2.33A12.78,12.78,0,0,0,238,177.5c4.06,2.46,4.53,3.7,2.82,8.05a75.58,75.58,0,0,0-3.48,9.53c-.37,1.55,0,4.19,1,5,6.81,5.33,14.24,9.36,23.2,10a8.38,8.38,0,0,1,5.17,3,48.71,48.71,0,0,1,4.69,8,12,12,0,0,1,.69,2.92l-1.16.62c-2-2.9-4-5.85-6.11-8.65-.63-.83-1.83-1.21-2.77-1.8-.38,1.08-1.24,2.25-1.07,3.24,2.33,13.58,11.14,22.47,22.81,28,6.16,2.91,10.36,6.46,12.2,12.65,1.16,3.9,1.41,8.07,2.24,13.24,1.27-2.44,3.1-4.34,3.09-6.23-.05-9-3.29-16.66-10.76-22.24a35,35,0,0,1-5.74-5.47c-.61-.72-.31-2.21-.42-3.35,1.09-.1,2.3-.56,3.27-.26,3,.91,5.67,2.13,7.46,5a7.33,7.33,0,0,0,4,2.79c1.05.31,2.46-.59,3.7-.95a11.24,11.24,0,0,0-1.89-2.94,33.57,33.57,0,0,0-4.56-2.65c6.14-3.43,12.63-2.42,13.75,4.27a30.5,30.5,0,0,1,.52,7.19c-.47,6.65-1.23,13.27-1.8,19.92-.17,2-.64,3.42-3,4.1a4.23,4.23,0,0,0-2.27,3.29c.12,3.95.85,7.88,1.18,11.84.94,11.56,2.18,23.12,2.59,34.71.6,16.72.65,33.46.79,50.19.05,5.3-.59,5.84-5.54,6.89a7.51,7.51,0,0,0,.41,1.24c2.22,4,2.06,4.38-1.32,7.11a63.9,63.9,0,0,0-7.05,6.51c-.89,1-1.82,3.23-1.33,3.95,3.24,4.74,5.08,10.6,10.48,13.72,3.93,2.27,4.73,5.28,2.93,11.57-1,3.51-4.12,2.41-6.64,2.79-5.92.89-11.86,1.73-16.59,6.12a105.58,105.58,0,0,1-9.29,7.42c-2.46,1.82-4.72,1.58-6.35-1.3a14.31,14.31,0,0,0-1.52-2.17c-2.24-2.73-7.3-4.59-10.19-.44-.5.72-1.27,1.24-1.84,1.91a4.22,4.22,0,0,1-5.92,1c-4-2.44-8.2-4.74-12-7.56-4.65-3.48-9.19-6.62-15.41-6.43-8.25.26-16.52.45-24.75.05s-12.9,4-16.38,10.59a7.57,7.57,0,0,0-.31,2.7,9,9,0,0,0,2.63.07c4.63-1.27,9.18-2.9,13.87-3.86a10.68,10.68,0,0,1,6.55.84c8.88,4.54,17.49,9.61,26.41,14.08,3,1.51,6.63,4.33,10,0,.25-.33,1.07-.18,1.56-.41a35.51,35.51,0,0,0,4-2c1.21-.75,2.19-2.07,3.46-2.43a4.2,4.2,0,0,1,3.46.9c.54.54.43,2.28,0,3.2-1.92,4.08-5.7,5.12-9.77,5.68-1.21.17-2.73.46-3.46,1.28a19.89,19.89,0,0,0-4.28,6.23,10.38,10.38,0,0,0-.16,6.78c1.06,2.67,3.91,1.92,6.13,1.23,5.1-1.59,10.19-3.23,15.21-5.05a7,7,0,0,1,7.62,1.41c1.4,1.26,2.61,2.72,4,4a79.46,79.46,0,0,0,20.58,13.35,42.74,42.74,0,0,0-4.33-5.18,13.87,13.87,0,0,1-1.48-2.71,23.25,23.25,0,0,1,2.78-1.39c5-1.76,10-3.5,15.07-5.17,1.31-.44,3-1.21,3.94-.74.76.38,1.09,2.5.9,3.74-.76,5.08-1.68,10.15-2.78,15.17A12.49,12.49,0,0,1,299,490.8c-.79.88-2.95.52-4.81.75.38,1.47.86,2.91,1.12,4.38.56,3.21,1.54,6.46,1.41,9.65-.41,9.82-1,19.66-2,29.43-.7,6.38-1.07,12.78-3.62,19s-4,12.76-2.3,19.65a21.21,21.21,0,0,1,.09,7.07c-.27,2.7,0,4.64,3,5.69a78.13,78.13,0,0,1,9.6,4.26,5.41,5.41,0,0,1,2.44,2.81c.16.47-1.4,1.49-2.12,2.31s-1.17,1.46-1.74,2.21q-3.1,4-6.19,8.09c-2.77,3.62-6.33,1.84-9.69,1.44-.09,0-.19.11,0,0,.66,2.46,2,4.86,1.82,7.16-.56,8.14-1.61,16.25-2.5,24.37-1.31,12-2.37,24.12-4.05,36.11q-2.85,20.37-6.68,40.61c-1.39,7.35-2.22,15-7.1,21.29a6.11,6.11,0,0,0-.75,3.81C265.33,748.91,264,756.7,262.19,764.44Zm15.27-393.13c-.16-8.11-5.16-12.66-10.4-16.27-3.69-2.56-8.68-3.3-13.17-4.59a7.89,7.89,0,0,0-4.59.16c-6.57,2.41-13,4.95-20.07,6-1.42.21-3,3-3.51,4.83-.67,2.46,1.86,3.1,3.61,3.3a84.75,84.75,0,0,0,9.83.29c3.68,0,4.41.76,3.26,4.3-.81,2.5-.09,4.19,2.31,4.95,8,2.54,16,2.79,23.66-1.26C271.3,371.46,273.81,369.06,277.46,371.31Zm4.15,206.27c-.84-1.86-1.65-3.64-2.45-5.42-.51.28-1.39.48-1.49.86-.56,2.39.61,4,2.72,4.92C280.46,578,280.59,577.89,281.61,577.58Z" transform="translate(-75.23 -77.45)"/><path d="M262.19,764.44c1.85-7.74,3.14-15.53,2.72-23.54a6.11,6.11,0,0,1,.75-3.81c4.88-6.28,5.71-13.94,7.1-21.29q3.8-20.22,6.68-40.61c1.68-12,2.74-24.07,4.05-36.11.89-8.12,1.94-16.23,2.5-24.37.16-2.3-1.16-4.7-1.82-7.16-.18.11-.08,0,0,0,3.36.4,6.92,2.18,9.69-1.44q3.09-4.05,6.19-8.09c.57-.75,1.12-1.51,1.74-2.21s2.28-1.84,2.12-2.31a5.41,5.41,0,0,0-2.44-2.81,78.13,78.13,0,0,0-9.6-4.26c-3-1-3.3-3-3-5.69a21.21,21.21,0,0,0-.09-7.07c-1.68-6.89-.21-13.54,2.3-19.65s2.92-12.63,3.62-19c1.07-9.77,1.63-19.61,2-29.43.13-3.19-.85-6.44-1.41-9.65-.26-1.47-.74-2.91-1.12-4.38,1.86-.23,4,.13,4.81-.75a12.49,12.49,0,0,0,2.39-5.58c1.1-5,2-10.09,2.78-15.17.19-1.24-.14-3.36-.9-3.74-1-.47-2.63.3-3.94.74-5,1.67-10.06,3.41-15.07,5.17a23.25,23.25,0,0,0-2.78,1.39,13.87,13.87,0,0,0,1.48,2.71,42.74,42.74,0,0,1,4.33,5.18,79.46,79.46,0,0,1-20.58-13.35c-1.38-1.28-2.59-2.74-4-4a7,7,0,0,0-7.62-1.41c-5,1.82-10.11,3.46-15.21,5.05-2.22.69-5.07,1.44-6.13-1.23a10.38,10.38,0,0,1,.16-6.78,19.89,19.89,0,0,1,4.28-6.23c.73-.82,2.25-1.11,3.46-1.28,4.07-.56,7.85-1.6,9.77-5.68.43-.92.54-2.66,0-3.2a4.2,4.2,0,0,0-3.46-.9c-1.27.36-2.25,1.68-3.46,2.43a35.51,35.51,0,0,1-4,2c-.49.23-1.31.08-1.56.41-3.32,4.33-7,1.51-10,0-8.92-4.47-17.53-9.54-26.41-14.08a10.68,10.68,0,0,0-6.55-.84c-4.69,1-9.24,2.59-13.87,3.86a9,9,0,0,1-2.63-.07,7.57,7.57,0,0,1,.31-2.7c3.48-6.55,8.13-11,16.38-10.59s16.5.21,24.75-.05c6.22-.19,10.76,2.95,15.41,6.43,3.77,2.82,7.93,5.12,12,7.56a4.22,4.22,0,0,0,5.92-1c.57-.67,1.34-1.19,1.84-1.91,2.89-4.15,7.95-2.29,10.19.44a14.31,14.31,0,0,1,1.52,2.17c1.63,2.88,3.89,3.12,6.35,1.3a105.58,105.58,0,0,0,9.29-7.42c4.73-4.39,10.67-5.23,16.59-6.12,2.52-.38,5.64.72,6.64-2.79,1.8-6.29,1-9.3-2.93-11.57-5.4-3.12-7.24-9-10.48-13.72-.49-.72.44-3,1.33-3.95a63.9,63.9,0,0,1,7.05-6.51c3.38-2.73,3.54-3.12,1.32-7.11a7.51,7.51,0,0,1-.41-1.24c5-1.05,5.59-1.59,5.54-6.89-.14-16.73-.19-33.47-.79-50.19-.41-11.59-1.65-23.15-2.59-34.71-.33-4-1.06-7.89-1.18-11.84a4.23,4.23,0,0,1,2.27-3.29c2.31-.68,2.78-2.07,3-4.1.57-6.65,1.33-13.27,1.8-19.92a30.5,30.5,0,0,0-.52-7.19c-1.12-6.69-7.61-7.7-13.75-4.27a33.57,33.57,0,0,1,4.56,2.65,11.24,11.24,0,0,1,1.89,2.94c-1.24.36-2.65,1.26-3.7.95a7.33,7.33,0,0,1-4-2.79c-1.79-2.91-4.51-4.13-7.46-5-1-.3-2.18.16-3.27.26.11,1.14-.19,2.63.42,3.35a35,35,0,0,0,5.74,5.47C298,248.4,301.25,256,301.3,265.06c0,1.89-1.82,3.79-3.09,6.23-.83-5.17-1.08-9.34-2.24-13.24-1.84-6.19-6-9.74-12.2-12.65-11.67-5.52-20.48-14.41-22.81-28-.17-1,.69-2.16,1.07-3.24.94.59,2.14,1,2.77,1.8,2.14,2.8,4.09,5.75,6.11,8.65l1.16-.62a12,12,0,0,0-.69-2.92,48.71,48.71,0,0,0-4.69-8,8.38,8.38,0,0,0-5.17-3c-9-.63-16.39-4.66-23.2-10-1-.82-1.4-3.46-1-5a75.58,75.58,0,0,1,3.48-9.53c1.71-4.35,1.24-5.59-2.82-8.05a12.78,12.78,0,0,1-2.34-2.51,16,16,0,0,1,2.86-2.33,11.47,11.47,0,0,1,4.08-1.18c5.28-.46,8.59-4,12-7.4,2.82-2.78,5.88-5,10.11-4.76,4.08.23,8.18.68,12.25.58,4.47-.12,8.92-.74,13.38-1.17,3.3-.32,6.64-1.25,9.87-.93,8.56.85,15.86-4.42,24.12-4.46a5.77,5.77,0,0,1,4.28,2c1.81,2.74,3.83,3.24,6.73,2.19,2-.72,3.76-.69,5.17,1.49.51.77,2.3,1.2,3.37,1a44.31,44.31,0,0,0,5.89-2c3-1,5.09.27,6.45,2.95s.32,4.89-1.93,5.87c-7.6,3.31-7.14,8.83-4.94,15.26,1.37,4,2.83,8.16,3.25,12.34.93,9.3-.61,18.11-6.95,25.59-2.72,3.2-5.24,5.9-9.78,7.14-3.85,1.05-7.16,4.44-10.41,7.15-1.78,1.5-.39,3.14,1.17,4,5.12,2.75,10.32,5.35,15.5,8-1.5,2.87-10.29,5.12-13.56,3.29-1.68-1-2.89-3.21-3.71-5.14-1.36-3.18-1.83-6.79-3.46-9.79-.88-1.62-3.27-2.92-5.2-3.32-3-.63-4,.81-3.32,3.83a5.82,5.82,0,0,0,.54,1.2,16.47,16.47,0,0,1,.86,12.35c-1,3.51-.88,7.41-.89,11.14-.05,16.17-.35,32.35.19,48.5.43,12.89,1.84,25.75,3,38.61a96.68,96.68,0,0,1-.25,21.71c0,.33-.15.66-.16,1-.18,10.29-.92,8.69,7.53,11.81,3.18,1.18,6.28,2.56,9.45,3.74s5.31-.47,4.91-3.81c-2-16.09,2.42-30.32,12.33-43a23.81,23.81,0,0,1,11.95-8.28c3.62-1.17,7-3,10.6-4.35,4.68-1.77,6.78-.49,6.89,4.46a10.09,10.09,0,0,0,3,7.07c7.39,7.9,8.67,17.43,7.52,27.72-.81,7.29-2.49,14.23-6.31,20.57-3.59,6-8,10.95-14.77,13.57-3.1,1.21-6,2.95-9,4.46l.19,1.12c1.52.31,3.07,1,4.57.88,15.16-.74,25.25,12,27.11,24.23a32.15,32.15,0,0,1-5,23.19c-1.42,2.2-3.64,3.28-6,2.47-5.34-1.84-10.95-3.43-15.69-6.36-8.1-5-12.45-13.05-14.81-22.21-1.16-4.53-3.7-5.38-7.5-2.59-5.78,4.23-11.63,8.38-17.2,12.89-7.42,6-10.77,14.22-11.69,23.52-.09.91.45,1.87,1,3.81,2-1.64,3.61-2.78,5-4.17,3.88-4,7.67-8,11.46-12,2.1-2.26,4.09-2.66,6.94-.87,9.18,5.77,17.65,12.37,23.27,21.71,5.18,8.61,8.29,18.08,5.35,28.26-1,3.47-3.18,6.71-5.3,9.73-2.73,3.87-6,7.4-8.93,11.11-.76.94-1.78,2-1.88,3-.09.88.9,2.55,1.6,2.67a9,9,0,0,0,4.11-.82c7.29-2.65,14.84-4.78,22.52-3.53,6.43,1,12.26,4.11,15.73,10.34,1.33,2.38,1.09,3.71-1.45,4.94-5.71,2.78-11.49,5.48-16.9,8.77A33.2,33.2,0,0,0,369,550.9c-6.33,7.62-14.36,11.57-24.15,12.54A38.7,38.7,0,0,0,334,566c-1.49.62-2.87,3.06-3.11,4.83a12.13,12.13,0,0,1-6.88,9.81c-5.33,2.75-8,7.24-10.1,12.8-3.81,10.28-8.47,20.24-12.66,30.39-3.26,7.91-6.88,15.74-6.71,24.61a7.14,7.14,0,0,1-.82,3.5c-3.63,6.31-3.69,13.46-4.9,20.32-2.23,12.63-4,25.34-6.47,37.93-3.16,16.45-6.75,32.82-10.08,49.24a27.39,27.39,0,0,0-.12,5ZM343.5,530.9l-.86-.95c3.11-4.7,5.73-9.84,9.45-14,6.61-7.41,11.56-15.56,11.47-25.58-.16-17.72-9.8-28.88-24.71-36.88a4.27,4.27,0,0,0-3.65.07,103.82,103.82,0,0,0-10.56,7.72c-2.65,2.25-4.55,5.26-8.47,6-1.37.24-3.1,2.15-3.48,3.6-2.17,8.35-4.2,16.75-5.84,25.22-1,5.29-1.33,10.72-1.84,16.1-.81,8.56-1.66,17.13-2.21,25.71-.23,3.59,1.4,4.52,5.07,5a46.42,46.42,0,0,1,9.7,2.56c1.7.61,3.13,2,4.63,3.13,2.7,2,3.84,1.59,4.68-1.65a22.85,22.85,0,0,1,2.23-6.12c1.84-3,4.16-5.73-1.08-8.55l6.9-1.6c-.47,1.73-.8,2.94-1.24,4.54h5.57c-2.39,3.84-4.09,7.7-6.8,10.65-2.95,3.21-5.36,6.44-5.71,10.79-.16,1.91-.22,4.77.89,5.61,1.43,1.1,4.09.88,6.18.71a29.15,29.15,0,0,0,5.68-1.53c8-2.3,16.26-4,22.87-9.55,4.14-3.47,7.9-7.47,13.46-8.72a1.5,1.5,0,0,0,.55-.36c3.68-3.26,7.37-6.5,11-9.79,2.41-2.17,2.55-4.3-.29-5.89a28.45,28.45,0,0,0-9.74-3.52c-9.19-1.28-17.89,1.2-26.36,4.56C348.53,529.11,346,530,343.5,530.9ZM259.19,187.44l-.42,1.18a8.06,8.06,0,0,0-2.55,1.3c-.86,1-2.08,2.42-1.86,3.38.7,3.06,1.84,5.74,5.16,7.53a30.38,30.38,0,0,1,9.83,8c3.32,4.4,5.57,9.63,8.14,14.58a7.77,7.77,0,0,0,8.3,4.5c3.8-.5,7.61-.9,11.42-1.3,4.42-.46,8.83-1,13.26-1.24,2.46-.11,5.24-.18,7.38.81,4.55,2.11,6.56,1.8,9-2.68.88-1.6,1.66-3.25,2.51-4.94,4.1,3.12,4.85,3.45,6.5,1.1,4-5.66,9.22-11,7.4-17.88,1.47-1.87,3.06-3,3.32-4.37,1.05-5.73-2.79-9.2-6.16-12.82l-1.12.25c.76,4.8,1.52,9.61,2.39,15.13-3.34-3-7.76-4.18-5.74-9.55.59-1.55,0-3.51.11-5.29a12.76,12.76,0,0,1,.55-3.87c2.35-6.08,1.33-7.65-5.28-7.8-.17,0-.33-.25-1-.76,1.47-.76,2.85-1.16,3.77-2a16.76,16.76,0,0,0,2.26-3.53c-1.27-.62-2.59-1.85-3.8-1.75-3.14.28-6.21,1.34-9.35,1.71-1.64.19-3.9.18-5-.76-4.53-4-8.94-2.62-13.45-.35-3.23,1.63-6.38,3.41-9.58,5.09a2.18,2.18,0,0,1-.88.08l-1.84-2.51c-2.27,1.63-4.19,3.58-6.53,4.57a159.17,159.17,0,0,1-16.33,6,27.24,27.24,0,0,1-8.52.74c-1.16,0-2.28-1.27-3.41-2,1.14-.64,2.22-1.62,3.44-1.85,2.47-.47,5.09-.28,7.52-.86,1.53-.37,2.84-1.65,4.26-2.52-.19-.49-.38-1-.58-1.48-2.55.23-5.1.65-7.65.64-4.92,0-9.62,0-13,4.64-.9,1.25-3.28,1.36-2.88,3.76s2.12,3.17,4.27,3.88S257.19,186.29,259.19,187.44Zm87.93,211.17c1.5.28,4.1,1.33,4.51.76,2.88-3.88,7.11-3.12,10.94-4,2.94-.67,5.61-2.43,8.48-3.46a13,13,0,0,0,7.65-7.36c1.61-3.56,3.5-7.07,4.48-10.81a56.59,56.59,0,0,0,2-13.3c.1-5.42,0-11.13-6.09-14.1-.53-.26-.69-1.32-1-2-1.35-3.3-2.58-6.65-4.09-9.88-.38-.8-1.84-1.85-2.47-1.66-6.69,2-13.88,3.29-16.91,11a9,9,0,0,1-2.55,3.79c-6.74,5.13-8.08,12.61-8.68,20.23-.7,8.76-.88,17.56-1.3,26.87-5.4-2.1-11-4.2-16.51-6.48-2.41-1-5.38-2.58-6.8.12-1.32,2.51-2.07,6.46-1,8.81,1.41,3,1.12,4.66-.54,7.23-2.93,4.54-.43,9.26,4.49,9.22,2.6,0,5.24.34,7.78-.05,1.73-.27,3.3-1.57,4.94-2.4a36.06,36.06,0,0,0-3.17-4.05,25.13,25.13,0,0,0-3.71-2.6l.52-.94a26.47,26.47,0,0,1,3.68,1c2.95,1.2,5.88,2.47,8.75,3.85,2.62,1.26,4.29.57,5-2.18C346.16,403.72,346.58,401.25,347.12,398.61Zm-79.63,46.14c-.55-1.06-1-2.13-1.63-3.13a26.61,26.61,0,0,0-2.21-3.29c-2-2.44-5.47-2.12-6.67.76a29.58,29.58,0,0,0-2.5,8.14,6.23,6.23,0,0,1-4.24,5.64c-3.52,1.52-7.09,2.93-10.52,4.64-2,1-4.1,2.41-2.93,5.09s3.7,2.75,6.19,1.72c4.05-1.67,8.11-3.29,12.11-5.08,4.91-2.21,9-.69,11.82,3.89a11.85,11.85,0,0,0,5.32,4.3c6.44,2.62,12.82,1,18.72-1.74,4.91-2.25,9.38-5.46,14.3-8.39,3.64,2.33,4.88,1.68,5.54-3.47a6.1,6.1,0,0,1,.6-2.2c2.51-4.48,2.55-9.39,1.92-14.19-.4-3,.4-6.71-3.42-9.55A45.27,45.27,0,0,0,308.8,433c-.53,5.81-.83,11.65-1.48,17.45-.16,1.42-1.34,2.73-2.05,4.09l-1.25-.17c-.4-2-1.12-3.9-1.11-5.85,0-5.5.49-11,.5-16.49,0-3.14-1.76-4.19-4.83-3.17-2.47.82-4.83,2.37-7.33,2.62a11.74,11.74,0,0,0-8.11,4.38,22.81,22.81,0,0,1-6.12,4.83A101,101,0,0,1,267.49,444.75Zm99.91-26.14-.64,1a16,16,0,0,1-2.64-1.55c-2.19-1.87-4.29-2.77-6.55-.14a2.8,2.8,0,0,1-1.35.92c-2.69.66-2.44,2.24-1.62,4.29,1.9,4.77,4.64,9.27,4.16,14.78-.18,2.14,1.66,2.43,3.54,2.39,1,0,2.63.28,3,.95,2.82,5.53,8,6.24,13.27,7.11,5,.83,7-1.58,7.38-6.73.14-2,.38-4.28-3.73-2.79.74-2.28.82-4.65,1.76-5.06,2.89-1.27,2.47-3.69,1.73-5.29-2.53-5.49-5.05-11.24-10.25-14.71-1.92-1.28-5-1.1-7.5-1-.57,0-1.3,2.28-1.55,3.59C366.27,417,367,417.84,367.4,418.61ZM311.89,567.74c5.44-.54,5.63-6.23,8.56-9.42.32-.36-.24-1.77-.68-2.53a7.49,7.49,0,0,0-1.94-2.11c-1.93-1.47-3.75-3.39-6-4.12-3.9-1.31-5.8.46-5.75,4.59,0,1.18.1,2.35.15,3.5-3.7.51-4.62,2-3.45,5.36a28,28,0,0,1,1.3,2.64,4.26,4.26,0,0,1-.15,2.88,13.75,13.75,0,0,0-.65,14.53c.68,1.31,3,3,3.91,2.66a5.92,5.92,0,0,0,3.38-3.93C311.38,577.24,311.5,572.59,311.89,567.74ZM234.26,446.88a39.45,39.45,0,0,1,4.67-3.21c3.12-1.47,3.61-3,1.07-5.36a102.22,102.22,0,0,0-9.41-7.83A7.45,7.45,0,0,0,226,429c-5,.45-10,1.09-14.68-1.43a1.49,1.49,0,0,0-1-.13c-1.14.3-2.26.66-3.38,1,.62,1.06,1,2.45,1.9,3.12,4.87,3.59,9.74,7.21,14.88,10.39C227,444,230.76,445.28,234.26,446.88Zm85.24-28.74c-2.88-.47-4.05.76-4.16,3.63-.14,3.33.13,6.14,4,7.27a6.16,6.16,0,0,1,2.74,2.3c1.61,2.11,3.46,1.89,5.17.51,2.8-2.26,5.37-4.81,8.13-7.12a4.69,4.69,0,0,1,2.85-1.22,6.48,6.48,0,0,0,6.08-3.3c.8-1.22.88-2.92,1.29-4.4-1.4.06-3.06-.34-4.16.27-5.51,3-11.19,4.41-17.42,2.88C322.54,418.6,321,418.41,319.5,418.14ZM294.24,628l1.19.25a28.2,28.2,0,0,0,3.1-4.39c2.63-5.8,5.1-11.68,7.54-17.56a5.84,5.84,0,0,0,.58-3.46c-.22-.76-2.11-1.84-2.46-1.61-3.77,2.58-8.2,4.77-9.25,9.75a85,85,0,0,0-1.41,11.81A24.81,24.81,0,0,0,294.24,628Zm13.19-231h0c0,3.54-.23,7.1.12,10.6.12,1.19,1.69,2.23,2.59,3.34.64-1.11,1.65-2.16,1.87-3.35.9-4.95,1.75-9.92,2.23-14.92a14.74,14.74,0,0,0-.91-6.54c-.47-1.25-2.18-2-3.34-3-.86,1.53-2.26,3-2.47,4.62A71.43,71.43,0,0,0,307.43,397Zm-10.88,155.5c-1.48,4.65-4,8.26-3.67,12.69.32,4.23,1.2,8.42,1.86,12.62a19.93,19.93,0,0,0,.63,2.21C298.27,576.44,299.37,557.3,296.55,552.46Zm-43.4-352.3c-1.28-3.22-2.36-6.25-3.73-9.15a2.75,2.75,0,0,0-2.45-.85c-2.53.66-4.11,5.32-2.44,7.29A7.66,7.66,0,0,0,253.15,200.16Z" transform="translate(-75.23 -77.45)"/><path d="M277.46,371.31c-3.65-2.25-6.16.15-9.07,1.69-7.63,4.05-15.63,3.8-23.66,1.26-2.4-.76-3.12-2.45-2.31-4.95,1.15-3.54.42-4.33-3.26-4.3a84.75,84.75,0,0,1-9.83-.29c-1.75-.2-4.28-.84-3.61-3.3.5-1.86,2.09-4.62,3.51-4.83,7-1,13.5-3.57,20.07-6a7.89,7.89,0,0,1,4.59-.16c4.49,1.29,9.48,2,13.17,4.59C272.3,358.65,277.3,363.2,277.46,371.31Zm-21.78,1.79.13.36c3.12-.92,6.4-1.49,9.27-2.9,1.42-.7,3-3.08,2.83-4.47s-2.3-3-3.91-3.59-3.85-.35-5.77-.15c-3.37.34-4.38-.35-4.69-3.23-.1-.87-.9-1.67-1.38-2.5a18.12,18.12,0,0,0-2,2.6c-.48.92-.38,2.21-1,3-5,6.29-4.26,8.73,3.56,10.58A24,24,0,0,0,255.68,373.1ZM239.23,359l-.12,1.25c1.25.59,2.47,1.55,3.77,1.67,1.08.1,2.24-.79,3.37-1.24-.8-.74-1.53-2-2.43-2.11C242.35,358.38,240.77,358.86,239.23,359Z" transform="translate(-75.23 -77.45)"/><path d="M281.61,577.58c-1,.31-1.15.4-1.22.36-2.11-1-3.28-2.53-2.72-4.92.1-.38,1-.58,1.49-.86C280,573.94,280.77,575.72,281.61,577.58Z" transform="translate(-75.23 -77.45)"/><path class="cls-1" d="M343.5,530.9c2.5-.92,5-1.79,7.51-2.77,8.47-3.36,17.17-5.84,26.36-4.56a28.45,28.45,0,0,1,9.74,3.52c2.84,1.59,2.7,3.72.29,5.89-3.65,3.29-7.34,6.53-11,9.79a1.5,1.5,0,0,1-.55.36c-5.56,1.25-9.32,5.25-13.46,8.72-6.61,5.54-14.88,7.25-22.87,9.55a29.15,29.15,0,0,1-5.68,1.53c-2.09.17-4.75.39-6.18-.71-1.11-.84-1.05-3.7-.89-5.61.35-4.35,2.76-7.58,5.71-10.79,2.71-3,4.41-6.81,6.8-10.65h-5.57c.44-1.6.77-2.81,1.24-4.54l-6.9,1.6c5.24,2.82,2.92,5.55,1.08,8.55a22.85,22.85,0,0,0-2.23,6.12c-.84,3.24-2,3.68-4.68,1.65-1.5-1.13-2.93-2.52-4.63-3.13a46.42,46.42,0,0,0-9.7-2.56c-3.67-.49-5.3-1.42-5.07-5,.55-8.58,1.4-17.15,2.21-25.71.51-5.38.82-10.81,1.84-16.1,1.64-8.47,3.67-16.87,5.84-25.22.38-1.45,2.11-3.36,3.48-3.6,3.92-.69,5.82-3.7,8.47-6a103.82,103.82,0,0,1,10.56-7.72,4.27,4.27,0,0,1,3.65-.07c14.91,8,24.55,19.16,24.71,36.88.09,10-4.86,18.17-11.47,25.58-3.72,4.17-6.34,9.31-9.45,14Zm-16.32.93c-4.84-3.48-7-10.12-13.51-11.65C316.82,525.6,321.68,529.09,327.18,531.83Z" transform="translate(-75.23 -77.45)"/><path class="cls-1" d="M259.19,187.44c-2-1.15-3.89-2.63-6-3.34s-3.86-1.41-4.27-3.88,2-2.51,2.88-3.76c3.35-4.65,8.05-4.67,13-4.64,2.55,0,5.1-.41,7.65-.64.2.49.39,1,.58,1.48-1.42.87-2.73,2.15-4.26,2.52-2.43.58-5.05.39-7.52.86-1.22.23-2.3,1.21-3.44,1.85,1.13.69,2.25,1.93,3.41,2a27.24,27.24,0,0,0,8.52-.74,159.17,159.17,0,0,0,16.33-6c2.34-1,4.26-2.94,6.53-4.57l1.84,2.51a2.18,2.18,0,0,0,.88-.08c3.2-1.68,6.35-3.46,9.58-5.09,4.51-2.27,8.92-3.65,13.45.35,1.07.94,3.33.95,5,.76,3.14-.37,6.21-1.43,9.35-1.71,1.21-.1,2.53,1.13,3.8,1.75a16.76,16.76,0,0,1-2.26,3.53c-.92.89-2.3,1.29-3.77,2,.64.51.8.76,1,.76,6.61.15,7.63,1.72,5.28,7.8a12.76,12.76,0,0,0-.55,3.87c-.09,1.78.48,3.74-.11,5.29-2,5.37,2.4,6.59,5.74,9.55-.87-5.52-1.63-10.33-2.39-15.13l1.12-.25c3.37,3.62,7.21,7.09,6.16,12.82-.26,1.38-1.85,2.5-3.32,4.37,1.82,6.93-3.44,12.22-7.4,17.88-1.65,2.35-2.4,2-6.5-1.1-.85,1.69-1.63,3.34-2.51,4.94-2.45,4.48-4.46,4.79-9,2.68-2.14-1-4.92-.92-7.38-.81-4.43.2-8.84.78-13.26,1.24-3.81.4-7.62.8-11.42,1.3a7.77,7.77,0,0,1-8.3-4.5c-2.57-5-4.82-10.18-8.14-14.58a30.38,30.38,0,0,0-9.83-8c-3.32-1.79-4.46-4.47-5.16-7.53-.22-1,1-2.41,1.86-3.38a8.06,8.06,0,0,1,2.55-1.3ZM327,184.21a30.23,30.23,0,0,0-1-5.66c-.36-1-2.08-2.48-2.67-2.27-3.68,1.28-5.69-1.29-8.22-2.89-.83-.53-2.18-.24-3.29-.33.18,1,0,2.22.6,2.85,3.13,3.49,6.43,6.84,9.69,10.21a4.24,4.24,0,0,0,1.4.85C325.53,187.85,326.94,186.92,327,184.21Z" transform="translate(-75.23 -77.45)"/><path class="cls-1" d="M347.12,398.61c-.54,2.64-1,5.11-1.58,7.53-.7,2.75-2.37,3.44-5,2.18-2.87-1.38-5.8-2.65-8.75-3.85a26.47,26.47,0,0,0-3.68-1l-.52.94a25.13,25.13,0,0,1,3.71,2.6,36.06,36.06,0,0,1,3.17,4.05c-1.64.83-3.21,2.13-4.94,2.4-2.54.39-5.18,0-7.78.05-4.92,0-7.42-4.68-4.49-9.22,1.66-2.57,2-4.2.54-7.23-1.09-2.35-.34-6.3,1-8.81,1.42-2.7,4.39-1.12,6.8-.12,5.52,2.28,11.11,4.38,16.51,6.48.42-9.31.6-18.11,1.3-26.87.6-7.62,1.94-15.1,8.68-20.23a9,9,0,0,0,2.55-3.79c3-7.72,10.22-9,16.91-11,.63-.19,2.09.86,2.47,1.66,1.51,3.23,2.74,6.58,4.09,9.88.29.71.45,1.77,1,2,6.08,3,6.19,8.68,6.09,14.1a56.59,56.59,0,0,1-2,13.3c-1,3.74-2.87,7.25-4.48,10.81a13,13,0,0,1-7.65,7.36c-2.87,1-5.54,2.79-8.48,3.46-3.83.89-8.06.13-10.94,4C351.22,399.94,348.62,398.89,347.12,398.61Z" transform="translate(-75.23 -77.45)"/><path class="cls-1" d="M267.49,444.75a101,101,0,0,0,9.53-4.08,22.81,22.81,0,0,0,6.12-4.83,11.74,11.74,0,0,1,8.11-4.38c2.5-.25,4.86-1.8,7.33-2.62,3.07-1,4.84,0,4.83,3.17,0,5.5-.48,11-.5,16.49,0,1.95.71,3.9,1.11,5.85l1.25.17c.71-1.36,1.89-2.67,2.05-4.09.65-5.8.95-11.64,1.48-17.45a45.27,45.27,0,0,1,1.09-5.09c3.82,2.84,3,6.51,3.42,9.55.63,4.8.59,9.71-1.92,14.19a6.1,6.1,0,0,0-.6,2.2c-.66,5.15-1.9,5.8-5.54,3.47-4.92,2.93-9.39,6.14-14.3,8.39-5.9,2.7-12.28,4.36-18.72,1.74a11.85,11.85,0,0,1-5.32-4.3c-2.85-4.58-6.91-6.1-11.82-3.89-4,1.79-8.06,3.41-12.11,5.08-2.49,1-4.95,1.1-6.19-1.72s1-4.12,2.93-5.09c3.43-1.71,7-3.12,10.52-4.64a6.23,6.23,0,0,0,4.24-5.64,29.58,29.58,0,0,1,2.5-8.14c1.2-2.88,4.66-3.2,6.67-.76a26.61,26.61,0,0,1,2.21,3.29C266.46,442.62,266.94,443.69,267.49,444.75Z" transform="translate(-75.23 -77.45)"/><path class="cls-1" d="M367.4,418.61c-.37-.77-1.13-1.63-1-2.31.25-1.31,1-3.58,1.55-3.59,2.53-.07,5.58-.25,7.5,1,5.2,3.47,7.72,9.22,10.25,14.71.74,1.6,1.16,4-1.73,5.29-.94.41-1,2.78-1.76,5.06,4.11-1.49,3.87.79,3.73,2.79-.36,5.15-2.35,7.56-7.38,6.73-5.32-.87-10.45-1.58-13.27-7.11-.35-.67-2-1-3-.95-1.88,0-3.72-.25-3.54-2.39.48-5.51-2.26-10-4.16-14.78-.82-2-1.07-3.63,1.62-4.29a2.8,2.8,0,0,0,1.35-.92c2.26-2.63,4.36-1.73,6.55.14a16,16,0,0,0,2.64,1.55Zm7,16.56,1.29-1.17-9.88-10.91-1.24,1.11C365.27,430.1,371.48,431.2,374.39,435.17Z" transform="translate(-75.23 -77.45)"/><path class="cls-1" d="M311.89,567.74c-.39,4.85-.51,9.5-1.28,14a5.92,5.92,0,0,1-3.38,3.93c-1,.31-3.23-1.35-3.91-2.66a13.75,13.75,0,0,1,.65-14.53,4.26,4.26,0,0,0,.15-2.88,28,28,0,0,0-1.3-2.64c-1.17-3.36-.25-4.85,3.45-5.36,0-1.15-.14-2.32-.15-3.5-.05-4.13,1.85-5.9,5.75-4.59,2.21.73,4,2.65,6,4.12a7.49,7.49,0,0,1,1.94,2.11c.44.76,1,2.17.68,2.53C317.52,561.51,317.33,567.2,311.89,567.74Z" transform="translate(-75.23 -77.45)"/><path class="cls-1" d="M234.26,446.88c-3.5-1.6-7.25-2.88-10.52-4.9-5.14-3.18-10-6.8-14.88-10.39-.91-.67-1.28-2.06-1.9-3.12,1.12-.34,2.24-.7,3.38-1a1.49,1.49,0,0,1,1,.13C216,430.12,221,429.48,226,429a7.45,7.45,0,0,1,4.6,1.45,102.22,102.22,0,0,1,9.41,7.83c2.54,2.4,2.05,3.89-1.07,5.36A39.45,39.45,0,0,0,234.26,446.88Z" transform="translate(-75.23 -77.45)"/><path class="cls-1" d="M319.5,418.14c1.51.27,3,.46,4.53.82,6.23,1.53,11.91.14,17.42-2.88,1.1-.61,2.76-.21,4.16-.27-.41,1.48-.49,3.18-1.29,4.4a6.48,6.48,0,0,1-6.08,3.3,4.69,4.69,0,0,0-2.85,1.22c-2.76,2.31-5.33,4.86-8.13,7.12-1.71,1.38-3.56,1.6-5.17-.51a6.16,6.16,0,0,0-2.74-2.3c-3.88-1.13-4.15-3.94-4-7.27C315.45,418.9,316.62,417.67,319.5,418.14Z" transform="translate(-75.23 -77.45)"/><path class="cls-1" d="M294.24,628a24.81,24.81,0,0,1-.71-5.21A85,85,0,0,1,294.94,611c1.05-5,5.48-7.17,9.25-9.75.35-.23,2.24.85,2.46,1.61a5.84,5.84,0,0,1-.58,3.46c-2.44,5.88-4.91,11.76-7.54,17.56a28.2,28.2,0,0,1-3.1,4.39Z" transform="translate(-75.23 -77.45)"/><path class="cls-1" d="M307.43,397a71.43,71.43,0,0,1,.12-9.26c.21-1.62,1.61-3.09,2.47-4.62,1.16,1,2.87,1.76,3.34,3a14.74,14.74,0,0,1,.91,6.54c-.48,5-1.33,10-2.23,14.92-.22,1.19-1.23,2.24-1.87,3.35-.9-1.11-2.47-2.15-2.59-3.34-.35-3.5-.12-7.06-.12-10.6Z" transform="translate(-75.23 -77.45)"/><path class="cls-1" d="M296.55,552.46c2.82,4.84,1.72,24-1.18,27.52a19.93,19.93,0,0,1-.63-2.21c-.66-4.2-1.54-8.39-1.86-12.62C292.54,560.72,295.07,557.11,296.55,552.46Z" transform="translate(-75.23 -77.45)"/><path class="cls-1" d="M253.15,200.16a7.66,7.66,0,0,1-8.62-2.71c-1.67-2-.09-6.63,2.44-7.29a2.75,2.75,0,0,1,2.45.85C250.79,193.91,251.87,196.94,253.15,200.16Z" transform="translate(-75.23 -77.45)"/><path class="cls-1" d="M255.68,373.1a24,24,0,0,1-2.94-.33c-7.82-1.85-8.6-4.29-3.56-10.58.61-.76.51-2.05,1-3a18.12,18.12,0,0,1,2-2.6c.48.83,1.28,1.63,1.38,2.5.31,2.88,1.32,3.57,4.69,3.23,1.92-.2,4-.48,5.77.15s3.73,2.2,3.91,3.59-1.41,3.77-2.83,4.47c-2.87,1.41-6.15,2-9.27,2.9Z" transform="translate(-75.23 -77.45)"/><path class="cls-1" d="M239.23,359c1.54-.18,3.12-.66,4.59-.43.9.15,1.63,1.37,2.43,2.11-1.13.45-2.29,1.34-3.37,1.24-1.3-.12-2.52-1.08-3.77-1.67Z" transform="translate(-75.23 -77.45)"/><path d="M327.18,531.83c-5.5-2.74-10.36-6.23-13.51-11.65C320.19,521.71,322.34,528.35,327.18,531.83Z" transform="translate(-75.23 -77.45)"/><path d="M327,184.21c-.06,2.71-1.47,3.64-3.53,2.76a4.24,4.24,0,0,1-1.4-.85c-3.26-3.37-6.56-6.72-9.69-10.21-.56-.63-.42-1.89-.6-2.85,1.11.09,2.46-.2,3.29.33,2.53,1.6,4.54,4.17,8.22,2.89.59-.21,2.31,1.27,2.67,2.27A30.23,30.23,0,0,1,327,184.21Z" transform="translate(-75.23 -77.45)"/><path d="M374.39,435.17c-2.91-4-9.12-5.07-9.83-11l1.24-1.11L375.68,434Z" transform="translate(-75.23 -77.45)"/></svg>