<svg id="レイヤー_1" data-name="レイヤー 1" xmlns="http://www.w3.org/2000/svg" viewBox="0 0 457.77 687"><defs><style>.cls-1{fill:#fff;}</style></defs><path class="cls-1" d="M261.53,764.44H75.23v-687H533v687H272.84c1.55-8.65,3-17.31,4.67-26,2.62-13.75,5.46-27.45,8-41.22,2-10.68,3.53-21.44,5.35-32.15.59-3.42.44-7.56,2.36-10,2.6-3.29,2.07-6.48,2.29-9.88a9.83,9.83,0,0,1,.51-2.87c3.55-9.39,7.09-18.79,10.75-28.13,2.53-6.45,5.81-12.66,7.74-19.28s5.4-11.21,11.44-14.31a9.44,9.44,0,0,0,5.48-7.3c.3-2.38.65-4.75.92-6.71a44.5,44.5,0,0,0,5.05-.58c2.31-.53,4.6-2,6.84-1.87,7.57.39,13.72-2.83,19.56-7a39,39,0,0,0,5-4.81c3.19-3.27,6.14-6.77,10.71-8.39,2.29-.81,4.21-2.63,6.48-3.5,3.71-1.41,6-5.71,10.65-5.28.24,0,1.25-2.3.9-3.08a29.54,29.54,0,0,0-3.69-5.7,21,21,0,0,0-15.24-8.11,49.39,49.39,0,0,0-22.33,3.91c-2,.84-4.18,1.41-6.28,2.1,3.85-5.45,8-10.14,11.8-15,4.63-5.92,8.49-12.3,7.49-20.26a84.37,84.37,0,0,0-2.69-12.66,23.6,23.6,0,0,0-3.4-7.25,132.22,132.22,0,0,0-9.08-11.12,40.9,40.9,0,0,0-6.27-5.56c-3-2.18-6.32-3.85-9.21-6.12-3.36-2.66-3.54-2.9-6.64.33-5.89,6.14-12.62,11.55-17.12,19.08a27.3,27.3,0,0,1,.43-5.82c1-5,1.05-10.37,5.09-14.44,1.79-1.8,2.58-4.71,4.52-6.23,7.56-5.92,15.39-11.48,23.27-17.29,1.37,4.11,2.89,7.79,3.81,11.61,1.53,6.41,5.91,10.77,10.61,14.61,3.09,2.53,6.16,6,11.05,5.43a5.33,5.33,0,0,1,3,1c7.83,4.75,10.28,2.16,13.84-5.45A32.49,32.49,0,0,0,392,424.84c-2.2-6.85-6-12.76-12.06-16.41-8.34-5-17.33-4.86-26.42-1.06-.22-1.52-.28-2.58,2-3.15a148.93,148.93,0,0,0,15.72-4.9c3.86-1.46,6.47-4.66,9.44-7.52a31.84,31.84,0,0,0,7.68-12.92c2.18-6.29,2.46-13.26,3.28-20a26.28,26.28,0,0,0-.36-7.5,21.54,21.54,0,0,0-2.18-6.69,37.31,37.31,0,0,0-6.12-8.66c-1.52-1.46-2.43-2.56-2.3-4.6.09-1.43,0-2.88,0-4.32.08-2.38-1.1-3.72-3.4-3.31a46.44,46.44,0,0,0-7.74,2.2c-2.29.84-4.44,2.05-6.68,3.05-2.62,1.18-5.29,2.26-7.91,3.46-2.91,1.32-4.28,4.06-6,6.55-2,3-4.78,5.68-6.11,8.94-2.21,5.45-5.24,10.7-5,17,.13,2.86-1.18,5.75-1.42,8.66a45.47,45.47,0,0,0,.32,7.45c.12,1.44.46,2.87.76,4.61L316.81,378c0-1.7,0-4,0-6.33,0-6.41,2.23-12.63.77-19.26a110.82,110.82,0,0,1-2.09-19.19c-.64-16.21-1-32.44-1.39-48.66,0-1,.11-2,.12-3,0-3.14,0-6.29,0-9.43.13-7.15.39-14.31.39-21.46,0-3.33,3.15-6.07,1.48-9.69-1.47-3.18-2.68-6.49-4.05-9.86,1,.23,2.21.85,3.28.69,3.39-.5,4.84,1.47,5.75,4.14,1.08,3.17,2,6.4,3,9.6,1.46,4.62,3,6.34,7.8,5.44,5.44-1,10.65-3.4,15.88-5.39.61-.23.73-1.74,1.34-3.33-3.17.68-5.61,1.73-8,1.56-2.56-.18-6.05-.76-7.29-2.48-1.48-2.08-3-2.4-5-2.8-2.41-.51-3.61-2-4.27-4.3,5.11-1.1,5.16-1.15,8.77-5.35,1-1.19,1.95-2.14,3.92-1.21.88.4,2.86-.37,3.69-1.23,5.77-6,11.5-12,12.19-20.94.29-3.7.92-7.54.24-11.09-1.43-7.5-3.61-14.86-5.49-22.31,2.6-1.57,5-2.88,7.22-4.4,3-2.08,3.59-4.21,2.1-7.3-2-4.1-4.34-4.93-8.63-3.09-2.91,1.24-5.84,2.44-8.78,3.67l1.76-4.4c-4.49-2.64-7.3.92-10.46,1.72-1.12-2.31-1.82-4.89-3.45-6.58-.66-.7-3.34.56-5.1.91-.21,0-.45,0-.66,0-3,.74-6,1.51-9.07,2.25a61.71,61.71,0,0,1-7.52,1.68c-5.32.61-10.67.87-16,1.39-3.31.33-6.6,1.14-9.91,1.25s-6.78-.38-10.18-.58a27,27,0,0,1-3-.07c-5.64-1-10.65,1.53-13.47,6.81-.27.51-1.06,1.24-1.38,1.14-3.13-1-3.38,1-3.33,2.75L233.64,173c-.44,6.68,5.77,4.56,7.84,7.34-1.63,7-6.77,13-5.8,20.49,1.65.45,3.37.4,4.25,1.24,5.79,5.58,12.93,7.75,19.78,8.68.16,2.62,0,5.22.55,7.63,1.82,7.6,4.38,14.8,11.75,19.05,2.34,1.35,5,2.69,6.51,4.78,3.09,4.3,4.64,5.44,8.31,4.82,2,2,4.08,3.23,5.05,5.06,1.94,3.67,3.91,7.54,4.74,11.56.77,3.75.26,7.68-4.59,9.43-3,1.1-4.87,3.73-5.15,8,1.38-.93,2.26-1.43,3-2.06.94-.77,1.67-2.12,2.7-2.37,5.87-1.44,7.79-6.2,9.49-11.06a9.72,9.72,0,0,0,.13-4.68c-1.25-7.34-5.09-13.39-9.73-19.07l-2.17.85c-1.1-1.65-1.83-4.08-3.11-4.42-3.13-.82-2.21-3.1-2.64-5.48,2.7,3,5.69,3.93,9.16,2.21-2.28,2.16-2.11,3.26.42,4.92,1.45,1,2.53,2.58,4.06,3.29,1.14.53,3.23.63,4-.06,1.38-1.24,2.1-3.23,3-5a4.16,4.16,0,0,0-1.52-.94c-3.35-.77-6.71-1.45-10.08-2.17,3.52-.4,7-1,10.56-1.08,1.27,0,3.49,1,3.69,1.9a71.68,71.68,0,0,1,1.2,10.58,32.08,32.08,0,0,1-.3,4.57c-.1,1.33-.1,2.67-.3,4-.28,1.8-1,3.58-1,5.38,0,3.3.35,6.6.56,9.91L304,267.25c-.63,2-1.26,4.05-1.87,6.08a1.63,1.63,0,0,0,0,.66c.88,7,2.07,14,2.57,21.1.91,12.94,1.48,25.91,2,38.87.22,5.13-.36,10.32.14,15.41a132.77,132.77,0,0,1-.26,27.88c-7.26-3.88-14.49-6.33-22.41-6.24-5.44.06-5.77-.27-6.74-5.65a3.39,3.39,0,0,0-.61-1.49c-2.89-3.53-5.8-7.05-8.8-10.49-.43-.5-1.38-.58-2.11-.76-2.21-.57-4.72-.61-6.6-1.71-4.81-2.84-9.35-1.9-14,0-5.1,2.07-10.1,4.48-15.88,4.17-2.63-.14-6.39,5.51-5.41,8a3.29,3.29,0,0,0,1.91,1.89,63.38,63.38,0,0,0,9.67,1.35c2.5.1,5-.51,8.36-.9-1.24,1.65-2.12,2.66-2.81,3.79-1.25,2-1.62,4.18,1.11,5.11,3.66,1.25,7.45,2.89,11.2,2.91,7.28,0,14.66-.67,19.49-6.45,3.34,1.52,6.22,3.39,9.37,4.15A110.2,110.2,0,0,0,296.49,377c3.84.41,6.18,2.74,8.06,5-4.13,3.79-8,7.33-11.84,10.84-1.71,1.56-1.7,3.06-.31,4.89,1.58,2.1,2.81,4.47,4.41,6.55s3.19,5.08,5.43,5.89c3.81,1.39,4.23,3.66,3.89,6.91a20.34,20.34,0,0,0,0,3.66c.24,3-1.4,3-3.76,2.84a28.51,28.51,0,0,0-6.94.52c-1.54.27-3.05,1.6-4.49,1.48-3.27-.28-5.4,1.68-7.55,3.35-4.51,3.49-8.77,7.32-13.28,11.14-.84-2.14-1.33-3.45-1.86-4.75-1.71-4.18-9.38-7.19-12.49-2.81a42.67,42.67,0,0,1-3.53,4.3c-.39.41-1.4.81-1.75.6-3.75-2.24-7.47-4.52-11.1-6.95-5.06-3.38-9.2-7.63-16.13-8.38-11.24-1.23-22.29,0-33.42.33a2.83,2.83,0,0,0-.9.36c-5.94,2.49-8.7,7.74-11.24,13.13a7.06,7.06,0,0,0-.08,2.65,12.83,12.83,0,0,0,3-.18c1.74-.54,3.36-1.45,5.1-2q5.84-1.87,11.76-3.5a4,4,0,0,1,2.66.16,94.84,94.84,0,0,1,10.38,5.95c7.32,5.2,15.49,8.54,23.78,11.68,1.33.51,2.7.88,5.2,1.69a41.83,41.83,0,0,0-3.93,3.05c-2.69,2.74-4.51,5.85-4,9.94.35,2.63,2.17,4.79,4.29,4.5,4.52-.63,8.93-2.18,13.33-3.56,3.59-1.12,6.74-4.41,10.88-2.6,1.55.67,2.59,2.41,4,3.47,5.9,4.4,11.69,9,17.84,13a30,30,0,0,1,14.15,23.42c.19,2-.44,4.12-.59,6.19-.69,9.51-1.31,19-2,28.55a59.66,59.66,0,0,1-1.23,10c-.92,3.63-2.87,7-3.74,10.65-1.11,4.6-2.41,9.48-.72,14.08a11.81,11.81,0,0,1-.49,9.71c-.37.81,0,2.76.56,3.07,3.51,1.82,7.06,3.89,10.85,4.73,2.74.6,4.69,1.34,6,4.25a9.75,9.75,0,0,1-2.35,0c-.54-2.41-2.55-1.61-3.29-1s-.69,2.34-1,3.57a12.36,12.36,0,0,1-1.1,3.55c-.76,1.18-2.09,2-3,3.1-2,2.43-3.51,5.95-7.26,2.08-.11-.12-.45,0-.64,0-3.13-1.22-6.14-2.49-7.58-6-.54-1.31-1.78-2.33-2.71-3.49l-1.05.05c-.31,1.31-1.27,3-.8,3.87,2.19,4.23,5.26,7.72,9.87,9.59a2.86,2.86,0,0,1,1.64,1.92,71.69,71.69,0,0,1-.57,7.16c-.87,8.81-1.78,17.62-2.61,26.43-.51,5.34-.69,10.73-1.42,16-1.12,8.07-2.56,16.1-3.91,24.13-2,11.67-3.87,23.36-6.06,35-1,5.38-1.77,10.94-5.85,15.28-.8.84-.63,2.68-.74,4.08-.24,3.17-.24,6.37-.6,9.52C263,754.54,262.23,759.49,261.53,764.44Zm-5.06-539.07c-1,.72-1.79,1-2.09,1.6a2,2,0,0,0,.41,1.74c2.39,2.53,4.79,5.06,7.35,7.41,3.35,3.06,6.8,6,10.31,8.9a4.34,4.34,0,0,0,3,1.09c.78-.13,2-1.45,1.92-2.09a4.1,4.1,0,0,0-2-2.51c-5.66-3.15-11.09-6.43-14.42-12.38C260.08,227.58,258.07,226.67,256.47,225.37Zm64.84,24.86-.87.93a9.93,9.93,0,0,0,1.69,2.37c3.46,2.61,6.93,5.24,10.58,7.59a32,32,0,0,0,7.78,3.78c1.12.34,2.75-1,4.15-1.55-.9-.86-1.65-2-2.72-2.51-1.65-.73-3.71-.61-5.23-1.49-3.94-2.25-7.67-4.89-11.53-7.29A36.72,36.72,0,0,0,321.31,250.23ZM277.63,568.34l-.7.78c0,1,.44,2.6-.07,3-2.65,2.29-.56,3.46.76,5.08,1.06,1.3,1.58,3,2.6,4.37a9.86,9.86,0,0,0,2.6,1.71c.44-.79,1.4-1.73,1.22-2.32a109.61,109.61,0,0,0-3.84-10.59C279.82,569.53,278.51,569,277.63,568.34Zm-.34,23.6.54,1.07,5.39,1.06c.86-3.07-1.14-4.09-3-4.48C279.49,589.41,278.29,591.1,277.29,591.94Z" transform="translate(-75.23 -77.45)"/><path d="M293.75,235c-3.47,1.72-6.46.8-9.16-2.21.43,2.38-.49,4.66,2.64,5.48,1.28.34,2,2.77,3.11,4.42l2.17-.85c4.64,5.68,8.48,11.73,9.73,19.07a9.72,9.72,0,0,1-.13,4.68c-1.7,4.86-3.62,9.62-9.49,11.06-1,.25-1.76,1.6-2.7,2.37-.78.63-1.66,1.13-3,2.06.28-4.26,2.1-6.89,5.15-8,4.85-1.75,5.36-5.68,4.59-9.43-.83-4-2.8-7.89-4.74-11.56-1-1.83-3-3.09-5.05-5.06-3.67.62-5.22-.52-8.31-4.82-1.49-2.09-4.17-3.43-6.51-4.78-7.37-4.25-9.93-11.45-11.75-19.05-.58-2.41-.39-5-.55-7.63-6.85-.93-14-3.1-19.78-8.68-.88-.84-2.6-.79-4.25-1.24-1-7.47,4.17-13.49,5.8-20.49-2.07-2.78-8.28-.66-7.84-7.34l14.45-3.71c-.05-1.7.2-3.74,3.33-2.75.32.1,1.11-.63,1.38-1.14,2.82-5.28,7.83-7.81,13.47-6.81a27,27,0,0,0,3,.07c3.4.2,6.8.69,10.18.58s6.6-.92,9.91-1.25c5.33-.52,10.68-.78,16-1.39a61.71,61.71,0,0,0,7.52-1.68c3-.74,6.05-1.51,9.07-2.25.21-.06.45,0,.66,0,1.76-.35,4.44-1.61,5.1-.91,1.63,1.69,2.33,4.27,3.45,6.58,3.16-.8,6-4.36,10.46-1.72l-1.76,4.4c2.94-1.23,5.87-2.43,8.78-3.67,4.29-1.84,6.65-1,8.63,3.09,1.49,3.09.95,5.22-2.1,7.3-2.24,1.52-4.62,2.83-7.22,4.4,1.88,7.45,4.06,14.81,5.49,22.31.68,3.55.05,7.39-.24,11.09-.69,8.9-6.42,15-12.19,20.94-.83.86-2.81,1.63-3.69,1.23-2-.93-2.9,0-3.92,1.21-3.61,4.2-3.66,4.25-8.77,5.35.66,2.26,1.86,3.79,4.27,4.3,1.92.4,3.48.72,5,2.8,1.24,1.72,4.73,2.3,7.29,2.48,2.35.17,4.79-.88,8-1.56-.61,1.59-.73,3.1-1.34,3.33-5.23,2-10.44,4.38-15.88,5.39-4.78.9-6.34-.82-7.8-5.44-1-3.2-1.89-6.43-3-9.6-.91-2.67-2.36-4.64-5.75-4.14-1.07.16-2.27-.46-3.28-.69,1.37,3.37,2.58,6.68,4.05,9.86,1.67,3.62-1.48,6.36-1.48,9.69,0,7.15-.26,14.31-.39,21.46-.05,3.14,0,6.29,0,9.43,0,1-.14,2-.12,3,.43,16.22.75,32.45,1.39,48.66a110.82,110.82,0,0,0,2.09,19.19c1.46,6.63-.75,12.85-.77,19.26,0,2.31,0,4.63,0,6.33l20.74,7.76c-.3-1.74-.64-3.17-.76-4.61a45.47,45.47,0,0,1-.32-7.45c.24-2.91,1.55-5.8,1.42-8.66-.28-6.31,2.75-11.56,5-17,1.33-3.26,4.11-5.92,6.11-8.94,1.67-2.49,3-5.23,6-6.55,2.62-1.2,5.29-2.28,7.91-3.46,2.24-1,4.39-2.21,6.68-3.05a46.44,46.44,0,0,1,7.74-2.2c2.3-.41,3.48.93,3.4,3.31-.05,1.44.06,2.89,0,4.32-.13,2,.78,3.14,2.3,4.6a37.31,37.31,0,0,1,6.12,8.66,21.54,21.54,0,0,1,2.18,6.69,26.28,26.28,0,0,1,.36,7.5c-.82,6.72-1.1,13.69-3.28,20a31.84,31.84,0,0,1-7.68,12.92c-3,2.86-5.58,6.06-9.44,7.52a148.93,148.93,0,0,1-15.72,4.9c-2.25.57-2.19,1.63-2,3.15,9.09-3.8,18.08-4,26.42,1.06,6.07,3.65,9.86,9.56,12.06,16.41a32.49,32.49,0,0,1-1.46,24.36c-3.56,7.61-6,10.2-13.84,5.45a5.33,5.33,0,0,0-3-1c-4.89.59-8-2.9-11.05-5.43-4.7-3.84-9.08-8.2-10.61-14.61-.92-3.82-2.44-7.5-3.81-11.61-7.88,5.81-15.71,11.37-23.27,17.29-1.94,1.52-2.73,4.43-4.52,6.23-4,4.07-4.06,9.4-5.09,14.44a27.3,27.3,0,0,0-.43,5.82c4.5-7.53,11.23-12.94,17.12-19.08,3.1-3.23,3.28-3,6.64-.33,2.89,2.27,6.24,3.94,9.21,6.12a40.9,40.9,0,0,1,6.27,5.56,132.22,132.22,0,0,1,9.08,11.12,23.6,23.6,0,0,1,3.4,7.25,84.37,84.37,0,0,1,2.69,12.66c1,8-2.86,14.34-7.49,20.26-3.84,4.9-7.95,9.59-11.8,15,2.1-.69,4.25-1.26,6.28-2.1a49.39,49.39,0,0,1,22.33-3.91,21,21,0,0,1,15.24,8.11,29.54,29.54,0,0,1,3.69,5.7c.35.78-.66,3.1-.9,3.08-4.67-.43-6.94,3.87-10.65,5.28-2.27.87-4.19,2.69-6.48,3.5-4.57,1.62-7.52,5.12-10.71,8.39a39,39,0,0,1-5,4.81c-5.84,4.13-12,7.35-19.56,7-2.24-.12-4.53,1.34-6.84,1.87a44.5,44.5,0,0,1-5.05.58c-.27,2-.62,4.33-.92,6.71a9.44,9.44,0,0,1-5.48,7.3c-6,3.1-9.52,7.72-11.44,14.31s-5.21,12.83-7.74,19.28c-3.66,9.34-7.2,18.74-10.75,28.13a9.83,9.83,0,0,0-.51,2.87c-.22,3.4.31,6.59-2.29,9.88-1.92,2.43-1.77,6.57-2.36,10-1.82,10.71-3.39,21.47-5.35,32.15-2.51,13.77-5.35,27.47-8,41.22-1.64,8.64-3.12,17.3-4.67,26H261.53c.7-5,1.49-9.9,2.06-14.87.36-3.15.36-6.35.6-9.52.11-1.4-.06-3.24.74-4.08,4.08-4.34,4.83-9.9,5.85-15.28,2.19-11.62,4.08-23.31,6.06-35,1.35-8,2.79-16.06,3.91-24.13.73-5.3.91-10.69,1.42-16,.83-8.81,1.74-17.62,2.61-26.43a71.69,71.69,0,0,0,.57-7.16,2.86,2.86,0,0,0-1.64-1.92c-4.61-1.87-7.68-5.36-9.87-9.59-.47-.9.49-2.56.8-3.87l1.05-.05c.93,1.16,2.17,2.18,2.71,3.49,1.44,3.49,4.45,4.76,7.58,6,.19.07.53-.07.64,0,3.75,3.87,5.3.35,7.26-2.08.9-1.12,2.23-1.92,3-3.1a12.36,12.36,0,0,0,1.1-3.55c.33-1.23.24-2.9,1-3.57s2.75-1.43,3.29,1a9.75,9.75,0,0,0,2.35,0c-1.27-2.91-3.22-3.65-6-4.25-3.79-.84-7.34-2.91-10.85-4.73-.59-.31-.93-2.26-.56-3.07a11.81,11.81,0,0,0,.49-9.71c-1.69-4.6-.39-9.48.72-14.08.87-3.64,2.82-7,3.74-10.65a59.66,59.66,0,0,0,1.23-10c.73-9.51,1.35-19,2-28.55.15-2.07.78-4.16.59-6.19a30,30,0,0,0-14.15-23.42c-6.15-4-11.94-8.62-17.84-13-1.42-1.06-2.46-2.8-4-3.47-4.14-1.81-7.29,1.48-10.88,2.6-4.4,1.38-8.81,2.93-13.33,3.56-2.12.29-3.94-1.87-4.29-4.5-.54-4.09,1.28-7.2,4-9.94a41.83,41.83,0,0,1,3.93-3.05c-2.5-.81-3.87-1.18-5.2-1.69-8.29-3.14-16.46-6.48-23.78-11.68a94.84,94.84,0,0,0-10.38-5.95,4,4,0,0,0-2.66-.16q-5.92,1.62-11.76,3.5c-1.74.55-3.36,1.46-5.1,2a12.83,12.83,0,0,1-3,.18,7.06,7.06,0,0,1,.08-2.65c2.54-5.39,5.3-10.64,11.24-13.13a2.83,2.83,0,0,1,.9-.36C201,422,212,420.76,223.24,422c6.93.75,11.07,5,16.13,8.38,3.63,2.43,7.35,4.71,11.1,6.95.35.21,1.36-.19,1.75-.6a42.67,42.67,0,0,0,3.53-4.3c3.11-4.38,10.78-1.37,12.49,2.81.53,1.3,1,2.61,1.86,4.75,4.51-3.82,8.77-7.65,13.28-11.14,2.15-1.67,4.28-3.63,7.55-3.35,1.44.12,2.95-1.21,4.49-1.48a28.51,28.51,0,0,1,6.94-.52c2.36.19,4,.16,3.76-2.84a20.34,20.34,0,0,1,0-3.66c.34-3.25-.08-5.52-3.89-6.91-2.24-.81-3.78-3.75-5.43-5.89s-2.83-4.45-4.41-6.55c-1.39-1.83-1.4-3.33.31-4.89,3.87-3.51,7.71-7.05,11.84-10.84-1.88-2.21-4.22-4.54-8.06-5a110.2,110.2,0,0,1-14.17-2.07c-3.15-.76-6-2.63-9.37-4.15-4.83,5.78-12.21,6.49-19.49,6.45-3.75,0-7.54-1.66-11.2-2.91-2.73-.93-2.36-3.09-1.11-5.11.69-1.13,1.57-2.14,2.81-3.79-3.33.39-5.86,1-8.36.9a63.38,63.38,0,0,1-9.67-1.35A3.29,3.29,0,0,1,224,363c-1-2.44,2.78-8.09,5.41-8,5.78.31,10.78-2.1,15.88-4.17,4.69-1.91,9.23-2.85,14,0,1.88,1.1,4.39,1.14,6.6,1.71.73.18,1.68.26,2.11.76,3,3.44,5.91,7,8.8,10.49a3.39,3.39,0,0,1,.61,1.49c1,5.38,1.3,5.71,6.74,5.65,7.92-.09,15.15,2.36,22.41,6.24a132.77,132.77,0,0,0,.26-27.88c-.5-5.09.08-10.28-.14-15.41-.56-13-1.13-25.93-2-38.87C304.2,288,303,281,302.13,274a1.63,1.63,0,0,1,0-.66c.61-2,1.24-4.06,1.87-6.08l4.06,3.08c-.21-3.31-.57-6.61-.56-9.91,0-1.8.72-3.58,1-5.38.2-1.31.2-2.65.3-4a32.08,32.08,0,0,0,.3-4.57,71.68,71.68,0,0,0-1.2-10.58c-.2-.9-2.42-1.93-3.69-1.9-3.53.08-7,.68-10.56,1.08ZM337,533.06c2.86-2.44,4.92-4.17,7-5.94a3.63,3.63,0,0,0,.69-1.08c1.77-3.16,3.3-6.48,5.33-9.45,2.89-4.21,7-7.78,9.07-12.31,3.49-7.55,5.4-15.74,1.95-24-1.82-4.34-3.6-8.86-6.35-12.6s-6.53-6.68-10.1-9.69a30,30,0,0,0-6.94-4.18c-.46-.21-1.77,1.49-2.72,2.28a1.09,1.09,0,0,1-.64.11c-4.51-.08-6.07,4.06-8.91,6.33-2.45,2-4.31,5.43-7,6.19-5.08,1.43-6.13,4.9-6.91,9.07-.12.64-.3,1.26-.42,1.9-1.2,6.06-2.64,12.08-3.5,18.18-1,6.92-1.44,13.91-2.11,20.88q-1,10.11-1.95,20.22c-.27,2.87,1.36,3.31,3.7,3a12.06,12.06,0,0,1,3.48-.21c5.56.83,10.3,3.1,13.58,7.92.3.45,1.25.45,1.9.66,0-.64,0-1.27,0-1.91,0-.88-.41-1.9-.09-2.61,1.67-3.71,3.51-7.33,5.3-11-7.37.59-10.56-6.26-15.79-9.91-6.12-4.27-4.86-11.59-7.9-17.09a2.2,2.2,0,0,1,.44-.2c3.36-.17,6.58,3.4,6.68,7.8.05,2.56.88,4.13,3.43,4.84a5.2,5.2,0,0,1,2,1.66c1.7,1.85,3.28,3.83,5,5.64,4.27,4.41,4.76,4.34,9.74-.34A2.29,2.29,0,0,1,337,527a2.33,2.33,0,0,1,.9,1.86A26.86,26.86,0,0,1,337,533.06ZM320.69,217.84V227l1.07.7c1-1,2.46-1.76,2.9-2.94,1.2-3.23,1.82-6.67,3-9.91.43-1.16,1.79-2,2.73-2.95.78,1.18,2,2.27,2.23,3.54a31.88,31.88,0,0,1,.1,6l1.21.35c2.71-4.9,5.55-9.74,8-14.76.58-1.16.47-3.72-.31-4.3a17.09,17.09,0,0,0-7.21-3.36c-2.6-.39-3.12-1.55-3-3.62.1-2.39-.93-4-3.35-5.42a36.89,36.89,0,0,1-.07,5c-.1.67-1,1.74-1.47,1.72a2.78,2.78,0,0,1-2.12-1.35c-.85-2.48-.13-4.47,2.42-5.45-2.15-1.05-4.62-1.8-6.49-3.3s-2.62-1.09-3.61.8c-.67,1.27-1.67,3-2.8,3.28-4.12.88-7-1.32-8.42-6.17-1.35,1.47-2.65,3.93-5.07.71a34.19,34.19,0,0,1,4-3.49c.21-.14,1.52,1.38,2.09,1.93l7.3.42c-4.49-2-8-3.76-11.61-5.07-3.16-1.14-8.89,1-10.33,3.85-1.19,2.34-2.4,2.59-4.59.32-.63,1.93-1.11,3.39-1.59,4.83-3.95.31-3.9.38-7.63,3.15a5.1,5.1,0,0,1-3.36.87c-3.64-.5-7.24-1.28-11.19-2,0,2.32.13,4.31,0,6.27-.23,2.79.87,4.4,3.08,6.28,2.81,2.39,4.66,5.92,6.9,9,.43.59.55,1.64,1.08,1.9,3.64,1.74,4.06,5.58,5.4,8.61,1.67,3.76,2.75,4.59,6.71,2.77,1.29-.59,2.61-1.77,3.85-1.69,4.53.31,9,1,13.53,1.63,2.56.37,4.33-.76,4-2.76-.43-2.67-.87-5.34-1.24-8-.3-2.21,1.21-2.84,2.95-3a13.35,13.35,0,0,1,3.05.61c-.94,1.09-1.67,1.86-2.3,2.7-.36.49-.83,1.14-.76,1.65a17.67,17.67,0,0,0,1.11,4.94c.45,1,1.68,2.32,2.56,2.32a3.45,3.45,0,0,0,2.53-2.28C316.08,218.36,318,218.1,320.69,217.84ZM264.94,450l-.89-.78a17.62,17.62,0,0,1,1-2.8c1-1.83,1-3.4-.61-4.91a22.09,22.09,0,0,1-2-2.58c-1.64-2-4.08-1.77-4.84.73a46.12,46.12,0,0,0-2,9.47,3.86,3.86,0,0,1-2.47,3.75c-4.83,2.21-9.67,4.39-14.42,6.76-.91.46-1.42,1.73-2.11,2.62,1.3.49,2.75,1.61,3.87,1.34a53.93,53.93,0,0,0,8.6-3.19c2.68-1.17,5.29-2.54,7.87-3.92,2.31-1.23,10.12,2.49,10.52,5.08a1,1,0,0,1,0,.34c-.4,2.54,1.32,3.59,3.25,4.27a21.78,21.78,0,0,0,17.13-.59c3.91-1.86,7.57-4.25,11.45-6.19,2.38-1.19,2.81-3,2.79-5.39-.06-5.58,0-11.15,0-16.73,0-.41.39-.82.4-1.24,0-2.31,0-4.63,0-6.94l-1.11-.48c-2.49,1.36-4.94,2.82-7.51,4.05a5.49,5.49,0,0,1-3.3.48c-2.79-.62-4.5.6-5.75,2.83a15.26,15.26,0,0,1-10.7,7.43,9.28,9.28,0,0,0-6.09,4.18C267.36,448.58,266,449.17,264.94,450ZM368.51,342.79c2.3,1.58,2.38,3.72.67,6-2,2.77-4.18,5.49-6.4,8.39a5.69,5.69,0,0,1-3.38-5.33c.41-3.69,3.29-4.86,6.67-5.52-1.11-.75-2.25-1-3.22-1.59a24.66,24.66,0,0,1-2.8-2.23c1.24-.16,2.49-.32,3.72-.51.2,0,.37-.22.55-.34l-.7-.44,3.61-6.24c-3.59.21-9.25,4.46-10.6,7.9-1.2,3-1.71,6.68-5.52,7.52l1,5.26c1.59-2.62,2.11-5.77,4.9-5.92.93,2.26,1.37,4,2.31,5.44,1.49,2.25.73,4.07-.85,5.56-1.17,1.1-6.33.2-6.64-1.12-.59-2.58-1.89-4.36-5-5.67.56,2.34.87,4.38,1.54,6.3.6,1.66.31,3.33-1.34,3-2.35-.42-2.13,1.23-2.23,2.16-.27,2.32-.09,4.67-.18,7-.15,4.1-.4,8.2-.57,12.3a36.85,36.85,0,0,0,0,4.7c.13,1.49,0,3.38.88,4.36,1.87,2.15,4.27,3.84,6.73,5.95a13.53,13.53,0,0,0,1.67-2.64c1.35-3.86,2.6-7.75,3.83-11.65s2.28-7.64,3.54-11.42a47.88,47.88,0,0,1,2.14-4.68l1.54.56c-.25,1.68-.36,3.4-.77,5-.47,1.9,1.43,6.06,3.05,5.91,2.86-.26,6.34,1,8.08-2.72a1.43,1.43,0,0,1,1.06-.52c4-.12,6.75-1.53,6.84-6,0-.1.09-.2.1-.3.62-4.74,1.24-9.48,1.83-14.22,0-.27-.31-.56-.39-.87-.59-2.23-3.74-3.43-2.53-6.37-.69,0-1.94-.24-2-.08-1.11,3.6-3.43,2.15-6.21,1.48.73-1.28,1.35-2.21,1.81-3.23a29,29,0,0,0,1.94-5c.11-.47-.91-1.58-1.6-1.8a23.89,23.89,0,0,0-4.27-.64l-.28-1.17Zm20.16,187.29a14.46,14.46,0,0,0-10.92-5.28c-6.65,0-13.08.33-19.72,2.29-7.55,2.23-14.06,5.2-19.11,11.19-.55.64-.59,1.73-1.17,2.33-2.24,2.33-1.21,6.94-5.86,7.82-1.12.22-1.77,3.25-2.5,5-1.17,2.86-2.21,5.75-3.31,8.63l1,.55c1.49-.6,3.06-1.87,4.44-1.69,4.37.59,8.21-1.13,12.21-2.12a57.4,57.4,0,0,0,9.82-3,55,55,0,0,0,9-5.52c2.26-1.6,4.05-3.91,6.39-5.37,3.82-2.37,7.92-4.3,12.58-6.78a19.18,19.18,0,0,0-3.23,0c-3.48.78-6.9,1.8-10.4,2.44-1.58.28-3.87.76-3.86-2.43,4-.74,8-1.11,11.66-2.24C380.17,534.62,385.42,534.75,388.67,530.08Zm-90.89-37.77,1.24-.12,5.43-27.38c-7.5,6.5-15.9,8.29-25.1,8.66C288.41,477,292.8,484.94,297.78,492.31Zm18.41-65.21c2.19.69,4.41.82,5.76,2,1.07.91,1.06,3.08,1.47,4.47,2.56-1.87,5.45-4.15,8.53-6.16,2.36-1.55,3.84-3.17,2-6.2l.69-.56,4.76,2.62c2.36-2.29,6.38-3.63,6.65-7.85-5,1.68-9.65,3.86-14.54,4.71a24.85,24.85,0,0,1-15.28-2.46Zm3-29.33c5.24,2.33,11,5,16.9,7.45,1,.41,2.39-.18,3.39-.28l3.68,4.35a7.92,7.92,0,0,0,.93-3.42c.2-1.45-1.47-8.48-2.34-9.55-2.21-2.71-3.09-2.58-4.81,1.38-1.41-1.71-2.57-3.14-4-4.89,1,3-.24,4.72-2.77,5.41-2,.56-4.43,1.48-5.68-1.25a25.94,25.94,0,0,1-2.3-6.7c-.48-3.18-.32-3.26-2.45-1.91C319.52,391.77,319.36,394.57,319.17,397.77ZM378,444.53c.33-1.14,2.57-3.54-1.78-4.35-.36-.07-.59-.72-.92-1.05-1.72-1.72-3.87-3.16-5.07-5.18-2-3.32-6.69-3.63-8-7.89-.29-1-1.54-2.44-1.27-3.57s1.61-2,2.46-2.89l-3-1.35a25,25,0,0,0-2.14,4.11c-.5,1.59-1.32,4.13-.6,4.85,3.05,3,.86,6.86,2.08,10.06a26.27,26.27,0,0,1,.77,2.93c.69-.87,1.39-1.72,2.06-2.59s1.36-1.78,2-2.67c.65.95,2.07,2.33,1.82,2.8-1.41,2.59.56,4.19,1.57,5.88s2.66,2.63,5,1.34C374.13,444.36,375.72,444.69,378,444.53ZM224.67,435.3l.72-.78,13.07,7.29c.93-2.48,1.81-4.32-1.51-4.34-.66,0-1.3-1.06-2-1.59-1.82-1.43-3.65-3.93-5.48-3.93s-3.19,0-4.62-1.34a19.64,19.64,0,0,0-3.65-2.14l-.53.61,3.82,4.54-.82,1.06c-1.52-.63-3.49-.87-4.48-2-3.22-3.59-6.94-4.64-12.53-3,5,1.13,7.68,4.11,10.62,6.93,2.28,2.18,5.41,3.48,8.19,5.12a5.46,5.46,0,0,0,2.65,1.05c.87-.05,1.69-.87,2.53-1.35a23.33,23.33,0,0,0-1.54-1.88C227.67,438.13,226.16,436.72,224.67,435.3Zm23.4-257.56-.34.56,4.73,5.74c1.81-2.1,3-1.3,4.53,0,1.37,1.19,3.26,2.53,4.92,2.52,3.88,0,7.76-1.28,11.63-1.19,4.79.1,7.1-3.3,10.17-6a118,118,0,0,0-13.64,1c-5.22.58-10.42,2.36-15.57-.81C252.68,178.43,250.23,178.31,248.07,177.74ZM268.17,367c-1.12-2.16-2.07-4.85-5.34-3.3s-6.37.62-9.57-.43a4.69,4.69,0,0,0-3.77.94c-1.35,1.13-2.23,2.84-3.28,4.26C250.76,373.48,263.45,372.53,268.17,367Zm39.27,233.4-.77-.72c-2.73,2.31-5.48,4.59-8.17,6.93-1.25,1.09-2.59,2-2.53,4.13.06,2.33-.82,4.67-1.06,7-.4,4-.62,8.07-.92,12.1l.73.11Zm72-220.17c-2.58.42-4.84-.35-6,2.6-.63,1.57-2.42,2.05-4.34.94-2.42-1.41-6.5.34-7.05,2.8-.35,1.63-.68,3.25-1,4.91l2.8,1.51c.38-.34,1.19-1.33,1.4-1.22,2.38,1.31,3.73-.48,5.61-1.34A14.78,14.78,0,0,0,379.44,380.27Zm-68.7,1.78c-.73,1.46-2.39,3.33-2.5,5.29a164.87,164.87,0,0,0,0,18.6c.13,2.4,1.56,4.72,2.4,7.08,1.36-7.54-.25-15,2.75-22.1a2,2,0,0,0,0-1.31C312.49,387,311.59,384.5,310.74,382.05Zm-.36,44a38.27,38.27,0,0,0-.91,5.34c0,8.17.28,16.36-2.56,24.26-.36,1,.62,2.47,1.19,4.47C311.63,448.66,314.94,438.19,310.38,426.05ZM295.23,582.76a113.19,113.19,0,0,0,1.66-29.52C293.54,562.9,295.36,572.89,295.23,582.76ZM367,421.14l-.41.27L380,437.82c.89-2.25,1.62-4.93-1.93-6.66a2.59,2.59,0,0,1-1.07-1.58c-1.19-4.8-4.92-6.65-9.11-8A6,6,0,0,1,367,421.14ZM306.59,550.79c1,2,1.34,4.48,2.57,5,2.9,1.32,3.85,2.59,1.69,5l3.77,5.46c.1-1.88.56-3.12.13-3.74-2.31-3.34-1.63-6.34,1.3-9.83Zm-54.7-107.11c-2.18-1.91-4.28-1.3-6.72,2-2.85,3.83-2.85,3.83-7.21,1.4.59.89,1.23,1.41,1.2,1.87-.26,3.75,1.76,2.71,3.81,2C246.73,449.54,250.14,447.79,251.89,443.68Zm50.33,132c1.35,3,2.2,5.14,3.3,7.16.72,1.33,1.36,1.61,2.88.16,2.91-2.77-.84-4.49-.5-6.73Zm27.42-165.19c-3-1.84-7.33-1.25-7.33-6.44l-2.57,3.86.32,4.76ZM262.38,172.66l0-.3c-2.24.31-4.5.52-6.7,1-.51.11-.83,1.1-1.24,1.69.54.3,1.1.9,1.61.85q5.79-.52,11.56-1.31c.44-.06.81-.7,1.21-1.08-.38-.28-.75-.78-1.14-.8C265.89,172.61,264.14,172.66,262.38,172.66Zm-8.45,28.83c-1.05-1.2-1.56-1.75-2-2.33-1-1.27-2-2.56-3-3.83-.55-.69-1.28-2-1.63-1.91a4.93,4.93,0,0,0-2.84,1.8c-.25.39.71,2.06,1.49,2.51C248.2,199,250.68,200,253.93,201.49Zm117.64,211-.73.82c1.36,5.41,2.75,6.53,9.27,6.72Zm-100-188c-.51-5.67-6.82-14.33-9-13.57ZM237.88,359.66v.6l9.46,1,.09-1.59Zm69.13,204,.39-1-2.85-4.54-1,.18c.1,1.27-.17,2.76.42,3.75C304.49,562.92,306,563.17,307,563.68Zm-4.09,6.67.09,1.28,7.13-.49-.06-.79Z" transform="translate(-75.23 -77.45)"/><path d="M256.47,225.37c1.6,1.3,3.61,2.21,4.47,3.76,3.33,6,8.76,9.23,14.42,12.38a4.1,4.1,0,0,1,2,2.51c.08.64-1.14,2-1.92,2.09a4.34,4.34,0,0,1-3-1.09c-3.51-2.89-7-5.84-10.31-8.9-2.56-2.35-5-4.88-7.35-7.41a2,2,0,0,1-.41-1.74C254.68,226.4,255.47,226.09,256.47,225.37Z" transform="translate(-75.23 -77.45)"/><path d="M321.31,250.23a36.72,36.72,0,0,1,3.85,1.83c3.86,2.4,7.59,5,11.53,7.29,1.52.88,3.58.76,5.23,1.49,1.07.47,1.82,1.65,2.72,2.51-1.4.57-3,1.89-4.15,1.55a32,32,0,0,1-7.78-3.78c-3.65-2.35-7.12-5-10.58-7.59a9.93,9.93,0,0,1-1.69-2.37Z" transform="translate(-75.23 -77.45)"/><path d="M293.65,235.09c3.37.72,6.73,1.4,10.08,2.17a4.16,4.16,0,0,1,1.52.94c-.9,1.72-1.62,3.71-3,5-.79.69-2.88.59-4,.06-1.53-.71-2.61-2.34-4.06-3.29-2.53-1.66-2.7-2.76-.42-4.92Z" transform="translate(-75.23 -77.45)"/><path d="M277.63,568.34c.88.68,2.19,1.19,2.57,2.08A109.61,109.61,0,0,1,284,581c.18.59-.78,1.53-1.22,2.32a9.86,9.86,0,0,1-2.6-1.71c-1-1.34-1.54-3.07-2.6-4.37-1.32-1.62-3.41-2.79-.76-5.08.51-.45.07-2,.07-3Z" transform="translate(-75.23 -77.45)"/><path d="M277.29,591.94c1-.84,2.2-2.53,3-2.35,1.81.39,3.81,1.41,3,4.48L277.83,593Z" transform="translate(-75.23 -77.45)"/><path class="cls-1" d="M337,533.06a26.86,26.86,0,0,0,.91-4.16A2.33,2.33,0,0,0,337,527a2.29,2.29,0,0,0-2.12.15c-5,4.68-5.47,4.75-9.74.34-1.75-1.81-3.33-3.79-5-5.64a5.2,5.2,0,0,0-2-1.66c-2.55-.71-3.38-2.28-3.43-4.84-.1-4.4-3.32-8-6.68-7.8a2.2,2.2,0,0,0-.44.2c3,5.5,1.78,12.82,7.9,17.09,5.23,3.65,8.42,10.5,15.79,9.91-1.79,3.68-3.63,7.3-5.3,11-.32.71,0,1.73.09,2.61,0,.64,0,1.27,0,1.91-.65-.21-1.6-.21-1.9-.66-3.28-4.82-8-7.09-13.58-7.92a12.06,12.06,0,0,0-3.48.21c-2.34.34-4-.1-3.7-3q1-10.11,1.95-20.22c.67-7,1.13-14,2.11-20.88.86-6.1,2.3-12.12,3.5-18.18.12-.64.3-1.26.42-1.9.78-4.17,1.83-7.64,6.91-9.07,2.7-.76,4.56-4.22,7-6.19,2.84-2.27,4.4-6.41,8.91-6.33a1.09,1.09,0,0,0,.64-.11c1-.79,2.26-2.49,2.72-2.28a30,30,0,0,1,6.94,4.18c3.57,3,7.37,6,10.1,9.69s4.53,8.26,6.35,12.6c3.45,8.25,1.54,16.44-1.95,24-2.1,4.53-6.18,8.1-9.07,12.31-2,3-3.56,6.29-5.33,9.45a3.63,3.63,0,0,1-.69,1.08C341.94,528.89,339.88,530.62,337,533.06Zm-2.09-22.3c2.61.73,4.26,1.58,5.81,1.42.55-.06,1.27-2.61,1.13-3.94-.11-1-1.48-1.83-2.29-2.74Zm3.68,4.82c-2.9.23-3.74,2.71-2.82,7.84l2.82-.13Zm1.28-31.22h-4c.26,1.71.5,3.2.79,5.05Z" transform="translate(-75.23 -77.45)"/><path class="cls-1" d="M320.69,217.84c-2.73.26-4.61.52-4.74,3.53a3.45,3.45,0,0,1-2.53,2.28c-.88,0-2.11-1.31-2.56-2.32a17.67,17.67,0,0,1-1.11-4.94c-.07-.51.4-1.16.76-1.65.63-.84,1.36-1.61,2.3-2.7a13.35,13.35,0,0,0-3.05-.61c-1.74.16-3.25.79-2.95,3,.37,2.67.81,5.34,1.24,8,.32,2-1.45,3.13-4,2.76-4.5-.65-9-1.32-13.53-1.63-1.24-.08-2.56,1.1-3.85,1.69-4,1.82-5,1-6.71-2.77-1.34-3-1.76-6.87-5.4-8.61-.53-.26-.65-1.31-1.08-1.9-2.24-3.07-4.09-6.6-6.9-9-2.21-1.88-3.31-3.49-3.08-6.28.17-2,0-4,0-6.27,4,.74,7.55,1.52,11.19,2a5.1,5.1,0,0,0,3.36-.87c3.73-2.77,3.68-2.84,7.63-3.15.48-1.44,1-2.9,1.59-4.83,2.19,2.27,3.4,2,4.59-.32,1.44-2.83,7.17-5,10.33-3.85,3.64,1.31,7.12,3.08,11.61,5.07l-7.3-.42c-.57-.55-1.88-2.07-2.09-1.93a34.19,34.19,0,0,0-4,3.49c2.42,3.22,3.72.76,5.07-.71,1.42,4.85,4.3,7.05,8.42,6.17,1.13-.24,2.13-2,2.8-3.28,1-1.89,1.66-2.35,3.61-.8s4.34,2.25,6.49,3.3c-2.55,1-3.27,3-2.42,5.45a2.78,2.78,0,0,0,2.12,1.35c.49,0,1.37-1,1.47-1.72a36.89,36.89,0,0,0,.07-5c2.42,1.42,3.45,3,3.35,5.42-.09,2.07.43,3.23,3,3.62a17.09,17.09,0,0,1,7.21,3.36c.78.58.89,3.14.31,4.3-2.48,5-5.32,9.86-8,14.76l-1.21-.35a31.88,31.88,0,0,0-.1-6c-.25-1.27-1.45-2.36-2.23-3.54-.94,1-2.3,1.79-2.73,2.95-1.18,3.24-1.8,6.68-3,9.91-.44,1.18-1.9,2-2.9,2.94l-1.07-.7Zm-27.58-29.42c-5-.67-5.37-.29-4.24,4.6Z" transform="translate(-75.23 -77.45)"/><path class="cls-1" d="M264.94,450c1.08-.79,2.42-1.38,3.18-2.41a9.28,9.28,0,0,1,6.09-4.18,15.26,15.26,0,0,0,10.7-7.43c1.25-2.23,3-3.45,5.75-2.83a5.49,5.49,0,0,0,3.3-.48c2.57-1.23,5-2.69,7.51-4.05l1.11.48c0,2.31,0,4.63,0,6.94,0,.42-.4.83-.4,1.24,0,5.58-.09,11.15,0,16.73,0,2.35-.41,4.2-2.79,5.39-3.88,1.94-7.54,4.33-11.45,6.19a21.78,21.78,0,0,1-17.13.59c-1.93-.68-3.65-1.73-3.25-4.27a1,1,0,0,0,0-.34c-.4-2.59-8.21-6.31-10.52-5.08-2.58,1.38-5.19,2.75-7.87,3.92a53.93,53.93,0,0,1-8.6,3.19c-1.12.27-2.57-.85-3.87-1.34.69-.89,1.2-2.16,2.11-2.62,4.75-2.37,9.59-4.55,14.42-6.76a3.86,3.86,0,0,0,2.47-3.75,46.12,46.12,0,0,1,2-9.47c.76-2.5,3.2-2.75,4.84-.73a22.09,22.09,0,0,0,2,2.58c1.63,1.51,1.63,3.08.61,4.91a17.62,17.62,0,0,0-1,2.8Z" transform="translate(-75.23 -77.45)"/><path class="cls-1" d="M368.51,342.79l2.54-3.33.28,1.17a23.89,23.89,0,0,1,4.27.64c.69.22,1.71,1.33,1.6,1.8a29,29,0,0,1-1.94,5c-.46,1-1.08,1.95-1.81,3.23,2.78.67,5.1,2.12,6.21-1.48,0-.16,1.3,0,2,.08-1.21,2.94,1.94,4.14,2.53,6.37.08.31.42.6.39.87-.59,4.74-1.21,9.48-1.83,14.22,0,.1-.1.2-.1.3-.09,4.51-2.88,5.92-6.84,6a1.43,1.43,0,0,0-1.06.52c-1.74,3.76-5.22,2.46-8.08,2.72-1.62.15-3.52-4-3.05-5.91.41-1.65.52-3.37.77-5l-1.54-.56a47.88,47.88,0,0,0-2.14,4.68c-1.26,3.78-2.34,7.62-3.54,11.42s-2.48,7.79-3.83,11.65a13.53,13.53,0,0,1-1.67,2.64c-2.46-2.11-4.86-3.8-6.73-5.95-.85-1-.75-2.87-.88-4.36a36.85,36.85,0,0,1,0-4.7c.17-4.1.42-8.2.57-12.3.09-2.34-.09-4.69.18-7,.1-.93-.12-2.58,2.23-2.16,1.65.29,1.94-1.38,1.34-3-.67-1.92-1-4-1.54-6.3,3.08,1.31,4.38,3.09,5,5.67.31,1.32,5.47,2.22,6.64,1.12,1.58-1.49,2.34-3.31.85-5.56-.94-1.42-1.38-3.18-2.31-5.44-2.79.15-3.31,3.3-4.9,5.92l-1-5.26c3.81-.84,4.32-4.48,5.52-7.52,1.35-3.44,7-7.69,10.6-7.9l-3.61,6.24.7.44c-.18.12-.35.31-.55.34-1.23.19-2.48.35-3.72.51a24.66,24.66,0,0,0,2.8,2.23c1,.56,2.11.84,3.22,1.59-3.38.66-6.26,1.83-6.67,5.52a5.69,5.69,0,0,0,3.38,5.33c2.22-2.9,4.36-5.62,6.4-8.39C370.89,346.51,370.81,344.37,368.51,342.79Zm.28,32.58,1.17,1.27c1.55-.55,3.36-.77,4.61-1.73a48.44,48.44,0,0,0,6.79-6.41c.4-.46-.29-2.43-1-3.13-.38-.37-2.16.23-2.94.86a41,41,0,0,0-4.09,4.14C371.77,372,370.29,373.7,368.79,375.37Zm-16.25-.46c.18-2.36.85-4.58-2.19-5.48-.43-.13-.34-1.65-.72-2.41a10.5,10.5,0,0,0-1.83-2.56,3,3,0,0,0-1.64,1.11C344.84,368.59,348.91,374.71,352.54,374.91Zm22.4-9.71c2.33-2.14,4.2-3.73,5.89-5.48a2,2,0,0,0,0-2,2.4,2.4,0,0,0-2-.45C377.49,357.58,374.73,362.41,374.94,365.2Zm-3.86,1.85,2.66-3.09c-1-.75-2.09-2.17-3-2.09-1.17.09-2.24,1.42-3.35,2.22Zm-16.52,24-2.67-3.27c-.62.83-1.64,1.63-1.73,2.51-.06.62,1,1.69,1.83,1.95C352.54,392.39,353.43,391.57,354.56,391Z" transform="translate(-75.23 -77.45)"/><path class="cls-1" d="M388.67,530.08c-3.25,4.67-8.5,4.54-13,5.92-3.7,1.13-7.63,1.5-11.66,2.24,0,3.19,2.28,2.71,3.86,2.43,3.5-.64,6.92-1.66,10.4-2.44a19.18,19.18,0,0,1,3.23,0c-4.66,2.48-8.76,4.41-12.58,6.78-2.34,1.46-4.13,3.77-6.39,5.37a55,55,0,0,1-9,5.52,57.4,57.4,0,0,1-9.82,3c-4,1-7.84,2.71-12.21,2.12-1.38-.18-2.95,1.09-4.44,1.69l-1-.55c1.1-2.88,2.14-5.77,3.31-8.63.73-1.79,1.38-4.82,2.5-5,4.65-.88,3.62-5.49,5.86-7.82.58-.6.62-1.69,1.17-2.33,5.05-6,11.56-9,19.11-11.19,6.64-2,13.07-2.25,19.72-2.29A14.46,14.46,0,0,1,388.67,530.08ZM339,548l.86.73a49.22,49.22,0,0,0,5.81-2.65c.7-.43.84-1.76,1.24-2.69-1.17,0-2.43-.36-3.48,0a7.37,7.37,0,0,0-2.71,2.08A19,19,0,0,0,339,548Zm11.31-3.26c5.51-1.23,5.51-1.23,5.36-3.72C351.67,540.87,350.18,541.83,350.34,544.74Z" transform="translate(-75.23 -77.45)"/><path class="cls-1" d="M297.78,492.31c-5-7.37-9.37-15.32-18.43-18.84,9.2-.37,17.6-2.16,25.1-8.66L299,492.19Z" transform="translate(-75.23 -77.45)"/><path class="cls-1" d="M316.19,427.1v-9.45a24.85,24.85,0,0,0,15.28,2.46c4.89-.85,9.55-3,14.54-4.71-.27,4.22-4.29,5.56-6.65,7.85l-4.76-2.62-.69.56c1.88,3,.4,4.65-2,6.2-3.08,2-6,4.29-8.53,6.16-.41-1.39-.4-3.56-1.47-4.47C320.6,427.92,318.38,427.79,316.19,427.1Z" transform="translate(-75.23 -77.45)"/><path class="cls-1" d="M319.17,397.77c.19-3.2.35-6,.55-9.41,2.13-1.35,2-1.27,2.45,1.91a25.94,25.94,0,0,0,2.3,6.7c1.25,2.73,3.64,1.81,5.68,1.25,2.53-.69,3.78-2.39,2.77-5.41,1.43,1.75,2.59,3.18,4,4.89,1.72-4,2.6-4.09,4.81-1.38.87,1.07,2.54,8.1,2.34,9.55a7.92,7.92,0,0,1-.93,3.42l-3.68-4.35c-1,.1-2.4.69-3.39.28C330.19,402.78,324.41,400.1,319.17,397.77Z" transform="translate(-75.23 -77.45)"/><path class="cls-1" d="M378,444.53c-2.27.16-3.86-.17-4.94.43-2.3,1.29-3.92.39-5-1.34s-3-3.29-1.57-5.88c.25-.47-1.17-1.85-1.82-2.8-.68.89-1.35,1.78-2,2.67s-1.37,1.72-2.06,2.59a26.27,26.27,0,0,0-.77-2.93c-1.22-3.2,1-7-2.08-10.06-.72-.72.1-3.26.6-4.85a25,25,0,0,1,2.14-4.11l3,1.35c-.85.93-2.2,1.78-2.46,2.89s1,2.57,1.27,3.57c1.27,4.26,6,4.57,8,7.89,1.2,2,3.35,3.46,5.07,5.18.33.33.56,1,.92,1.05C380.56,441,378.32,443.39,378,444.53Z" transform="translate(-75.23 -77.45)"/><path class="cls-1" d="M224.67,435.3c1.49,1.42,3,2.83,4.46,4.28a23.33,23.33,0,0,1,1.54,1.88c-.84.48-1.66,1.3-2.53,1.35a5.46,5.46,0,0,1-2.65-1.05c-2.78-1.64-5.91-2.94-8.19-5.12-2.94-2.82-5.62-5.8-10.62-6.93,5.59-1.65,9.31-.6,12.53,3,1,1.11,3,1.35,4.48,2l.82-1.06-3.82-4.54.53-.61a19.64,19.64,0,0,1,3.65,2.14c1.43,1.3,2.7,1.33,4.62,1.34s3.66,2.5,5.48,3.93c.68.53,1.32,1.59,2,1.59,3.32,0,2.44,1.86,1.51,4.34l-13.07-7.29Z" transform="translate(-75.23 -77.45)"/><path class="cls-1" d="M248.07,177.74c2.16.57,4.61.69,6.43,1.81,5.15,3.17,10.35,1.39,15.57.81a118,118,0,0,1,13.64-1c-3.07,2.73-5.38,6.13-10.17,6-3.87-.09-7.75,1.16-11.63,1.19-1.66,0-3.55-1.33-4.92-2.52-1.54-1.34-2.72-2.14-4.53,0l-4.73-5.74Z" transform="translate(-75.23 -77.45)"/><path class="cls-1" d="M268.17,367c-4.72,5.49-17.41,6.44-22,1.47,1-1.42,1.93-3.13,3.28-4.26a4.69,4.69,0,0,1,3.77-.94c3.2,1.05,6.2,2,9.57.43S267.05,364.88,268.17,367Z" transform="translate(-75.23 -77.45)"/><path class="cls-1" d="M307.44,600.44,294.72,630l-.73-.11c.3-4,.52-8.08.92-12.1.24-2.36,1.12-4.7,1.06-7-.06-2.17,1.28-3,2.53-4.13,2.69-2.34,5.44-4.62,8.17-6.93Z" transform="translate(-75.23 -77.45)"/><path class="cls-1" d="M379.44,380.27a14.78,14.78,0,0,1-8.64,10.2c-1.88.86-3.23,2.65-5.61,1.34-.21-.11-1,.88-1.4,1.22l-2.8-1.51c.35-1.66.68-3.28,1-4.91.55-2.46,4.63-4.21,7.05-2.8,1.92,1.11,3.71.63,4.34-.94C374.6,379.92,376.86,380.69,379.44,380.27Z" transform="translate(-75.23 -77.45)"/><path class="cls-1" d="M310.74,382.05c.85,2.45,1.75,5,2.6,7.56a2,2,0,0,1,0,1.31c-3,7.07-1.39,14.56-2.75,22.1-.84-2.36-2.27-4.68-2.4-7.08a164.87,164.87,0,0,1,0-18.6C308.35,385.38,310,383.51,310.74,382.05Z" transform="translate(-75.23 -77.45)"/><path class="cls-1" d="M310.38,426.05c4.56,12.14,1.25,22.61-2.28,34.07-.57-2-1.55-3.47-1.19-4.47,2.84-7.9,2.53-16.09,2.56-24.26A38.27,38.27,0,0,1,310.38,426.05Z" transform="translate(-75.23 -77.45)"/><path class="cls-1" d="M295.23,582.76c.13-9.87-1.69-19.86,1.66-29.52A113.19,113.19,0,0,1,295.23,582.76Z" transform="translate(-75.23 -77.45)"/><path class="cls-1" d="M367,421.14a6,6,0,0,0,.88.44c4.19,1.35,7.92,3.2,9.11,8a2.59,2.59,0,0,0,1.07,1.58c3.55,1.73,2.82,4.41,1.93,6.66l-13.4-16.41Z" transform="translate(-75.23 -77.45)"/><path class="cls-1" d="M306.59,550.79l9.46,1.91c-2.93,3.49-3.61,6.49-1.3,9.83.43.62,0,1.86-.13,3.74l-3.77-5.46c2.16-2.39,1.21-3.66-1.69-5C307.93,555.27,307.56,552.82,306.59,550.79Z" transform="translate(-75.23 -77.45)"/><path class="cls-1" d="M251.89,443.68c-1.75,4.11-5.16,5.86-8.92,7.22-2.05.75-4.07,1.79-3.81-2,0-.46-.61-1-1.2-1.87,4.36,2.43,4.36,2.43,7.21-1.4C247.61,442.38,249.71,441.77,251.89,443.68Z" transform="translate(-75.23 -77.45)"/><path class="cls-1" d="M302.22,575.7l5.68.59c-.34,2.24,3.41,4,.5,6.73-1.52,1.45-2.16,1.17-2.88-.16C304.42,580.84,303.57,578.68,302.22,575.7Z" transform="translate(-75.23 -77.45)"/><path class="cls-1" d="M329.64,410.51l-9.58,2.18-.32-4.76,2.57-3.86C322.31,409.26,326.62,408.67,329.64,410.51Z" transform="translate(-75.23 -77.45)"/><path class="cls-1" d="M262.38,172.66c1.76,0,3.51,0,5.27,0,.39,0,.76.52,1.14.8-.4.38-.77,1-1.21,1.08q-5.76.78-11.56,1.31c-.51.05-1.07-.55-1.61-.85.41-.59.73-1.58,1.24-1.69,2.2-.47,4.46-.68,6.7-1Z" transform="translate(-75.23 -77.45)"/><path class="cls-1" d="M253.93,201.49c-3.25-1.49-5.73-2.46-8-3.76-.78-.45-1.74-2.12-1.49-2.51a4.93,4.93,0,0,1,2.84-1.8c.35-.09,1.08,1.22,1.63,1.91,1,1.27,2,2.56,3,3.83C252.37,199.74,252.88,200.29,253.93,201.49Z" transform="translate(-75.23 -77.45)"/><path class="cls-1" d="M371.57,412.49l8.54,7.54c-6.52-.19-7.91-1.31-9.27-6.72Z" transform="translate(-75.23 -77.45)"/><path class="cls-1" d="M271.59,224.45l-9-13.57C264.77,210.12,271.08,218.78,271.59,224.45Z" transform="translate(-75.23 -77.45)"/><path class="cls-1" d="M237.88,359.66h9.56l-.09,1.59-9.46-1Z" transform="translate(-75.23 -77.45)"/><path class="cls-1" d="M307,563.68c-1.05-.51-2.52-.76-3-1.59-.59-1-.32-2.48-.42-3.75l1-.18,2.85,4.54Z" transform="translate(-75.23 -77.45)"/><path class="cls-1" d="M302.92,570.35h7.16l.06.79-7.13.49Z" transform="translate(-75.23 -77.45)"/><path d="M334.93,510.76l4.65-5.26c.81.91,2.18,1.75,2.29,2.74.14,1.33-.58,3.88-1.13,3.94C339.19,512.34,337.54,511.49,334.93,510.76Z" transform="translate(-75.23 -77.45)"/><path d="M338.61,515.58v7.71l-2.82.13C334.87,518.29,335.71,515.81,338.61,515.58Z" transform="translate(-75.23 -77.45)"/><path d="M339.89,484.36l-3.21,5.05c-.29-1.85-.53-3.34-.79-5.05Z" transform="translate(-75.23 -77.45)"/><path d="M293.11,188.42l-4.24,4.6C287.74,188.13,288.09,187.75,293.11,188.42Z" transform="translate(-75.23 -77.45)"/><path d="M368.79,375.37c1.5-1.67,3-3.35,4.51-5a41,41,0,0,1,4.09-4.14c.78-.63,2.56-1.23,2.94-.86.74.7,1.43,2.67,1,3.13a48.44,48.44,0,0,1-6.79,6.41c-1.25,1-3.06,1.18-4.61,1.73Z" transform="translate(-75.23 -77.45)"/><path d="M352.54,374.91c-3.63-.2-7.7-6.32-6.38-9.34a3,3,0,0,1,1.64-1.11,10.5,10.5,0,0,1,1.83,2.56c.38.76.29,2.28.72,2.41C353.39,370.33,352.72,372.55,352.54,374.91Z" transform="translate(-75.23 -77.45)"/><path d="M374.94,365.2c-.21-2.79,2.55-7.62,3.91-7.91a2.4,2.4,0,0,1,2,.45,2,2,0,0,1,0,2C379.14,361.47,377.27,363.06,374.94,365.2Z" transform="translate(-75.23 -77.45)"/><path d="M371.08,367.05l-3.73-3c1.11-.8,2.18-2.13,3.35-2.22.95-.08,2,1.34,3,2.09Z" transform="translate(-75.23 -77.45)"/><path d="M354.56,391c-1.13.56-2,1.38-2.57,1.19-.79-.26-1.89-1.33-1.83-1.95.09-.88,1.11-1.68,1.73-2.51Z" transform="translate(-75.23 -77.45)"/><path d="M339,548a19,19,0,0,1,1.72-2.55,7.37,7.37,0,0,1,2.71-2.08c1.05-.34,2.31,0,3.48,0-.4.93-.54,2.26-1.24,2.69a49.22,49.22,0,0,1-5.81,2.65Z" transform="translate(-75.23 -77.45)"/><path d="M350.34,544.74c-.16-2.91,1.33-3.87,5.36-3.72C355.85,543.51,355.85,543.51,350.34,544.74Z" transform="translate(-75.23 -77.45)"/></svg>