<?xml version="1.0" encoding="utf-8"?>
<!-- Generator: Adobe Illustrator 25.3.1, SVG Export Plug-In . SVG Version: 6.00 Build 0)  -->
<svg version="1.1" id="レイヤー_1" xmlns="http://www.w3.org/2000/svg" xmlns:xlink="http://www.w3.org/1999/xlink" x="0px"
	 y="0px" viewBox="0 0 40.8 33.5" style="enable-background:new 0 0 40.8 33.5;" xml:space="preserve">
<style type="text/css">
	.st0{fill:#FFFFFF;}
	.st1{fill:#707070;}
</style>
<path class="st0" d="M0,29.9c0.1,0.2,0.2,0.3,0.2,0.3c5.7,3.3,12.6,4.2,18.9,2.3c7.4-2,12.5-6.9,15.5-13.8c1.3-3.1,2-6.4,2-9.8
	c0.1-0.4,0.2-0.8,0.5-1.1c1.1-1.1,2.3-2.3,3.6-3.5l-4.6,1.1c1.3-1.4,2.7-2.5,3.2-4.4c-1.6,0.5-3.1,1-4.7,1.5c-0.3,0-0.6,0-0.8-0.2
	c-1.2-0.6-2.3-1.3-3.5-1.9c-2.3-1-4.9-0.7-6.9,0.8c-3.3,2.1-4.4,5.2-3.8,9.1C13,10.1,6.6,6.9,2.1,1.6C0.3,6.1,1.1,9.9,4.9,12.9
	L4.7,13l-3.7-1c0.4,4.2,2.7,6.8,6.7,8.1l-0.1,0.2l-3.5,0.2c0.5,1.6,1.5,3,3,3.9c1.5,0.8,3,1.5,4.6,2C8.4,29,4.2,30.2,0,29.9z"/>
<path class="st1" d="M0,29.9c4.2,0.3,8.3-0.9,11.7-3.4c-1.6-0.5-3.1-1.2-4.6-2c-1.5-0.9-2.5-2.3-3-3.9l3.5-0.2l0.1-0.2
	c-4-1.3-6.3-3.9-6.7-8.1l3.7,1l0.2-0.2C1,9.8,0.2,6.1,2.1,1.6c4.4,5.3,10.8,8.5,17.7,8.9c-0.6-3.9,0.5-7.1,3.8-9.1
	c2-1.5,4.6-1.8,6.9-0.8c1.2,0.5,2.3,1.2,3.5,1.9c0.2,0.1,0.5,0.2,0.8,0.2c1.6-0.5,3.1-1,4.7-1.5c-0.5,1.8-2,3-3.2,4.4l4.6-1.1
	c-1.3,1.3-2.5,2.4-3.6,3.5c-0.3,0.3-0.5,0.7-0.5,1.1c0,3.4-0.7,6.7-2,9.8c-3,7-8,11.8-15.5,13.8c-6.4,1.8-13.2,1-18.9-2.3
	C0.2,30.2,0.2,30.1,0,29.9z"/>
</svg>
